STARTFONT 2.1
FONT -FontForge-STIX Two Math-Book-R-Normal--14-140-72-72-P-95-ISO10646-1
SIZE 14 72 72
FONTBOUNDINGBOX 57 60 -14 -23
COMMENT "Generated by fontforge, http://fontforge.sourceforge.net"
COMMENT "Copyright 2001-2021 The STIX Fonts Project Authors (https://github.com/stipub/stixfonts)"
STARTPROPERTIES 40
FOUNDRY "FontForge"
FAMILY_NAME "STIX Two Math"
WEIGHT_NAME "Book"
SLANT "R"
SETWIDTH_NAME "Normal"
ADD_STYLE_NAME ""
PIXEL_SIZE 14
POINT_SIZE 140
RESOLUTION_X 72
RESOLUTION_Y 72
SPACING "P"
AVERAGE_WIDTH 95
CHARSET_REGISTRY "ISO10646"
CHARSET_ENCODING "1"
FONTNAME_REGISTRY ""
CHARSET_COLLECTIONS "ASCII ISOLatin1Encoding ISO8859-2 ISO8859-5 ISO8859-7 ISO8859-9 ISO8859-4 ISO10646-1"
FONT_NAME "STIXTwoMath-Regular"
FACE_NAME "STIX Two Math Regular"
COPYRIGHT "Copyright 2001-2021 The STIX Fonts Project Authors (https://github.com/stipub/stixfonts)"
FONT_VERSION "2.12 b168a"
FONT_ASCENT 11
FONT_DESCENT 3
UNDERLINE_POSITION -1
UNDERLINE_THICKNESS 1
X_HEIGHT 6
CAP_HEIGHT 8
RAW_ASCENT 762
RAW_DESCENT 238
NORM_SPACE 3
RELATIVE_WEIGHT 40
RELATIVE_SETWIDTH 50
SUPERSCRIPT_X 0
SUPERSCRIPT_Y 7
SUPERSCRIPT_SIZE 7
SUBSCRIPT_X 0
SUBSCRIPT_Y 3
SUBSCRIPT_SIZE 7
FIGURE_WIDTH 7
AVG_LOWERCASE_WIDTH 69
AVG_UPPERCASE_WIDTH 94
ENDPROPERTIES
CHARS 6611
STARTCHAR space
ENCODING 32
SWIDTH 235 0
DWIDTH 3 0
BBX 1 1 0 0
BITMAP
00
ENDCHAR
STARTCHAR exclam
ENCODING 33
SWIDTH 283 0
DWIDTH 4 0
BBX 2 9 1 0
BITMAP
C0
C0
C0
C0
80
80
80
C0
C0
ENDCHAR
STARTCHAR quotedbl
ENCODING 34
SWIDTH 334 0
DWIDTH 5 0
BBX 3 3 1 7
BITMAP
A0
A0
A0
ENDCHAR
STARTCHAR numbersign
ENCODING 35
SWIDTH 702 0
DWIDTH 10 0
BBX 8 9 1 0
BITMAP
22
24
FF
24
24
FF
44
44
48
ENDCHAR
STARTCHAR dollar
ENCODING 36
SWIDTH 495 0
DWIDTH 7 0
BBX 6 11 0 -1
BITMAP
10
7C
54
54
70
38
1C
94
94
78
10
ENDCHAR
STARTCHAR percent
ENCODING 37
SWIDTH 692 0
DWIDTH 10 0
BBX 8 9 1 0
BITMAP
7E
94
94
A8
D2
15
29
29
46
ENDCHAR
STARTCHAR ampersand
ENCODING 38
SWIDTH 736 0
DWIDTH 10 0
BBX 10 9 0 0
BITMAP
1C00
2400
3400
1B80
3900
4900
C600
C640
7980
ENDCHAR
STARTCHAR quotesingle
ENCODING 39
SWIDTH 187 0
DWIDTH 3 0
BBX 1 3 1 7
BITMAP
80
80
80
ENDCHAR
STARTCHAR parenleft
ENCODING 40
SWIDTH 357 0
DWIDTH 5 0
BBX 4 13 1 -3
BITMAP
30
40
80
80
80
80
80
80
80
80
40
20
10
ENDCHAR
STARTCHAR parenright
ENCODING 41
SWIDTH 357 0
DWIDTH 5 0
BBX 4 13 0 -3
BITMAP
C0
20
10
10
10
10
10
10
10
10
20
40
80
ENDCHAR
STARTCHAR asterisk
ENCODING 42
SWIDTH 410 0
DWIDTH 6 0
BBX 4 5 1 5
BITMAP
40
D0
60
F0
40
ENDCHAR
STARTCHAR plus
ENCODING 43
SWIDTH 720 0
DWIDTH 10 0
BBX 8 9 1 -1
BITMAP
08
08
08
08
FF
08
08
08
08
ENDCHAR
STARTCHAR comma
ENCODING 44
SWIDTH 245 0
DWIDTH 3 0
BBX 2 4 1 -2
BITMAP
80
C0
40
80
ENDCHAR
STARTCHAR hyphen
ENCODING 45
SWIDTH 315 0
DWIDTH 4 0
BBX 3 1 1 3
BITMAP
E0
ENDCHAR
STARTCHAR period
ENCODING 46
SWIDTH 245 0
DWIDTH 3 0
BBX 2 2 1 0
BITMAP
80
C0
ENDCHAR
STARTCHAR slash
ENCODING 47
SWIDTH 386 0
DWIDTH 5 0
BBX 5 11 0 -1
BITMAP
08
08
10
10
10
20
20
20
40
40
C0
ENDCHAR
STARTCHAR zero
ENCODING 48
SWIDTH 495 0
DWIDTH 7 0
BBX 7 9 0 0
BITMAP
38
44
44
C4
C6
C4
44
44
38
ENDCHAR
STARTCHAR one
ENCODING 49
SWIDTH 495 0
DWIDTH 7 0
BBX 5 9 1 0
BITMAP
E0
20
20
20
20
20
20
20
F8
ENDCHAR
STARTCHAR two
ENCODING 50
SWIDTH 495 0
DWIDTH 7 0
BBX 6 9 1 0
BITMAP
70
98
08
08
10
20
40
84
F8
ENDCHAR
STARTCHAR three
ENCODING 51
SWIDTH 495 0
DWIDTH 7 0
BBX 5 9 1 0
BITMAP
70
98
18
10
70
08
08
08
F0
ENDCHAR
STARTCHAR four
ENCODING 52
SWIDTH 495 0
DWIDTH 7 0
BBX 7 9 0 0
BITMAP
08
18
18
28
48
88
FE
08
08
ENDCHAR
STARTCHAR five
ENCODING 53
SWIDTH 495 0
DWIDTH 7 0
BBX 5 9 1 0
BITMAP
78
40
80
F0
18
08
08
08
F0
ENDCHAR
STARTCHAR six
ENCODING 54
SWIDTH 495 0
DWIDTH 7 0
BBX 5 9 1 0
BITMAP
38
40
C0
F0
88
88
88
88
70
ENDCHAR
STARTCHAR seven
ENCODING 55
SWIDTH 495 0
DWIDTH 7 0
BBX 6 9 1 0
BITMAP
FC
88
08
10
10
10
20
20
40
ENDCHAR
STARTCHAR eight
ENCODING 56
SWIDTH 495 0
DWIDTH 7 0
BBX 5 9 1 0
BITMAP
70
88
88
D0
70
98
88
88
F0
ENDCHAR
STARTCHAR nine
ENCODING 57
SWIDTH 495 0
DWIDTH 7 0
BBX 5 9 1 0
BITMAP
70
88
88
88
88
78
08
10
E0
ENDCHAR
STARTCHAR colon
ENCODING 58
SWIDTH 245 0
DWIDTH 3 0
BBX 2 7 1 0
BITMAP
80
C0
00
00
00
80
C0
ENDCHAR
STARTCHAR semicolon
ENCODING 59
SWIDTH 245 0
DWIDTH 3 0
BBX 2 9 1 -2
BITMAP
80
C0
00
00
00
80
C0
40
80
ENDCHAR
STARTCHAR less
ENCODING 60
SWIDTH 720 0
DWIDTH 10 0
BBX 8 8 1 0
BITMAP
01
03
0C
30
C0
30
0C
03
ENDCHAR
STARTCHAR equal
ENCODING 61
SWIDTH 720 0
DWIDTH 10 0
BBX 8 4 1 2
BITMAP
FF
00
00
FF
ENDCHAR
STARTCHAR greater
ENCODING 62
SWIDTH 720 0
DWIDTH 10 0
BBX 8 8 1 0
BITMAP
80
C0
30
0C
03
0C
30
C0
ENDCHAR
STARTCHAR question
ENCODING 63
SWIDTH 411 0
DWIDTH 6 0
BBX 5 9 0 0
BITMAP
78
C8
48
08
10
10
20
20
30
ENDCHAR
STARTCHAR at
ENCODING 64
SWIDTH 905 0
DWIDTH 13 0
BBX 11 12 1 -3
BITMAP
1F00
2080
4D40
9320
9120
B120
B120
9340
9DC0
4000
2080
1F00
ENDCHAR
STARTCHAR A
ENCODING 65
SWIDTH 718 0
DWIDTH 10 0
BBX 10 9 0 0
BITMAP
0800
0C00
1400
1600
1200
3F00
2100
4180
E3C0
ENDCHAR
STARTCHAR B
ENCODING 66
SWIDTH 618 0
DWIDTH 9 0
BBX 8 9 0 0
BITMAP
FE
23
23
22
3E
23
21
21
FE
ENDCHAR
STARTCHAR C
ENCODING 67
SWIDTH 670 0
DWIDTH 9 0
BBX 8 9 1 0
BITMAP
3F
43
81
80
80
80
C0
41
3E
ENDCHAR
STARTCHAR D
ENCODING 68
SWIDTH 730 0
DWIDTH 10 0
BBX 10 9 0 0
BITMAP
FE00
2180
2080
2080
20C0
2080
2080
2180
FE00
ENDCHAR
STARTCHAR E
ENCODING 69
SWIDTH 626 0
DWIDTH 9 0
BBX 8 9 0 0
BITMAP
FF
21
22
22
3E
20
21
21
FF
ENDCHAR
STARTCHAR F
ENCODING 70
SWIDTH 588 0
DWIDTH 8 0
BBX 8 9 0 0
BITMAP
FF
21
22
22
3E
20
20
20
F8
ENDCHAR
STARTCHAR G
ENCODING 71
SWIDTH 720 0
DWIDTH 10 0
BBX 9 9 1 0
BITMAP
3F00
4300
8100
8000
8780
8300
8300
4300
3E00
ENDCHAR
STARTCHAR H
ENCODING 72
SWIDTH 777 0
DWIDTH 11 0
BBX 10 9 1 0
BITMAP
F3C0
4100
4100
4100
7F00
4100
4100
4100
F3C0
ENDCHAR
STARTCHAR I
ENCODING 73
SWIDTH 357 0
DWIDTH 5 0
BBX 5 9 0 0
BITMAP
F8
20
20
20
20
20
20
20
F8
ENDCHAR
STARTCHAR J
ENCODING 74
SWIDTH 396 0
DWIDTH 6 0
BBX 5 9 0 0
BITMAP
78
10
10
10
10
10
10
90
E0
ENDCHAR
STARTCHAR K
ENCODING 75
SWIDTH 702 0
DWIDTH 10 0
BBX 10 9 0 0
BITMAP
FB80
2200
2400
2800
3800
2C00
2600
2300
FBC0
ENDCHAR
STARTCHAR L
ENCODING 76
SWIDTH 585 0
DWIDTH 8 0
BBX 7 9 1 0
BITMAP
F0
40
40
40
40
40
42
42
FE
ENDCHAR
STARTCHAR M
ENCODING 77
SWIDTH 895 0
DWIDTH 13 0
BBX 12 9 0 0
BITMAP
E070
3060
30E0
38E0
2960
2D60
2660
2660
F4F0
ENDCHAR
STARTCHAR N
ENCODING 78
SWIDTH 742 0
DWIDTH 10 0
BBX 10 9 0 0
BITMAP
E1C0
3080
3880
2C80
2480
2680
2380
2180
F080
ENDCHAR
STARTCHAR O
ENCODING 79
SWIDTH 738 0
DWIDTH 10 0
BBX 9 9 1 0
BITMAP
3C00
4300
8100
8180
8180
8180
C100
4300
3C00
ENDCHAR
STARTCHAR P
ENCODING 80
SWIDTH 569 0
DWIDTH 8 0
BBX 7 9 1 0
BITMAP
FC
46
46
44
78
40
40
40
F0
ENDCHAR
STARTCHAR Q
ENCODING 81
SWIDTH 737 0
DWIDTH 10 0
BBX 9 12 1 -3
BITMAP
3C00
4300
8100
8180
8180
8180
8100
4300
3C00
0C00
0600
0380
ENDCHAR
STARTCHAR R
ENCODING 82
SWIDTH 659 0
DWIDTH 9 0
BBX 8 9 1 0
BITMAP
FC
46
46
44
78
48
4C
46
F3
ENDCHAR
STARTCHAR S
ENCODING 83
SWIDTH 504 0
DWIDTH 7 0
BBX 7 9 0 0
BITMAP
3C
44
44
60
38
0C
86
44
7C
ENDCHAR
STARTCHAR T
ENCODING 84
SWIDTH 603 0
DWIDTH 8 0
BBX 8 9 0 0
BITMAP
FF
89
08
08
08
08
08
08
3C
ENDCHAR
STARTCHAR U
ENCODING 85
SWIDTH 752 0
DWIDTH 11 0
BBX 10 9 0 0
BITMAP
F1C0
2080
2080
2080
2080
2080
2080
3080
1F00
ENDCHAR
STARTCHAR V
ENCODING 86
SWIDTH 680 0
DWIDTH 10 0
BBX 10 9 0 0
BITMAP
F1C0
6100
2100
3100
1200
1200
1C00
0C00
0800
ENDCHAR
STARTCHAR W
ENCODING 87
SWIDTH 944 0
DWIDTH 13 0
BBX 13 9 0 0
BITMAP
E738
6210
2310
3320
33A0
14A0
1CC0
08C0
0840
ENDCHAR
STARTCHAR X
ENCODING 88
SWIDTH 664 0
DWIDTH 9 0
BBX 9 9 0 0
BITMAP
F380
3200
1200
1C00
0800
1400
2600
2300
E780
ENDCHAR
STARTCHAR Y
ENCODING 89
SWIDTH 647 0
DWIDTH 9 0
BBX 9 9 0 0
BITMAP
F380
2100
3200
1400
1C00
0800
0800
0800
1E00
ENDCHAR
STARTCHAR Z
ENCODING 90
SWIDTH 594 0
DWIDTH 8 0
BBX 8 9 0 0
BITMAP
7F
42
04
0C
18
10
21
61
FF
ENDCHAR
STARTCHAR bracketleft
ENCODING 91
SWIDTH 349 0
DWIDTH 5 0
BBX 3 14 1 -3
BITMAP
E0
80
80
80
80
80
80
80
80
80
80
80
80
E0
ENDCHAR
STARTCHAR backslash
ENCODING 92
SWIDTH 385 0
DWIDTH 5 0
BBX 5 11 0 -1
BITMAP
C0
40
40
40
20
20
20
10
10
10
08
ENDCHAR
STARTCHAR bracketright
ENCODING 93
SWIDTH 349 0
DWIDTH 5 0
BBX 3 14 1 -3
BITMAP
E0
20
20
20
20
20
20
20
20
20
20
20
20
E0
ENDCHAR
STARTCHAR asciicircum
ENCODING 94
SWIDTH 480 0
DWIDTH 7 0
BBX 6 6 0 4
BITMAP
10
10
28
48
44
C4
ENDCHAR
STARTCHAR underscore
ENCODING 95
SWIDTH 512 0
DWIDTH 7 0
BBX 7 1 0 -2
BITMAP
FE
ENDCHAR
STARTCHAR grave
ENCODING 96
SWIDTH 222 0
DWIDTH 3 0
BBX 3 2 0 8
BITMAP
C0
20
ENDCHAR
STARTCHAR a
ENCODING 97
SWIDTH 480 0
DWIDTH 7 0
BBX 6 7 1 0
BITMAP
F0
90
10
70
90
90
FC
ENDCHAR
STARTCHAR b
ENCODING 98
SWIDTH 522 0
DWIDTH 7 0
BBX 7 10 0 0
BITMAP
C0
40
40
5C
66
46
42
46
44
78
ENDCHAR
STARTCHAR c
ENCODING 99
SWIDTH 446 0
DWIDTH 6 0
BBX 6 7 0 0
BITMAP
38
4C
40
C0
40
44
38
ENDCHAR
STARTCHAR d
ENCODING 100
SWIDTH 539 0
DWIDTH 8 0
BBX 7 10 0 0
BITMAP
0C
04
04
3C
44
44
C4
44
44
7E
ENDCHAR
STARTCHAR e
ENCODING 101
SWIDTH 464 0
DWIDTH 7 0
BBX 6 7 0 0
BITMAP
38
44
7C
C0
40
64
38
ENDCHAR
STARTCHAR f
ENCODING 102
SWIDTH 307 0
DWIDTH 4 0
BBX 5 10 0 0
BITMAP
38
20
60
F0
60
60
60
60
60
F0
ENDCHAR
STARTCHAR g
ENCODING 103
SWIDTH 484 0
DWIDTH 7 0
BBX 7 10 0 -3
BITMAP
3E
4C
44
4C
78
40
7C
42
84
78
ENDCHAR
STARTCHAR h
ENCODING 104
SWIDTH 577 0
DWIDTH 8 0
BBX 8 10 0 0
BITMAP
E0
60
60
7C
66
62
62
62
62
F7
ENDCHAR
STARTCHAR i
ENCODING 105
SWIDTH 285 0
DWIDTH 4 0
BBX 4 9 0 0
BITMAP
60
20
E0
60
60
60
60
60
F0
ENDCHAR
STARTCHAR j
ENCODING 106
SWIDTH 263 0
DWIDTH 4 0
BBX 4 12 -1 -3
BITMAP
30
20
70
30
30
30
30
30
30
30
A0
E0
ENDCHAR
STARTCHAR k
ENCODING 107
SWIDTH 542 0
DWIDTH 8 0
BBX 8 10 0 0
BITMAP
E0
60
60
6E
68
70
70
68
6C
FF
ENDCHAR
STARTCHAR l
ENCODING 108
SWIDTH 283 0
DWIDTH 4 0
BBX 4 10 0 0
BITMAP
E0
60
60
60
60
60
60
60
60
F0
ENDCHAR
STARTCHAR m
ENCODING 109
SWIDTH 852 0
DWIDTH 12 0
BBX 12 7 0 0
BITMAP
FDC0
6660
6660
6660
6660
6660
FFF0
ENDCHAR
STARTCHAR n
ENCODING 110
SWIDTH 576 0
DWIDTH 8 0
BBX 8 7 0 0
BITMAP
FC
66
62
62
62
62
F7
ENDCHAR
STARTCHAR o
ENCODING 111
SWIDTH 514 0
DWIDTH 7 0
BBX 7 7 0 0
BITMAP
38
44
46
C6
46
44
38
ENDCHAR
STARTCHAR p
ENCODING 112
SWIDTH 537 0
DWIDTH 8 0
BBX 7 10 0 -3
BITMAP
DC
66
42
42
42
44
7C
40
40
F0
ENDCHAR
STARTCHAR q
ENCODING 113
SWIDTH 521 0
DWIDTH 7 0
BBX 7 10 0 -3
BITMAP
3C
44
44
C4
44
44
7C
04
04
0E
ENDCHAR
STARTCHAR r
ENCODING 114
SWIDTH 380 0
DWIDTH 5 0
BBX 5 7 0 0
BITMAP
F8
68
60
60
60
60
F0
ENDCHAR
STARTCHAR s
ENCODING 115
SWIDTH 395 0
DWIDTH 6 0
BBX 4 7 1 0
BITMAP
F0
90
80
60
B0
90
F0
ENDCHAR
STARTCHAR t
ENCODING 116
SWIDTH 315 0
DWIDTH 4 0
BBX 3 9 1 0
BITMAP
40
80
E0
80
80
80
80
80
60
ENDCHAR
STARTCHAR u
ENCODING 117
SWIDTH 570 0
DWIDTH 8 0
BBX 8 7 0 0
BITMAP
CE
46
46
46
46
66
3F
ENDCHAR
STARTCHAR v
ENCODING 118
SWIDTH 481 0
DWIDTH 7 0
BBX 7 7 0 0
BITMAP
E6
44
64
28
28
30
10
ENDCHAR
STARTCHAR w
ENCODING 119
SWIDTH 749 0
DWIDTH 10 0
BBX 11 7 0 0
BITMAP
EEE0
4440
6480
2A80
2A80
3300
1100
ENDCHAR
STARTCHAR x
ENCODING 120
SWIDTH 479 0
DWIDTH 7 0
BBX 7 7 0 0
BITMAP
EE
28
28
10
38
48
CE
ENDCHAR
STARTCHAR y
ENCODING 121
SWIDTH 483 0
DWIDTH 7 0
BBX 7 10 0 -3
BITMAP
E6
44
64
28
38
10
10
10
20
C0
ENDCHAR
STARTCHAR z
ENCODING 122
SWIDTH 458 0
DWIDTH 6 0
BBX 6 7 0 0
BITMAP
7C
88
18
30
20
64
FC
ENDCHAR
STARTCHAR braceleft
ENCODING 123
SWIDTH 327 0
DWIDTH 5 0
BBX 4 14 0 -3
BITMAP
30
40
40
40
20
20
40
C0
20
20
60
40
40
30
ENDCHAR
STARTCHAR bar
ENCODING 124
SWIDTH 267 0
DWIDTH 4 0
BBX 1 13 1 -3
BITMAP
80
80
80
80
80
80
80
80
80
80
80
80
80
ENDCHAR
STARTCHAR braceright
ENCODING 125
SWIDTH 327 0
DWIDTH 5 0
BBX 3 14 1 -3
BITMAP
80
40
40
40
40
40
40
20
40
40
40
40
40
C0
ENDCHAR
STARTCHAR asciitilde
ENCODING 126
SWIDTH 557 0
DWIDTH 8 0
BBX 7 2 0 3
BITMAP
72
8E
ENDCHAR
STARTCHAR uni00A0
ENCODING 160
SWIDTH 235 0
DWIDTH 3 0
BBX 1 1 0 0
BITMAP
00
ENDCHAR
STARTCHAR exclamdown
ENCODING 161
SWIDTH 282 0
DWIDTH 4 0
BBX 2 10 1 -3
BITMAP
C0
C0
00
80
80
80
C0
C0
C0
C0
ENDCHAR
STARTCHAR cent
ENCODING 162
SWIDTH 495 0
DWIDTH 7 0
BBX 5 10 1 -1
BITMAP
20
70
A8
A0
A0
A0
E8
70
20
20
ENDCHAR
STARTCHAR sterling
ENCODING 163
SWIDTH 495 0
DWIDTH 7 0
BBX 7 9 0 0
BITMAP
1C
24
20
20
78
20
20
62
FC
ENDCHAR
STARTCHAR currency
ENCODING 164
SWIDTH 617 0
DWIDTH 9 0
BBX 7 8 1 0
BITMAP
82
BC
44
84
84
44
BE
82
ENDCHAR
STARTCHAR yen
ENCODING 165
SWIDTH 495 0
DWIDTH 7 0
BBX 7 9 0 0
BITMAP
E6
64
28
38
7C
10
7C
10
38
ENDCHAR
STARTCHAR brokenbar
ENCODING 166
SWIDTH 267 0
DWIDTH 4 0
BBX 1 10 1 0
BITMAP
80
80
80
80
00
00
80
80
80
80
ENDCHAR
STARTCHAR section
ENCODING 167
SWIDTH 491 0
DWIDTH 7 0
BBX 5 12 1 -3
BITMAP
70
88
40
60
B0
98
C8
68
30
10
90
F0
ENDCHAR
STARTCHAR dieresis
ENCODING 168
SWIDTH 392 0
DWIDTH 5 0
BBX 5 2 0 8
BITMAP
48
D8
ENDCHAR
STARTCHAR copyright
ENCODING 169
SWIDTH 781 0
DWIDTH 11 0
BBX 9 10 1 0
BITMAP
3E00
4100
9E80
A280
A080
A080
A280
9C80
4100
3E00
ENDCHAR
STARTCHAR ordfeminine
ENCODING 170
SWIDTH 410 0
DWIDTH 6 0
BBX 6 5 0 4
BITMAP
70
48
38
C8
7C
ENDCHAR
STARTCHAR guillemotleft
ENCODING 171
SWIDTH 517 0
DWIDTH 7 0
BBX 7 6 0 0
BITMAP
36
48
D8
48
24
12
ENDCHAR
STARTCHAR logicalnot
ENCODING 172
SWIDTH 720 0
DWIDTH 10 0
BBX 8 5 1 1
BITMAP
FF
01
01
01
01
ENDCHAR
STARTCHAR uni00AD
ENCODING 173
SWIDTH 315 0
DWIDTH 4 0
BBX 3 1 1 3
BITMAP
E0
ENDCHAR
STARTCHAR registered
ENCODING 174
SWIDTH 413 0
DWIDTH 6 0
BBX 5 6 0 5
BITMAP
30
68
B8
A8
78
30
ENDCHAR
STARTCHAR macron
ENCODING 175
SWIDTH 350 0
DWIDTH 5 0
BBX 4 1 0 8
BITMAP
F0
ENDCHAR
STARTCHAR degree
ENCODING 176
SWIDTH 409 0
DWIDTH 6 0
BBX 4 5 1 6
BITMAP
60
90
90
90
60
ENDCHAR
STARTCHAR plusminus
ENCODING 177
SWIDTH 720 0
DWIDTH 10 0
BBX 8 9 1 0
BITMAP
08
08
08
FF
08
08
08
00
FF
ENDCHAR
STARTCHAR twosuperior
ENCODING 178
SWIDTH 373 0
DWIDTH 5 0
BBX 5 6 0 4
BITMAP
70
98
10
30
48
F8
ENDCHAR
STARTCHAR threesuperior
ENCODING 179
SWIDTH 374 0
DWIDTH 5 0
BBX 5 6 0 4
BITMAP
70
90
30
08
08
F0
ENDCHAR
STARTCHAR acute
ENCODING 180
SWIDTH 222 0
DWIDTH 3 0
BBX 3 2 0 8
BITMAP
60
C0
ENDCHAR
STARTCHAR uni00B5
ENCODING 181
SWIDTH 556 0
DWIDTH 8 0
BBX 7 10 1 -3
BITMAP
88
88
88
88
88
9A
EC
80
80
80
ENDCHAR
STARTCHAR paragraph
ENCODING 182
SWIDTH 605 0
DWIDTH 8 0
BBX 7 12 1 -3
BITMAP
7E
98
98
98
98
78
18
18
18
18
18
7E
ENDCHAR
STARTCHAR periodcentered
ENCODING 183
SWIDTH 282 0
DWIDTH 4 0
BBX 2 2 1 3
BITMAP
C0
C0
ENDCHAR
STARTCHAR cedilla
ENCODING 184
SWIDTH 247 0
DWIDTH 3 0
BBX 3 4 0 -3
BITMAP
40
60
20
E0
ENDCHAR
STARTCHAR onesuperior
ENCODING 185
SWIDTH 343 0
DWIDTH 5 0
BBX 3 6 1 4
BITMAP
C0
40
40
40
40
E0
ENDCHAR
STARTCHAR ordmasculine
ENCODING 186
SWIDTH 432 0
DWIDTH 6 0
BBX 6 5 0 4
BITMAP
78
48
C4
48
78
ENDCHAR
STARTCHAR guillemotright
ENCODING 187
SWIDTH 517 0
DWIDTH 7 0
BBX 6 6 1 0
BITMAP
90
48
24
48
90
A0
ENDCHAR
STARTCHAR onequarter
ENCODING 188
SWIDTH 861 0
DWIDTH 12 0
BBX 11 10 1 0
BITMAP
0100
C100
4200
4200
4440
48C0
E940
1240
13E0
2040
ENDCHAR
STARTCHAR onehalf
ENCODING 189
SWIDTH 889 0
DWIDTH 12 0
BBX 11 10 1 0
BITMAP
C100
4100
4200
4400
45C0
4A20
E820
1040
10A0
21E0
ENDCHAR
STARTCHAR threequarters
ENCODING 190
SWIDTH 861 0
DWIDTH 12 0
BBX 12 10 0 0
BITMAP
0080
7080
9100
3100
1A20
0C60
F4A0
0920
09F0
1020
ENDCHAR
STARTCHAR questiondown
ENCODING 191
SWIDTH 411 0
DWIDTH 6 0
BBX 5 10 0 -3
BITMAP
30
20
00
20
20
40
40
C8
48
78
ENDCHAR
STARTCHAR Agrave
ENCODING 192
SWIDTH 718 0
DWIDTH 10 0
BBX 10 12 0 0
BITMAP
1800
0400
0000
0800
0C00
1400
1600
1200
3F00
2100
4180
E3C0
ENDCHAR
STARTCHAR Aacute
ENCODING 193
SWIDTH 718 0
DWIDTH 10 0
BBX 10 12 0 0
BITMAP
0400
0800
0000
0800
0C00
1400
1600
1200
3F00
2100
4180
E3C0
ENDCHAR
STARTCHAR Acircumflex
ENCODING 194
SWIDTH 718 0
DWIDTH 10 0
BBX 10 12 0 0
BITMAP
0C00
1200
0000
0800
0C00
1400
1600
1200
3F00
2100
4180
E3C0
ENDCHAR
STARTCHAR Atilde
ENCODING 195
SWIDTH 718 0
DWIDTH 10 0
BBX 10 12 0 0
BITMAP
1A00
1600
0000
0800
0C00
1400
1600
1200
3F00
2100
4180
E3C0
ENDCHAR
STARTCHAR Adieresis
ENCODING 196
SWIDTH 718 0
DWIDTH 10 0
BBX 10 12 0 0
BITMAP
1200
1200
0000
0800
0C00
1400
1600
1200
3F00
2100
4180
E3C0
ENDCHAR
STARTCHAR Aring
ENCODING 197
SWIDTH 718 0
DWIDTH 10 0
BBX 10 13 0 0
BITMAP
0C00
1200
0C00
0000
0800
0C00
1400
1600
1200
3F00
2100
4180
E3C0
ENDCHAR
STARTCHAR AE
ENCODING 198
SWIDTH 894 0
DWIDTH 13 0
BBX 12 9 0 0
BITMAP
0FF0
0A10
0A00
1220
1FE0
2220
2210
4210
EFF0
ENDCHAR
STARTCHAR Ccedilla
ENCODING 199
SWIDTH 670 0
DWIDTH 9 0
BBX 8 12 1 -3
BITMAP
3F
43
81
80
80
80
C0
41
3E
18
08
18
ENDCHAR
STARTCHAR Egrave
ENCODING 200
SWIDTH 626 0
DWIDTH 9 0
BBX 8 12 0 0
BITMAP
18
0C
00
FF
21
22
22
3E
20
21
21
FF
ENDCHAR
STARTCHAR Eacute
ENCODING 201
SWIDTH 626 0
DWIDTH 9 0
BBX 8 12 0 0
BITMAP
0C
10
00
FF
21
22
22
3E
20
21
21
FF
ENDCHAR
STARTCHAR Ecircumflex
ENCODING 202
SWIDTH 626 0
DWIDTH 9 0
BBX 8 12 0 0
BITMAP
08
36
00
FF
21
22
22
3E
20
21
21
FF
ENDCHAR
STARTCHAR Edieresis
ENCODING 203
SWIDTH 626 0
DWIDTH 9 0
BBX 8 12 0 0
BITMAP
22
36
00
FF
21
22
22
3E
20
21
21
FF
ENDCHAR
STARTCHAR Igrave
ENCODING 204
SWIDTH 357 0
DWIDTH 5 0
BBX 5 12 0 0
BITMAP
60
10
00
F8
20
20
20
20
20
20
20
F8
ENDCHAR
STARTCHAR Iacute
ENCODING 205
SWIDTH 357 0
DWIDTH 5 0
BBX 5 12 0 0
BITMAP
30
40
00
F8
20
20
20
20
20
20
20
F8
ENDCHAR
STARTCHAR Icircumflex
ENCODING 206
SWIDTH 357 0
DWIDTH 5 0
BBX 5 12 0 0
BITMAP
20
D8
00
F8
20
20
20
20
20
20
20
F8
ENDCHAR
STARTCHAR Idieresis
ENCODING 207
SWIDTH 357 0
DWIDTH 5 0
BBX 5 12 0 0
BITMAP
88
D8
00
F8
20
20
20
20
20
20
20
F8
ENDCHAR
STARTCHAR Eth
ENCODING 208
SWIDTH 737 0
DWIDTH 10 0
BBX 9 9 1 0
BITMAP
FC00
4300
4100
4180
F980
4180
4100
4300
FC00
ENDCHAR
STARTCHAR Ntilde
ENCODING 209
SWIDTH 742 0
DWIDTH 10 0
BBX 10 12 0 0
BITMAP
0D00
1600
0000
E1C0
3080
3880
2C80
2480
2680
2380
2180
F080
ENDCHAR
STARTCHAR Ograve
ENCODING 210
SWIDTH 738 0
DWIDTH 10 0
BBX 9 12 1 0
BITMAP
1000
0C00
0000
3C00
4300
8100
8180
8180
8180
C100
4300
3C00
ENDCHAR
STARTCHAR Oacute
ENCODING 211
SWIDTH 738 0
DWIDTH 10 0
BBX 9 12 1 0
BITMAP
0C00
1000
0000
3C00
4300
8100
8180
8180
8180
C100
4300
3C00
ENDCHAR
STARTCHAR Ocircumflex
ENCODING 212
SWIDTH 738 0
DWIDTH 10 0
BBX 9 12 1 0
BITMAP
1800
2400
0000
3C00
4300
8100
8180
8180
8180
C100
4300
3C00
ENDCHAR
STARTCHAR Otilde
ENCODING 213
SWIDTH 738 0
DWIDTH 10 0
BBX 9 12 1 0
BITMAP
3200
2C00
0000
3C00
4300
8100
8180
8180
8180
C100
4300
3C00
ENDCHAR
STARTCHAR Odieresis
ENCODING 214
SWIDTH 738 0
DWIDTH 10 0
BBX 9 12 1 0
BITMAP
2400
2600
0000
3C00
4300
8100
8180
8180
8180
C100
4300
3C00
ENDCHAR
STARTCHAR multiply
ENCODING 215
SWIDTH 720 0
DWIDTH 10 0
BBX 8 8 1 0
BITMAP
81
C3
66
3C
18
3C
66
C3
ENDCHAR
STARTCHAR Oslash
ENCODING 216
SWIDTH 737 0
DWIDTH 10 0
BBX 9 9 1 0
BITMAP
3D00
4300
8500
8980
9180
9180
A100
4300
BC00
ENDCHAR
STARTCHAR Ugrave
ENCODING 217
SWIDTH 752 0
DWIDTH 11 0
BBX 10 12 0 0
BITMAP
0C00
0200
0000
F1C0
2080
2080
2080
2080
2080
2080
3080
1F00
ENDCHAR
STARTCHAR Uacute
ENCODING 218
SWIDTH 752 0
DWIDTH 11 0
BBX 10 12 0 0
BITMAP
0600
0C00
0000
F1C0
2080
2080
2080
2080
2080
2080
3080
1F00
ENDCHAR
STARTCHAR Ucircumflex
ENCODING 219
SWIDTH 752 0
DWIDTH 11 0
BBX 10 12 0 0
BITMAP
0400
0B00
0000
F1C0
2080
2080
2080
2080
2080
2080
3080
1F00
ENDCHAR
STARTCHAR Udieresis
ENCODING 220
SWIDTH 752 0
DWIDTH 11 0
BBX 10 12 0 0
BITMAP
0900
1B00
0000
F1C0
2080
2080
2080
2080
2080
2080
3080
1F00
ENDCHAR
STARTCHAR Yacute
ENCODING 221
SWIDTH 647 0
DWIDTH 9 0
BBX 9 12 0 0
BITMAP
0400
1800
0000
F380
2100
3200
1400
1C00
0800
0800
0800
1E00
ENDCHAR
STARTCHAR Thorn
ENCODING 222
SWIDTH 572 0
DWIDTH 8 0
BBX 8 9 0 0
BITMAP
F8
3C
22
23
23
22
3C
20
F8
ENDCHAR
STARTCHAR germandbls
ENCODING 223
SWIDTH 563 0
DWIDTH 8 0
BBX 7 10 0 0
BITMAP
3C
26
64
E8
6C
62
62
62
72
EC
ENDCHAR
STARTCHAR agrave
ENCODING 224
SWIDTH 480 0
DWIDTH 7 0
BBX 6 10 1 0
BITMAP
40
20
00
F0
90
10
70
90
90
FC
ENDCHAR
STARTCHAR aacute
ENCODING 225
SWIDTH 480 0
DWIDTH 7 0
BBX 6 10 1 0
BITMAP
30
60
00
F0
90
10
70
90
90
FC
ENDCHAR
STARTCHAR acircumflex
ENCODING 226
SWIDTH 480 0
DWIDTH 7 0
BBX 6 10 1 0
BITMAP
60
90
00
F0
90
10
70
90
90
FC
ENDCHAR
STARTCHAR atilde
ENCODING 227
SWIDTH 480 0
DWIDTH 7 0
BBX 6 10 1 0
BITMAP
48
B0
00
F0
90
10
70
90
90
FC
ENDCHAR
STARTCHAR adieresis
ENCODING 228
SWIDTH 480 0
DWIDTH 7 0
BBX 6 10 1 0
BITMAP
90
98
00
F0
90
10
70
90
90
FC
ENDCHAR
STARTCHAR aring
ENCODING 229
SWIDTH 480 0
DWIDTH 7 0
BBX 6 10 1 0
BITMAP
60
50
60
F0
90
10
70
90
90
FC
ENDCHAR
STARTCHAR ae
ENCODING 230
SWIDTH 709 0
DWIDTH 10 0
BBX 9 7 1 0
BITMAP
FE00
9100
3F00
D000
9080
9900
EE00
ENDCHAR
STARTCHAR ccedilla
ENCODING 231
SWIDTH 446 0
DWIDTH 6 0
BBX 6 10 0 -3
BITMAP
38
4C
40
C0
40
44
38
10
08
30
ENDCHAR
STARTCHAR egrave
ENCODING 232
SWIDTH 464 0
DWIDTH 7 0
BBX 6 10 0 0
BITMAP
20
10
00
38
44
7C
C0
40
64
38
ENDCHAR
STARTCHAR eacute
ENCODING 233
SWIDTH 464 0
DWIDTH 7 0
BBX 6 10 0 0
BITMAP
18
10
00
38
44
7C
C0
40
64
38
ENDCHAR
STARTCHAR ecircumflex
ENCODING 234
SWIDTH 464 0
DWIDTH 7 0
BBX 6 10 0 0
BITMAP
10
68
00
38
44
7C
C0
40
64
38
ENDCHAR
STARTCHAR edieresis
ENCODING 235
SWIDTH 464 0
DWIDTH 7 0
BBX 6 10 0 0
BITMAP
4C
6C
00
38
44
7C
C0
40
64
38
ENDCHAR
STARTCHAR igrave
ENCODING 236
SWIDTH 285 0
DWIDTH 4 0
BBX 4 10 0 0
BITMAP
C0
40
20
E0
60
60
60
60
60
F0
ENDCHAR
STARTCHAR iacute
ENCODING 237
SWIDTH 285 0
DWIDTH 4 0
BBX 4 10 0 0
BITMAP
20
40
00
E0
60
60
60
60
60
F0
ENDCHAR
STARTCHAR icircumflex
ENCODING 238
SWIDTH 285 0
DWIDTH 4 0
BBX 4 10 0 0
BITMAP
60
A0
10
E0
60
60
60
60
60
F0
ENDCHAR
STARTCHAR idieresis
ENCODING 239
SWIDTH 285 0
DWIDTH 4 0
BBX 4 9 0 0
BITMAP
B0
90
E0
60
60
60
60
60
F0
ENDCHAR
STARTCHAR eth
ENCODING 240
SWIDTH 532 0
DWIDTH 7 0
BBX 7 10 0 0
BITMAP
7A
1C
04
3E
46
46
C6
46
44
38
ENDCHAR
STARTCHAR ntilde
ENCODING 241
SWIDTH 576 0
DWIDTH 8 0
BBX 8 10 0 0
BITMAP
12
2C
00
FC
66
62
62
62
62
F7
ENDCHAR
STARTCHAR ograve
ENCODING 242
SWIDTH 514 0
DWIDTH 7 0
BBX 7 10 0 0
BITMAP
30
10
00
38
44
46
C6
46
44
38
ENDCHAR
STARTCHAR oacute
ENCODING 243
SWIDTH 514 0
DWIDTH 7 0
BBX 7 10 0 0
BITMAP
08
10
00
38
44
46
C6
46
44
38
ENDCHAR
STARTCHAR ocircumflex
ENCODING 244
SWIDTH 514 0
DWIDTH 7 0
BBX 7 10 0 0
BITMAP
10
2C
00
38
44
46
C6
46
44
38
ENDCHAR
STARTCHAR otilde
ENCODING 245
SWIDTH 514 0
DWIDTH 7 0
BBX 7 10 0 0
BITMAP
34
48
00
38
44
46
C6
46
44
38
ENDCHAR
STARTCHAR odieresis
ENCODING 246
SWIDTH 514 0
DWIDTH 7 0
BBX 7 10 0 0
BITMAP
64
6C
00
38
44
46
C6
46
44
38
ENDCHAR
STARTCHAR divide
ENCODING 247
SWIDTH 720 0
DWIDTH 10 0
BBX 8 8 1 0
BITMAP
08
18
00
00
FF
00
08
18
ENDCHAR
STARTCHAR oslash
ENCODING 248
SWIDTH 514 0
DWIDTH 7 0
BBX 7 7 0 0
BITMAP
3C
44
4E
D6
66
44
78
ENDCHAR
STARTCHAR ugrave
ENCODING 249
SWIDTH 570 0
DWIDTH 8 0
BBX 8 10 0 0
BITMAP
30
18
00
CE
46
46
46
46
66
3F
ENDCHAR
STARTCHAR uacute
ENCODING 250
SWIDTH 570 0
DWIDTH 8 0
BBX 8 10 0 0
BITMAP
08
10
00
CE
46
46
46
46
66
3F
ENDCHAR
STARTCHAR ucircumflex
ENCODING 251
SWIDTH 570 0
DWIDTH 8 0
BBX 8 10 0 0
BITMAP
18
24
00
CE
46
46
46
46
66
3F
ENDCHAR
STARTCHAR udieresis
ENCODING 252
SWIDTH 570 0
DWIDTH 8 0
BBX 8 10 0 0
BITMAP
24
24
00
CE
46
46
46
46
66
3F
ENDCHAR
STARTCHAR yacute
ENCODING 253
SWIDTH 483 0
DWIDTH 7 0
BBX 7 13 0 -3
BITMAP
08
10
00
E6
44
64
28
38
10
10
10
20
C0
ENDCHAR
STARTCHAR thorn
ENCODING 254
SWIDTH 524 0
DWIDTH 7 0
BBX 7 13 0 -3
BITMAP
C0
40
40
5C
66
46
42
42
44
78
40
40
F0
ENDCHAR
STARTCHAR ydieresis
ENCODING 255
SWIDTH 483 0
DWIDTH 7 0
BBX 7 13 0 -3
BITMAP
64
6C
00
E6
44
64
28
38
10
10
10
20
C0
ENDCHAR
STARTCHAR Amacron
ENCODING 256
SWIDTH 718 0
DWIDTH 10 0
BBX 10 11 0 0
BITMAP
1E00
0000
0800
0C00
1400
1600
1200
3F00
2100
4180
E3C0
ENDCHAR
STARTCHAR amacron
ENCODING 257
SWIDTH 480 0
DWIDTH 7 0
BBX 6 9 1 0
BITMAP
F0
00
F0
90
10
70
90
90
FC
ENDCHAR
STARTCHAR Abreve
ENCODING 258
SWIDTH 718 0
DWIDTH 10 0
BBX 10 12 0 0
BITMAP
1200
1C00
0000
0800
0C00
1400
1600
1200
3F00
2100
4180
E3C0
ENDCHAR
STARTCHAR abreve
ENCODING 259
SWIDTH 480 0
DWIDTH 7 0
BBX 6 10 1 0
BITMAP
90
70
00
F0
90
10
70
90
90
FC
ENDCHAR
STARTCHAR Aogonek
ENCODING 260
SWIDTH 719 0
DWIDTH 10 0
BBX 10 12 0 -3
BITMAP
0800
0C00
1400
1600
1200
3F00
2100
4180
E3C0
0400
0400
0700
ENDCHAR
STARTCHAR aogonek
ENCODING 261
SWIDTH 480 0
DWIDTH 7 0
BBX 6 10 1 -3
BITMAP
F0
90
10
70
90
90
FC
10
10
1C
ENDCHAR
STARTCHAR Cacute
ENCODING 262
SWIDTH 670 0
DWIDTH 9 0
BBX 8 12 1 0
BITMAP
0C
10
00
3F
43
81
80
80
80
C0
41
3E
ENDCHAR
STARTCHAR cacute
ENCODING 263
SWIDTH 446 0
DWIDTH 6 0
BBX 6 10 0 0
BITMAP
18
10
00
38
4C
40
C0
40
44
38
ENDCHAR
STARTCHAR Ccircumflex
ENCODING 264
SWIDTH 670 0
DWIDTH 9 0
BBX 8 12 1 0
BITMAP
18
34
00
3F
43
81
80
80
80
C0
41
3E
ENDCHAR
STARTCHAR ccircumflex
ENCODING 265
SWIDTH 446 0
DWIDTH 6 0
BBX 6 10 0 0
BITMAP
10
68
00
38
4C
40
C0
40
44
38
ENDCHAR
STARTCHAR Cdotaccent
ENCODING 266
SWIDTH 670 0
DWIDTH 9 0
BBX 8 12 1 0
BITMAP
08
18
00
3F
43
81
80
80
80
C0
41
3E
ENDCHAR
STARTCHAR cdotaccent
ENCODING 267
SWIDTH 446 0
DWIDTH 6 0
BBX 6 10 0 0
BITMAP
10
10
00
38
4C
40
C0
40
44
38
ENDCHAR
STARTCHAR Ccaron
ENCODING 268
SWIDTH 670 0
DWIDTH 9 0
BBX 8 12 1 0
BITMAP
34
18
00
3F
43
81
80
80
80
C0
41
3E
ENDCHAR
STARTCHAR ccaron
ENCODING 269
SWIDTH 446 0
DWIDTH 6 0
BBX 6 10 0 0
BITMAP
68
10
00
38
4C
40
C0
40
44
38
ENDCHAR
STARTCHAR Dcaron
ENCODING 270
SWIDTH 730 0
DWIDTH 10 0
BBX 10 12 0 0
BITMAP
1200
0C00
0000
FE00
2180
2080
2080
20C0
2080
2080
2180
FE00
ENDCHAR
STARTCHAR dcaron
ENCODING 271
SWIDTH 626 0
DWIDTH 9 0
BBX 8 10 0 0
BITMAP
0D
05
05
3C
44
44
C4
44
44
7E
ENDCHAR
STARTCHAR Dcroat
ENCODING 272
SWIDTH 733 0
DWIDTH 10 0
BBX 10 9 0 0
BITMAP
FE00
2180
2080
2080
FCC0
2080
2080
2180
FE00
ENDCHAR
STARTCHAR dcroat
ENCODING 273
SWIDTH 540 0
DWIDTH 8 0
BBX 7 10 0 0
BITMAP
0C
1E
04
3C
44
44
C4
44
44
7E
ENDCHAR
STARTCHAR Emacron
ENCODING 274
SWIDTH 626 0
DWIDTH 9 0
BBX 8 11 0 0
BITMAP
3E
00
FF
21
22
22
3E
20
21
21
FF
ENDCHAR
STARTCHAR emacron
ENCODING 275
SWIDTH 464 0
DWIDTH 7 0
BBX 6 9 0 0
BITMAP
78
00
38
44
7C
C0
40
64
38
ENDCHAR
STARTCHAR Ebreve
ENCODING 276
SWIDTH 626 0
DWIDTH 9 0
BBX 8 12 0 0
BITMAP
22
1C
00
FF
21
22
22
3E
20
21
21
FF
ENDCHAR
STARTCHAR ebreve
ENCODING 277
SWIDTH 464 0
DWIDTH 7 0
BBX 6 10 0 0
BITMAP
44
38
00
38
44
7C
C0
40
64
38
ENDCHAR
STARTCHAR Edotaccent
ENCODING 278
SWIDTH 626 0
DWIDTH 9 0
BBX 8 12 0 0
BITMAP
08
08
00
FF
21
22
22
3E
20
21
21
FF
ENDCHAR
STARTCHAR edotaccent
ENCODING 279
SWIDTH 464 0
DWIDTH 7 0
BBX 6 10 0 0
BITMAP
10
10
00
38
44
7C
C0
40
64
38
ENDCHAR
STARTCHAR Eogonek
ENCODING 280
SWIDTH 625 0
DWIDTH 9 0
BBX 8 12 0 -3
BITMAP
FF
21
22
3E
22
20
21
21
FF
02
04
07
ENDCHAR
STARTCHAR eogonek
ENCODING 281
SWIDTH 464 0
DWIDTH 7 0
BBX 6 10 0 -3
BITMAP
38
44
7C
C0
40
64
38
10
20
18
ENDCHAR
STARTCHAR Ecaron
ENCODING 282
SWIDTH 626 0
DWIDTH 9 0
BBX 8 12 0 0
BITMAP
36
08
00
FF
21
22
22
3E
20
21
21
FF
ENDCHAR
STARTCHAR ecaron
ENCODING 283
SWIDTH 464 0
DWIDTH 7 0
BBX 6 10 0 0
BITMAP
68
10
00
38
44
7C
C0
40
64
38
ENDCHAR
STARTCHAR Gcircumflex
ENCODING 284
SWIDTH 720 0
DWIDTH 10 0
BBX 9 12 1 0
BITMAP
1800
3400
0000
3F00
4300
8100
8000
8780
8300
8300
4300
3E00
ENDCHAR
STARTCHAR gcircumflex
ENCODING 285
SWIDTH 484 0
DWIDTH 7 0
BBX 7 13 0 -3
BITMAP
10
68
00
3E
4C
44
4C
78
40
7C
42
84
78
ENDCHAR
STARTCHAR Gbreve
ENCODING 286
SWIDTH 720 0
DWIDTH 10 0
BBX 9 12 1 0
BITMAP
2400
1C00
0000
3F00
4300
8100
8000
8780
8300
8300
4300
3E00
ENDCHAR
STARTCHAR gbreve
ENCODING 287
SWIDTH 484 0
DWIDTH 7 0
BBX 7 13 0 -3
BITMAP
44
38
00
3E
4C
44
4C
78
40
7C
42
84
78
ENDCHAR
STARTCHAR Gdotaccent
ENCODING 288
SWIDTH 720 0
DWIDTH 10 0
BBX 9 12 1 0
BITMAP
0800
1800
0000
3F00
4300
8100
8000
8780
8300
8300
4300
3E00
ENDCHAR
STARTCHAR gdotaccent
ENCODING 289
SWIDTH 484 0
DWIDTH 7 0
BBX 7 13 0 -3
BITMAP
10
10
00
3E
4C
44
4C
78
40
7C
42
84
78
ENDCHAR
STARTCHAR Gcommaaccent
ENCODING 290
SWIDTH 720 0
DWIDTH 10 0
BBX 9 13 1 -4
BITMAP
3F00
4300
8100
8000
8780
8300
8300
4300
3E00
1800
1800
0800
1000
ENDCHAR
STARTCHAR gcommaaccent
ENCODING 291
SWIDTH 484 0
DWIDTH 7 0
BBX 7 14 0 -3
BITMAP
30
30
10
00
3E
4C
44
4C
78
40
7C
42
84
78
ENDCHAR
STARTCHAR Hcircumflex
ENCODING 292
SWIDTH 777 0
DWIDTH 11 0
BBX 10 12 0 0
BITMAP
0400
1B00
0000
FBC0
2080
2080
2080
3F80
2080
2080
2080
FBC0
ENDCHAR
STARTCHAR hcircumflex
ENCODING 293
SWIDTH 577 0
DWIDTH 8 0
BBX 8 12 0 0
BITMAP
18
24
E0
60
60
7C
66
62
62
62
62
F7
ENDCHAR
STARTCHAR Hbar
ENCODING 294
SWIDTH 788 0
DWIDTH 11 0
BBX 9 9 1 0
BITMAP
F780
4100
FF80
4100
7F00
4100
4100
4100
F780
ENDCHAR
STARTCHAR hbar
ENCODING 295
SWIDTH 579 0
DWIDTH 8 0
BBX 8 10 0 0
BITMAP
E0
60
F8
7C
66
62
62
62
62
F7
ENDCHAR
STARTCHAR Itilde
ENCODING 296
SWIDTH 357 0
DWIDTH 5 0
BBX 5 12 0 0
BITMAP
68
B0
00
F8
20
20
20
20
20
20
20
F8
ENDCHAR
STARTCHAR itilde
ENCODING 297
SWIDTH 285 0
DWIDTH 4 0
BBX 4 9 0 0
BITMAP
F0
00
E0
60
60
60
60
60
F0
ENDCHAR
STARTCHAR Imacron
ENCODING 298
SWIDTH 357 0
DWIDTH 5 0
BBX 5 11 0 0
BITMAP
F8
00
F8
20
20
20
20
20
20
20
F8
ENDCHAR
STARTCHAR imacron
ENCODING 299
SWIDTH 285 0
DWIDTH 4 0
BBX 4 9 0 0
BITMAP
F0
00
E0
60
60
60
60
60
F0
ENDCHAR
STARTCHAR Ibreve
ENCODING 300
SWIDTH 357 0
DWIDTH 5 0
BBX 5 12 0 0
BITMAP
88
70
00
F8
20
20
20
20
20
20
20
F8
ENDCHAR
STARTCHAR ibreve
ENCODING 301
SWIDTH 285 0
DWIDTH 4 0
BBX 4 10 0 0
BITMAP
90
E0
00
E0
60
60
60
60
60
F0
ENDCHAR
STARTCHAR Iogonek
ENCODING 302
SWIDTH 357 0
DWIDTH 5 0
BBX 5 12 0 -3
BITMAP
F8
20
20
20
20
20
20
20
F8
20
40
70
ENDCHAR
STARTCHAR iogonek
ENCODING 303
SWIDTH 285 0
DWIDTH 4 0
BBX 4 13 0 -3
BITMAP
60
20
00
E0
60
60
60
60
60
F0
40
40
70
ENDCHAR
STARTCHAR Idotaccent
ENCODING 304
SWIDTH 357 0
DWIDTH 5 0
BBX 5 12 0 0
BITMAP
20
20
00
F8
20
20
20
20
20
20
20
F8
ENDCHAR
STARTCHAR dotlessi
ENCODING 305
SWIDTH 285 0
DWIDTH 4 0
BBX 4 7 0 0
BITMAP
E0
60
60
60
60
60
F0
ENDCHAR
STARTCHAR IJ
ENCODING 306
SWIDTH 753 0
DWIDTH 11 0
BBX 10 9 0 0
BITMAP
FBC0
2080
2080
2080
2080
2080
2080
2480
FF00
ENDCHAR
STARTCHAR ij
ENCODING 307
SWIDTH 548 0
DWIDTH 8 0
BBX 7 12 0 -3
BITMAP
66
24
EE
66
66
66
66
66
F6
06
14
1C
ENDCHAR
STARTCHAR Jcircumflex
ENCODING 308
SWIDTH 396 0
DWIDTH 6 0
BBX 5 12 0 0
BITMAP
30
68
00
78
10
10
10
10
10
10
90
E0
ENDCHAR
STARTCHAR jcircumflex
ENCODING 309
SWIDTH 263 0
DWIDTH 4 0
BBX 5 13 -1 -3
BITMAP
30
48
00
70
30
30
30
30
30
30
30
A0
E0
ENDCHAR
STARTCHAR Kcommaaccent
ENCODING 310
SWIDTH 702 0
DWIDTH 10 0
BBX 10 13 0 -4
BITMAP
FB80
2200
2400
2800
3800
2C00
2600
2300
F3C0
0C00
0C00
0400
0800
ENDCHAR
STARTCHAR kcommaaccent
ENCODING 311
SWIDTH 542 0
DWIDTH 8 0
BBX 8 14 0 -4
BITMAP
E0
60
60
6E
68
70
70
68
6C
E7
18
18
08
10
ENDCHAR
STARTCHAR kgreenlandic
ENCODING 312
SWIDTH 542 0
DWIDTH 8 0
BBX 8 7 0 0
BITMAP
EE
68
70
70
78
6C
FF
ENDCHAR
STARTCHAR Lacute
ENCODING 313
SWIDTH 585 0
DWIDTH 8 0
BBX 7 12 1 0
BITMAP
30
40
00
F0
40
40
40
40
40
42
42
FE
ENDCHAR
STARTCHAR lacute
ENCODING 314
SWIDTH 283 0
DWIDTH 4 0
BBX 4 13 0 0
BITMAP
30
40
00
E0
60
60
60
60
60
60
60
60
F0
ENDCHAR
STARTCHAR Lcommaaccent
ENCODING 315
SWIDTH 585 0
DWIDTH 8 0
BBX 7 13 1 -4
BITMAP
F0
40
40
40
40
40
42
42
FE
30
30
10
20
ENDCHAR
STARTCHAR lcommaaccent
ENCODING 316
SWIDTH 283 0
DWIDTH 4 0
BBX 4 14 0 -4
BITMAP
E0
60
60
60
60
60
60
60
60
F0
60
60
20
40
ENDCHAR
STARTCHAR Lcaron
ENCODING 317
SWIDTH 585 0
DWIDTH 8 0
BBX 7 9 1 0
BITMAP
F4
44
44
40
40
40
42
42
FE
ENDCHAR
STARTCHAR lcaron
ENCODING 318
SWIDTH 366 0
DWIDTH 5 0
BBX 5 10 0 0
BITMAP
E8
68
70
60
60
60
60
60
60
F0
ENDCHAR
STARTCHAR Ldot
ENCODING 319
SWIDTH 605 0
DWIDTH 8 0
BBX 7 9 1 0
BITMAP
F0
40
40
44
46
40
42
42
FE
ENDCHAR
STARTCHAR ldot
ENCODING 320
SWIDTH 357 0
DWIDTH 5 0
BBX 5 10 0 0
BITMAP
E0
60
60
60
68
68
60
60
60
F0
ENDCHAR
STARTCHAR Lslash
ENCODING 321
SWIDTH 590 0
DWIDTH 8 0
BBX 8 9 0 0
BITMAP
78
20
24
38
20
E0
21
21
7F
ENDCHAR
STARTCHAR lslash
ENCODING 322
SWIDTH 290 0
DWIDTH 4 0
BBX 4 10 0 0
BITMAP
E0
60
60
70
60
E0
60
60
60
F0
ENDCHAR
STARTCHAR Nacute
ENCODING 323
SWIDTH 742 0
DWIDTH 10 0
BBX 10 12 0 0
BITMAP
0600
0800
0000
E1C0
3080
3880
2C80
2480
2680
2380
2180
F080
ENDCHAR
STARTCHAR nacute
ENCODING 324
SWIDTH 576 0
DWIDTH 8 0
BBX 8 10 0 0
BITMAP
0C
18
00
FC
66
62
62
62
62
F7
ENDCHAR
STARTCHAR Ncommaaccent
ENCODING 325
SWIDTH 742 0
DWIDTH 10 0
BBX 10 13 0 -4
BITMAP
E1C0
3080
3880
2C80
2480
2680
2380
2180
F080
0C00
0C00
0400
0800
ENDCHAR
STARTCHAR ncommaaccent
ENCODING 326
SWIDTH 576 0
DWIDTH 8 0
BBX 8 11 0 -4
BITMAP
FC
66
62
62
62
62
E7
18
18
08
10
ENDCHAR
STARTCHAR Ncaron
ENCODING 327
SWIDTH 742 0
DWIDTH 10 0
BBX 10 12 0 0
BITMAP
1A00
0C00
0000
E1C0
3080
3880
2C80
2480
2680
2380
2180
F080
ENDCHAR
STARTCHAR ncaron
ENCODING 328
SWIDTH 576 0
DWIDTH 8 0
BBX 8 10 0 0
BITMAP
24
18
00
FC
66
62
62
62
62
F7
ENDCHAR
STARTCHAR napostrophe
ENCODING 329
SWIDTH 576 0
DWIDTH 8 0
BBX 10 10 -2 0
BITMAP
C000
C000
4000
BF00
1980
1880
1880
1880
1880
3DC0
ENDCHAR
STARTCHAR Eng
ENCODING 330
SWIDTH 742 0
DWIDTH 10 0
BBX 10 12 0 -3
BITMAP
E1C0
3080
3880
2880
2480
2680
2380
2180
F080
0080
0480
0700
ENDCHAR
STARTCHAR eng
ENCODING 331
SWIDTH 559 0
DWIDTH 8 0
BBX 7 10 0 -3
BITMAP
FC
66
62
62
62
62
F2
02
12
1C
ENDCHAR
STARTCHAR Omacron
ENCODING 332
SWIDTH 738 0
DWIDTH 10 0
BBX 9 11 1 0
BITMAP
3C00
0000
3C00
4300
8100
8180
8180
8180
C100
4300
3C00
ENDCHAR
STARTCHAR omacron
ENCODING 333
SWIDTH 514 0
DWIDTH 7 0
BBX 7 9 0 0
BITMAP
3C
00
38
44
46
C6
46
44
38
ENDCHAR
STARTCHAR Obreve
ENCODING 334
SWIDTH 738 0
DWIDTH 10 0
BBX 9 12 1 0
BITMAP
2400
1C00
0000
3C00
4300
8100
8180
8180
8180
C100
4300
3C00
ENDCHAR
STARTCHAR obreve
ENCODING 335
SWIDTH 514 0
DWIDTH 7 0
BBX 7 10 0 0
BITMAP
44
38
00
38
44
46
C6
46
44
38
ENDCHAR
STARTCHAR Ohungarumlaut
ENCODING 336
SWIDTH 738 0
DWIDTH 10 0
BBX 9 12 1 0
BITMAP
0A00
1400
0000
3C00
4300
8100
8180
8180
8180
C100
4300
3C00
ENDCHAR
STARTCHAR ohungarumlaut
ENCODING 337
SWIDTH 514 0
DWIDTH 7 0
BBX 7 10 0 0
BITMAP
1C
28
00
38
44
46
C6
46
44
38
ENDCHAR
STARTCHAR OE
ENCODING 338
SWIDTH 945 0
DWIDTH 13 0
BBX 12 9 1 0
BITMAP
3FE0
4610
C620
87C0
8640
8600
8610
4610
3FF0
ENDCHAR
STARTCHAR oe
ENCODING 339
SWIDTH 807 0
DWIDTH 11 0
BBX 11 7 0 0
BITMAP
39C0
4660
47E0
C600
4600
4620
39C0
ENDCHAR
STARTCHAR Racute
ENCODING 340
SWIDTH 659 0
DWIDTH 9 0
BBX 8 12 1 0
BITMAP
18
20
00
FC
46
46
44
78
48
4C
46
F3
ENDCHAR
STARTCHAR racute
ENCODING 341
SWIDTH 380 0
DWIDTH 5 0
BBX 5 10 0 0
BITMAP
10
20
00
F8
68
60
60
60
60
F0
ENDCHAR
STARTCHAR Rcommaaccent
ENCODING 342
SWIDTH 659 0
DWIDTH 9 0
BBX 8 13 1 -4
BITMAP
FC
46
46
44
78
48
4C
46
E3
10
18
08
10
ENDCHAR
STARTCHAR rcommaaccent
ENCODING 343
SWIDTH 380 0
DWIDTH 5 0
BBX 5 11 0 -4
BITMAP
F8
68
60
60
60
60
F0
60
60
20
40
ENDCHAR
STARTCHAR Rcaron
ENCODING 344
SWIDTH 659 0
DWIDTH 9 0
BBX 8 12 1 0
BITMAP
68
30
00
FC
46
46
44
78
48
4C
46
F3
ENDCHAR
STARTCHAR rcaron
ENCODING 345
SWIDTH 380 0
DWIDTH 5 0
BBX 5 10 0 0
BITMAP
58
30
00
F8
68
60
60
60
60
F0
ENDCHAR
STARTCHAR Sacute
ENCODING 346
SWIDTH 504 0
DWIDTH 7 0
BBX 7 12 0 0
BITMAP
18
20
00
3C
44
44
60
38
0C
86
44
7C
ENDCHAR
STARTCHAR sacute
ENCODING 347
SWIDTH 394 0
DWIDTH 6 0
BBX 4 10 1 0
BITMAP
20
40
00
F0
90
80
60
B0
90
F0
ENDCHAR
STARTCHAR Scircumflex
ENCODING 348
SWIDTH 504 0
DWIDTH 7 0
BBX 7 12 0 0
BITMAP
10
6C
00
3C
44
44
60
38
0C
86
44
7C
ENDCHAR
STARTCHAR scircumflex
ENCODING 349
SWIDTH 394 0
DWIDTH 6 0
BBX 4 10 1 0
BITMAP
60
90
00
F0
90
80
60
B0
90
F0
ENDCHAR
STARTCHAR uni015E
ENCODING 350
SWIDTH 504 0
DWIDTH 7 0
BBX 7 12 0 -3
BITMAP
3C
44
44
60
38
0C
86
44
7C
18
08
30
ENDCHAR
STARTCHAR uni015F
ENCODING 351
SWIDTH 394 0
DWIDTH 6 0
BBX 4 10 1 -3
BITMAP
F0
90
80
60
B0
90
F0
60
20
E0
ENDCHAR
STARTCHAR Scaron
ENCODING 352
SWIDTH 504 0
DWIDTH 7 0
BBX 7 12 0 0
BITMAP
6C
10
00
3C
44
44
60
38
0C
86
44
7C
ENDCHAR
STARTCHAR scaron
ENCODING 353
SWIDTH 394 0
DWIDTH 6 0
BBX 4 10 1 0
BITMAP
90
60
00
F0
90
80
60
B0
90
F0
ENDCHAR
STARTCHAR uni0162
ENCODING 354
SWIDTH 603 0
DWIDTH 8 0
BBX 8 12 0 -3
BITMAP
FF
89
08
08
08
08
08
08
3C
08
04
18
ENDCHAR
STARTCHAR uni0163
ENCODING 355
SWIDTH 315 0
DWIDTH 4 0
BBX 3 12 1 -3
BITMAP
40
80
E0
80
80
80
80
80
60
60
20
C0
ENDCHAR
STARTCHAR Tcaron
ENCODING 356
SWIDTH 603 0
DWIDTH 8 0
BBX 8 12 0 0
BITMAP
24
18
00
FF
89
08
08
08
08
08
08
3C
ENDCHAR
STARTCHAR tcaron
ENCODING 357
SWIDTH 353 0
DWIDTH 5 0
BBX 4 10 1 0
BITMAP
10
50
A0
E0
80
80
80
80
80
60
ENDCHAR
STARTCHAR Tbar
ENCODING 358
SWIDTH 603 0
DWIDTH 8 0
BBX 8 9 0 0
BITMAP
FF
89
08
3E
08
08
08
08
3C
ENDCHAR
STARTCHAR tbar
ENCODING 359
SWIDTH 328 0
DWIDTH 5 0
BBX 3 9 1 0
BITMAP
40
80
E0
80
E0
80
80
C0
60
ENDCHAR
STARTCHAR Utilde
ENCODING 360
SWIDTH 752 0
DWIDTH 11 0
BBX 10 12 0 0
BITMAP
0D00
1200
0000
F1C0
2080
2080
2080
2080
2080
2080
3080
1F00
ENDCHAR
STARTCHAR utilde
ENCODING 361
SWIDTH 570 0
DWIDTH 8 0
BBX 8 10 0 0
BITMAP
34
4C
00
CE
46
46
46
46
66
3F
ENDCHAR
STARTCHAR Umacron
ENCODING 362
SWIDTH 752 0
DWIDTH 11 0
BBX 10 11 0 0
BITMAP
0F00
0000
F1C0
2080
2080
2080
2080
2080
2080
3080
1F00
ENDCHAR
STARTCHAR umacron
ENCODING 363
SWIDTH 570 0
DWIDTH 8 0
BBX 8 9 0 0
BITMAP
3C
00
CE
46
46
46
46
66
3F
ENDCHAR
STARTCHAR Ubreve
ENCODING 364
SWIDTH 752 0
DWIDTH 11 0
BBX 10 12 0 0
BITMAP
1100
0E00
0000
F1C0
2080
2080
2080
2080
2080
2080
3080
1F00
ENDCHAR
STARTCHAR ubreve
ENCODING 365
SWIDTH 570 0
DWIDTH 8 0
BBX 8 10 0 0
BITMAP
24
38
00
CE
46
46
46
46
66
3F
ENDCHAR
STARTCHAR Uring
ENCODING 366
SWIDTH 752 0
DWIDTH 11 0
BBX 10 13 0 0
BITMAP
0600
0A00
0600
0000
F1C0
2080
2080
2080
2080
2080
2080
3080
1F00
ENDCHAR
STARTCHAR uring
ENCODING 367
SWIDTH 570 0
DWIDTH 8 0
BBX 8 10 0 0
BITMAP
18
28
18
CE
46
46
46
46
66
3F
ENDCHAR
STARTCHAR Uhungarumlaut
ENCODING 368
SWIDTH 752 0
DWIDTH 11 0
BBX 10 12 0 0
BITMAP
0780
0A00
0000
F1C0
2080
2080
2080
2080
2080
2080
3080
1F00
ENDCHAR
STARTCHAR uhungarumlaut
ENCODING 369
SWIDTH 570 0
DWIDTH 8 0
BBX 8 10 0 0
BITMAP
1E
18
00
CE
46
46
46
46
66
3F
ENDCHAR
STARTCHAR Uogonek
ENCODING 370
SWIDTH 753 0
DWIDTH 11 0
BBX 10 12 0 -3
BITMAP
F1C0
2080
2080
2080
2080
2080
2080
3080
1F00
0400
0400
0700
ENDCHAR
STARTCHAR uogonek
ENCODING 371
SWIDTH 570 0
DWIDTH 8 0
BBX 8 10 0 -3
BITMAP
CE
46
46
46
46
66
3F
04
08
0E
ENDCHAR
STARTCHAR Wcircumflex
ENCODING 372
SWIDTH 944 0
DWIDTH 13 0
BBX 13 12 0 0
BITMAP
0200
0D00
0080
E738
6210
2310
3320
33A0
14A0
1CC0
08C0
0840
ENDCHAR
STARTCHAR wcircumflex
ENCODING 373
SWIDTH 749 0
DWIDTH 10 0
BBX 11 10 0 0
BITMAP
0C00
1200
0000
EEE0
4440
6480
2A80
2A80
3300
1100
ENDCHAR
STARTCHAR Ycircumflex
ENCODING 374
SWIDTH 647 0
DWIDTH 9 0
BBX 9 12 0 0
BITMAP
0C00
1200
0000
F380
2100
3200
1400
1C00
0800
0800
0800
1E00
ENDCHAR
STARTCHAR ycircumflex
ENCODING 375
SWIDTH 483 0
DWIDTH 7 0
BBX 7 13 0 -3
BITMAP
10
2C
00
E6
44
64
28
38
10
10
10
20
C0
ENDCHAR
STARTCHAR Ydieresis
ENCODING 376
SWIDTH 647 0
DWIDTH 9 0
BBX 9 12 0 0
BITMAP
1200
3200
0000
F380
2100
3200
1400
1C00
0800
0800
0800
1E00
ENDCHAR
STARTCHAR Zacute
ENCODING 377
SWIDTH 594 0
DWIDTH 8 0
BBX 8 12 0 0
BITMAP
0C
10
00
7F
42
04
0C
18
10
21
61
FF
ENDCHAR
STARTCHAR zacute
ENCODING 378
SWIDTH 458 0
DWIDTH 6 0
BBX 6 10 0 0
BITMAP
18
10
00
7C
88
18
30
20
64
FC
ENDCHAR
STARTCHAR Zdotaccent
ENCODING 379
SWIDTH 594 0
DWIDTH 8 0
BBX 8 12 0 0
BITMAP
08
08
00
7F
42
04
0C
18
10
21
61
FF
ENDCHAR
STARTCHAR zdotaccent
ENCODING 380
SWIDTH 458 0
DWIDTH 6 0
BBX 6 10 0 0
BITMAP
10
10
00
7C
88
18
30
20
64
FC
ENDCHAR
STARTCHAR Zcaron
ENCODING 381
SWIDTH 594 0
DWIDTH 8 0
BBX 8 12 0 0
BITMAP
34
08
00
7F
42
04
0C
18
10
21
61
FF
ENDCHAR
STARTCHAR zcaron
ENCODING 382
SWIDTH 458 0
DWIDTH 6 0
BBX 6 10 0 0
BITMAP
68
10
00
7C
88
18
30
20
64
FC
ENDCHAR
STARTCHAR longs
ENCODING 383
SWIDTH 285 0
DWIDTH 4 0
BBX 5 10 0 0
BITMAP
38
20
60
E0
60
60
60
60
60
F0
ENDCHAR
STARTCHAR uni0180
ENCODING 384
SWIDTH 522 0
DWIDTH 7 0
BBX 7 10 0 0
BITMAP
C0
F8
40
5C
66
46
42
46
44
78
ENDCHAR
STARTCHAR uni0188
ENCODING 392
SWIDTH 446 0
DWIDTH 6 0
BBX 7 9 0 0
BITMAP
06
0A
38
4C
40
C0
40
44
38
ENDCHAR
STARTCHAR uni0190
ENCODING 400
SWIDTH 518 0
DWIDTH 7 0
BBX 6 9 1 0
BITMAP
F8
8C
80
70
C0
80
80
84
78
ENDCHAR
STARTCHAR uni0192
ENCODING 402
SWIDTH 301 0
DWIDTH 4 0
BBX 6 13 -1 -3
BITMAP
1C
10
30
78
30
30
30
30
30
30
30
A0
E0
ENDCHAR
STARTCHAR uni0195
ENCODING 405
SWIDTH 798 0
DWIDTH 11 0
BBX 11 10 0 0
BITMAP
E000
6000
6000
7C40
6640
6620
6620
6620
6240
F380
ENDCHAR
STARTCHAR uni0199
ENCODING 409
SWIDTH 538 0
DWIDTH 8 0
BBX 7 10 0 0
BITMAP
3C
20
60
6E
68
70
70
68
6C
FE
ENDCHAR
STARTCHAR uni019A
ENCODING 410
SWIDTH 287 0
DWIDTH 4 0
BBX 4 10 0 0
BITMAP
E0
60
60
60
F0
60
60
60
60
F0
ENDCHAR
STARTCHAR uni019B
ENCODING 411
SWIDTH 495 0
DWIDTH 7 0
BBX 7 10 0 0
BITMAP
E0
18
70
10
18
38
28
24
44
E6
ENDCHAR
STARTCHAR uni019E
ENCODING 414
SWIDTH 559 0
DWIDTH 8 0
BBX 8 10 0 -3
BITMAP
FC
66
62
62
62
62
F2
02
02
03
ENDCHAR
STARTCHAR Ohorn
ENCODING 416
SWIDTH 737 0
DWIDTH 10 0
BBX 9 12 1 0
BITMAP
0080
0080
0080
3F00
4300
8100
8180
8180
8180
8100
4300
3C00
ENDCHAR
STARTCHAR ohorn
ENCODING 417
SWIDTH 516 0
DWIDTH 7 0
BBX 7 9 0 0
BITMAP
02
02
3C
44
46
C6
46
44
38
ENDCHAR
STARTCHAR uni01A5
ENCODING 421
SWIDTH 522 0
DWIDTH 7 0
BBX 7 13 0 -3
BITMAP
38
48
40
5C
66
46
42
46
44
78
40
40
F0
ENDCHAR
STARTCHAR uni01AA
ENCODING 426
SWIDTH 298 0
DWIDTH 4 0
BBX 7 13 -1 -3
BITMAP
60
90
90
70
10
10
10
10
10
10
10
12
0C
ENDCHAR
STARTCHAR uni01AB
ENCODING 427
SWIDTH 321 0
DWIDTH 5 0
BBX 3 12 1 -3
BITMAP
40
80
E0
80
80
80
80
80
60
20
A0
60
ENDCHAR
STARTCHAR uni01AD
ENCODING 429
SWIDTH 315 0
DWIDTH 4 0
BBX 5 10 1 0
BITMAP
78
80
80
E0
80
80
80
80
80
60
ENDCHAR
STARTCHAR Uhorn
ENCODING 431
SWIDTH 762 0
DWIDTH 11 0
BBX 12 12 0 0
BITMAP
0020
0030
0020
F1C0
2080
2080
2080
2080
2080
2080
3100
1E00
ENDCHAR
STARTCHAR uhorn
ENCODING 432
SWIDTH 574 0
DWIDTH 8 0
BBX 8 9 0 0
BITMAP
01
01
CE
46
46
46
46
66
3F
ENDCHAR
STARTCHAR uni01B5
ENCODING 437
SWIDTH 594 0
DWIDTH 8 0
BBX 8 9 0 0
BITMAP
7F
46
0C
3E
10
30
21
61
FF
ENDCHAR
STARTCHAR uni01BA
ENCODING 442
SWIDTH 430 0
DWIDTH 6 0
BBX 5 10 0 -3
BITMAP
F8
90
20
70
08
08
18
60
88
78
ENDCHAR
STARTCHAR uni01BB
ENCODING 443
SWIDTH 508 0
DWIDTH 7 0
BBX 7 10 0 0
BITMAP
38
4C
84
04
04
7E
10
20
42
FC
ENDCHAR
STARTCHAR uni01BE
ENCODING 446
SWIDTH 406 0
DWIDTH 6 0
BBX 5 9 0 0
BITMAP
20
60
F0
60
18
08
88
88
70
ENDCHAR
STARTCHAR uni01C0
ENCODING 448
SWIDTH 250 0
DWIDTH 4 0
BBX 1 10 1 0
BITMAP
80
80
80
80
80
80
80
80
80
80
ENDCHAR
STARTCHAR uni01C1
ENCODING 449
SWIDTH 423 0
DWIDTH 6 0
BBX 4 10 1 0
BITMAP
90
90
90
90
90
90
90
90
90
90
ENDCHAR
STARTCHAR uni01C2
ENCODING 450
SWIDTH 422 0
DWIDTH 6 0
BBX 4 10 1 0
BITMAP
60
60
60
F0
60
F0
60
60
60
60
ENDCHAR
STARTCHAR uni01C3
ENCODING 451
SWIDTH 245 0
DWIDTH 3 0
BBX 2 10 1 0
BITMAP
80
80
80
80
80
80
80
00
80
C0
ENDCHAR
STARTCHAR uni01DE
ENCODING 478
SWIDTH 718 0
DWIDTH 10 0
BBX 10 13 0 0
BITMAP
1E00
1200
1200
0000
0800
0C00
1400
1600
1200
3F00
2100
4180
E3C0
ENDCHAR
STARTCHAR uni01DF
ENCODING 479
SWIDTH 480 0
DWIDTH 7 0
BBX 6 11 1 0
BITMAP
F0
90
98
00
F0
90
10
70
90
90
FC
ENDCHAR
STARTCHAR uni01F0
ENCODING 496
SWIDTH 263 0
DWIDTH 4 0
BBX 5 13 -1 -3
BITMAP
48
30
00
70
30
30
30
30
30
30
30
A0
E0
ENDCHAR
STARTCHAR Aringacute
ENCODING 506
SWIDTH 718 0
DWIDTH 10 0
BBX 10 15 0 0
BITMAP
0400
0800
0C00
1200
0C00
0000
0800
0C00
1400
1600
1200
3F00
2100
4180
E3C0
ENDCHAR
STARTCHAR aringacute
ENCODING 507
SWIDTH 480 0
DWIDTH 7 0
BBX 6 13 1 0
BITMAP
30
40
00
60
50
60
F0
90
10
70
90
90
FC
ENDCHAR
STARTCHAR AEacute
ENCODING 508
SWIDTH 894 0
DWIDTH 13 0
BBX 12 12 0 0
BITMAP
0080
0100
0000
0FF0
0A10
0A00
1220
1FE0
2220
2210
4210
EFF0
ENDCHAR
STARTCHAR aeacute
ENCODING 509
SWIDTH 709 0
DWIDTH 10 0
BBX 9 10 1 0
BITMAP
1800
1000
0000
FE00
9100
3F00
D000
9080
9900
EE00
ENDCHAR
STARTCHAR Oslashacute
ENCODING 510
SWIDTH 737 0
DWIDTH 10 0
BBX 9 12 1 0
BITMAP
0C00
1000
0000
3D00
4300
8500
8980
9180
9180
A100
4300
BC00
ENDCHAR
STARTCHAR oslashacute
ENCODING 511
SWIDTH 514 0
DWIDTH 7 0
BBX 7 10 0 0
BITMAP
18
10
00
3C
44
4E
D6
66
44
78
ENDCHAR
STARTCHAR uni0218
ENCODING 536
SWIDTH 504 0
DWIDTH 7 0
BBX 7 13 0 -4
BITMAP
3C
44
44
60
38
0C
86
44
7C
10
10
10
20
ENDCHAR
STARTCHAR uni0219
ENCODING 537
SWIDTH 394 0
DWIDTH 6 0
BBX 4 11 1 -4
BITMAP
F0
90
80
60
B0
90
F0
40
60
20
40
ENDCHAR
STARTCHAR uni021A
ENCODING 538
SWIDTH 603 0
DWIDTH 8 0
BBX 8 13 0 -4
BITMAP
FF
89
08
08
08
08
08
08
3C
08
18
08
10
ENDCHAR
STARTCHAR uni021B
ENCODING 539
SWIDTH 315 0
DWIDTH 4 0
BBX 3 13 1 -4
BITMAP
40
80
E0
80
80
80
80
80
60
40
60
20
40
ENDCHAR
STARTCHAR uni0221
ENCODING 545
SWIDTH 674 0
DWIDTH 9 0
BBX 10 12 0 -2
BITMAP
0C00
0400
0400
3C00
4400
4400
C400
4480
4540
7F80
0200
0400
ENDCHAR
STARTCHAR uni0228
ENCODING 552
SWIDTH 626 0
DWIDTH 9 0
BBX 8 12 0 -3
BITMAP
FF
21
22
22
3E
20
21
21
FF
0C
04
18
ENDCHAR
STARTCHAR uni0229
ENCODING 553
SWIDTH 464 0
DWIDTH 7 0
BBX 6 10 0 -3
BITMAP
38
44
7C
C0
40
64
38
10
08
30
ENDCHAR
STARTCHAR uni0234
ENCODING 564
SWIDTH 399 0
DWIDTH 6 0
BBX 6 12 0 -2
BITMAP
C0
40
40
40
40
40
40
48
54
78
20
40
ENDCHAR
STARTCHAR uni0235
ENCODING 565
SWIDTH 702 0
DWIDTH 10 0
BBX 10 9 0 -2
BITMAP
FC00
6400
6600
6600
66C0
6740
F380
0200
0400
ENDCHAR
STARTCHAR uni0236
ENCODING 566
SWIDTH 406 0
DWIDTH 6 0
BBX 5 11 1 -2
BITMAP
40
80
E0
80
80
80
90
A8
70
40
80
ENDCHAR
STARTCHAR uni0237
ENCODING 567
SWIDTH 263 0
DWIDTH 4 0
BBX 4 10 -1 -3
BITMAP
70
30
30
30
30
30
30
30
A0
E0
ENDCHAR
STARTCHAR uni0250
ENCODING 592
SWIDTH 475 0
DWIDTH 7 0
BBX 6 7 0 0
BITMAP
DC
64
44
58
60
44
38
ENDCHAR
STARTCHAR uni0251
ENCODING 593
SWIDTH 542 0
DWIDTH 8 0
BBX 7 7 0 0
BITMAP
3C
44
44
C4
44
44
7E
ENDCHAR
STARTCHAR uni0252
ENCODING 594
SWIDTH 544 0
DWIDTH 8 0
BBX 7 7 0 0
BITMAP
FC
66
62
62
62
62
7C
ENDCHAR
STARTCHAR uni0253
ENCODING 595
SWIDTH 518 0
DWIDTH 7 0
BBX 6 10 1 0
BITMAP
70
90
80
B8
C8
8C
8C
8C
88
F0
ENDCHAR
STARTCHAR uni0254
ENCODING 596
SWIDTH 454 0
DWIDTH 6 0
BBX 6 7 0 0
BITMAP
78
88
04
04
04
48
70
ENDCHAR
STARTCHAR uni0255
ENCODING 597
SWIDTH 447 0
DWIDTH 6 0
BBX 6 9 0 -2
BITMAP
38
4C
40
C0
58
64
38
40
40
ENDCHAR
STARTCHAR uni0256
ENCODING 598
SWIDTH 528 0
DWIDTH 7 0
BBX 9 13 0 -3
BITMAP
0C00
0400
0400
3C00
4400
4400
C400
4400
4400
7C00
0400
0480
0380
ENDCHAR
STARTCHAR uni0257
ENCODING 599
SWIDTH 542 0
DWIDTH 8 0
BBX 9 10 0 0
BITMAP
0380
0480
0400
3C00
4400
4400
C400
4400
4400
7E00
ENDCHAR
STARTCHAR uni0258
ENCODING 600
SWIDTH 466 0
DWIDTH 7 0
BBX 6 7 0 0
BITMAP
38
44
FC
04
84
4C
38
ENDCHAR
STARTCHAR uni0259
ENCODING 601
SWIDTH 464 0
DWIDTH 7 0
BBX 6 7 0 0
BITMAP
38
4C
84
04
FC
44
38
ENDCHAR
STARTCHAR uni025A
ENCODING 602
SWIDTH 642 0
DWIDTH 9 0
BBX 9 7 0 0
BITMAP
7800
8E80
0580
0400
FC00
4400
3800
ENDCHAR
STARTCHAR uni025B
ENCODING 603
SWIDTH 399 0
DWIDTH 6 0
BBX 5 7 0 0
BITMAP
78
48
40
30
40
C0
78
ENDCHAR
STARTCHAR uni025C
ENCODING 604
SWIDTH 398 0
DWIDTH 6 0
BBX 5 7 0 0
BITMAP
70
88
08
30
08
88
70
ENDCHAR
STARTCHAR uni025D
ENCODING 605
SWIDTH 575 0
DWIDTH 8 0
BBX 8 7 0 0
BITMAP
70
8D
0B
30
08
88
70
ENDCHAR
STARTCHAR uni025E
ENCODING 606
SWIDTH 500 0
DWIDTH 7 0
BBX 7 7 0 0
BITMAP
3C
44
44
D8
44
46
3C
ENDCHAR
STARTCHAR uni025F
ENCODING 607
SWIDTH 272 0
DWIDTH 4 0
BBX 5 10 -1 -3
BITMAP
70
30
78
30
30
30
30
30
A0
E0
ENDCHAR
STARTCHAR uni0260
ENCODING 608
SWIDTH 541 0
DWIDTH 8 0
BBX 9 13 0 -3
BITMAP
0380
0400
0400
3C00
4400
4400
C400
4400
4400
7C00
0400
4400
7800
ENDCHAR
STARTCHAR uni0261
ENCODING 609
SWIDTH 521 0
DWIDTH 7 0
BBX 6 10 0 -3
BITMAP
3C
44
44
C4
44
44
7C
04
44
78
ENDCHAR
STARTCHAR uni0262
ENCODING 610
SWIDTH 535 0
DWIDTH 7 0
BBX 7 7 0 0
BITMAP
3E
42
40
CE
46
46
3C
ENDCHAR
STARTCHAR uni0263
ENCODING 611
SWIDTH 479 0
DWIDTH 7 0
BBX 7 10 0 -3
BITMAP
E6
44
64
28
28
10
10
38
28
38
ENDCHAR
STARTCHAR uni0264
ENCODING 612
SWIDTH 466 0
DWIDTH 7 0
BBX 6 7 0 0
BITMAP
EC
94
28
48
48
48
38
ENDCHAR
STARTCHAR uni0265
ENCODING 613
SWIDTH 553 0
DWIDTH 8 0
BBX 8 10 0 -3
BITMAP
CE
46
46
46
46
66
3E
06
06
07
ENDCHAR
STARTCHAR uni0266
ENCODING 614
SWIDTH 577 0
DWIDTH 8 0
BBX 8 10 0 0
BITMAP
3C
24
60
7C
66
62
62
62
62
F7
ENDCHAR
STARTCHAR uni0267
ENCODING 615
SWIDTH 562 0
DWIDTH 8 0
BBX 7 13 0 -3
BITMAP
3C
24
60
7C
66
62
62
62
62
F2
02
12
1C
ENDCHAR
STARTCHAR uni0268
ENCODING 616
SWIDTH 295 0
DWIDTH 4 0
BBX 4 10 0 0
BITMAP
60
20
00
60
60
60
F0
60
60
70
ENDCHAR
STARTCHAR uni0269
ENCODING 617
SWIDTH 286 0
DWIDTH 4 0
BBX 4 7 0 0
BITMAP
C0
40
40
40
40
40
30
ENDCHAR
STARTCHAR uni026A
ENCODING 618
SWIDTH 287 0
DWIDTH 4 0
BBX 4 7 0 0
BITMAP
F0
60
60
60
60
60
F0
ENDCHAR
STARTCHAR uni026B
ENCODING 619
SWIDTH 290 0
DWIDTH 4 0
BBX 4 10 0 0
BITMAP
E0
60
60
60
F0
60
60
60
60
F0
ENDCHAR
STARTCHAR uni026C
ENCODING 620
SWIDTH 318 0
DWIDTH 4 0
BBX 5 10 0 0
BITMAP
60
20
20
E0
A8
B0
60
20
20
70
ENDCHAR
STARTCHAR uni026D
ENCODING 621
SWIDTH 248 0
DWIDTH 3 0
BBX 5 13 0 -3
BITMAP
C0
40
40
40
40
40
40
40
40
40
40
48
38
ENDCHAR
STARTCHAR uni026E
ENCODING 622
SWIDTH 590 0
DWIDTH 8 0
BBX 8 13 0 -3
BITMAP
E0
60
60
7F
62
64
6C
6C
63
F1
01
33
1E
ENDCHAR
STARTCHAR uni026F
ENCODING 623
SWIDTH 846 0
DWIDTH 12 0
BBX 11 7 0 0
BITMAP
CCC0
4440
4440
4440
4440
6640
3BE0
ENDCHAR
STARTCHAR uni0270
ENCODING 624
SWIDTH 826 0
DWIDTH 12 0
BBX 12 10 0 -3
BITMAP
CCC0
4440
4440
4440
4440
6640
3BC0
0040
0040
0070
ENDCHAR
STARTCHAR uni0271
ENCODING 625
SWIDTH 835 0
DWIDTH 12 0
BBX 11 10 0 -3
BITMAP
FDC0
6660
6660
6660
6660
6660
FF60
0060
0140
01C0
ENDCHAR
STARTCHAR uni0272
ENCODING 626
SWIDTH 574 0
DWIDTH 8 0
BBX 9 10 -1 -3
BITMAP
7E00
3300
3100
3100
3100
3100
3380
3000
A000
E000
ENDCHAR
STARTCHAR uni0273
ENCODING 627
SWIDTH 563 0
DWIDTH 8 0
BBX 9 10 0 -3
BITMAP
FC00
6600
6200
6200
6200
6200
F200
0200
0280
0380
ENDCHAR
STARTCHAR uni0274
ENCODING 628
SWIDTH 568 0
DWIDTH 8 0
BBX 8 7 0 0
BITMAP
E7
62
52
5A
4E
46
E2
ENDCHAR
STARTCHAR uni0275
ENCODING 629
SWIDTH 514 0
DWIDTH 7 0
BBX 7 7 0 0
BITMAP
38
44
46
FE
46
44
38
ENDCHAR
STARTCHAR uni0276
ENCODING 630
SWIDTH 732 0
DWIDTH 10 0
BBX 10 7 0 0
BITMAP
3F80
4440
4480
C780
4480
4440
3FC0
ENDCHAR
STARTCHAR uni0277
ENCODING 631
SWIDTH 672 0
DWIDTH 9 0
BBX 9 7 0 0
BITMAP
3E00
4100
4980
C880
C880
4980
3700
ENDCHAR
STARTCHAR uni0278
ENCODING 632
SWIDTH 658 0
DWIDTH 9 0
BBX 9 13 0 -3
BITMAP
1800
0800
0800
3E00
4900
4980
C980
4980
4900
3E00
0800
0800
1C00
ENDCHAR
STARTCHAR uni0279
ENCODING 633
SWIDTH 380 0
DWIDTH 5 0
BBX 5 7 0 0
BITMAP
78
10
10
10
10
B0
D8
ENDCHAR
STARTCHAR uni027A
ENCODING 634
SWIDTH 374 0
DWIDTH 5 0
BBX 5 10 0 0
BITMAP
30
10
10
10
10
10
10
10
B0
D8
ENDCHAR
STARTCHAR uni027B
ENCODING 635
SWIDTH 375 0
DWIDTH 5 0
BBX 7 10 0 -3
BITMAP
78
10
10
10
10
B0
D0
10
16
0C
ENDCHAR
STARTCHAR uni027C
ENCODING 636
SWIDTH 378 0
DWIDTH 5 0
BBX 5 10 0 -3
BITMAP
F8
68
60
60
60
60
60
60
60
F0
ENDCHAR
STARTCHAR uni027D
ENCODING 637
SWIDTH 373 0
DWIDTH 5 0
BBX 5 10 0 -3
BITMAP
D8
68
40
40
40
40
40
40
28
38
ENDCHAR
STARTCHAR uni027E
ENCODING 638
SWIDTH 371 0
DWIDTH 5 0
BBX 5 7 0 0
BITMAP
38
20
40
40
40
40
F0
ENDCHAR
STARTCHAR uni027F
ENCODING 639
SWIDTH 371 0
DWIDTH 5 0
BBX 5 7 0 0
BITMAP
E0
10
10
10
10
10
78
ENDCHAR
STARTCHAR uni0280
ENCODING 640
SWIDTH 494 0
DWIDTH 7 0
BBX 7 7 0 0
BITMAP
78
64
64
78
68
6C
F6
ENDCHAR
STARTCHAR uni0281
ENCODING 641
SWIDTH 494 0
DWIDTH 7 0
BBX 7 7 0 0
BITMAP
F6
6C
68
78
64
64
78
ENDCHAR
STARTCHAR uni0282
ENCODING 642
SWIDTH 395 0
DWIDTH 6 0
BBX 4 10 1 -3
BITMAP
F0
90
80
60
30
90
F0
80
A0
C0
ENDCHAR
STARTCHAR uni0283
ENCODING 643
SWIDTH 253 0
DWIDTH 4 0
BBX 6 13 -1 -3
BITMAP
1C
24
20
20
20
20
20
20
20
20
20
A0
E0
ENDCHAR
STARTCHAR uni0284
ENCODING 644
SWIDTH 286 0
DWIDTH 4 0
BBX 6 13 -1 -3
BITMAP
1C
10
30
30
30
30
30
30
30
78
30
20
E0
ENDCHAR
STARTCHAR uni0285
ENCODING 645
SWIDTH 361 0
DWIDTH 5 0
BBX 7 10 0 -3
BITMAP
E0
90
10
10
10
10
10
10
14
1E
ENDCHAR
STARTCHAR uni0286
ENCODING 646
SWIDTH 253 0
DWIDTH 4 0
BBX 6 13 -1 -3
BITMAP
1C
24
20
20
20
20
20
20
20
20
70
A8
E0
ENDCHAR
STARTCHAR uni0287
ENCODING 647
SWIDTH 315 0
DWIDTH 4 0
BBX 4 9 0 -2
BITMAP
E0
20
20
20
20
20
F0
20
20
ENDCHAR
STARTCHAR uni0288
ENCODING 648
SWIDTH 309 0
DWIDTH 4 0
BBX 4 12 1 -3
BITMAP
40
C0
E0
C0
C0
C0
C0
C0
C0
C0
50
70
ENDCHAR
STARTCHAR uni0289
ENCODING 649
SWIDTH 580 0
DWIDTH 8 0
BBX 8 7 0 0
BITMAP
EE
66
66
FF
66
66
3B
ENDCHAR
STARTCHAR uni028A
ENCODING 650
SWIDTH 548 0
DWIDTH 8 0
BBX 6 7 1 0
BITMAP
CC
88
84
84
84
84
78
ENDCHAR
STARTCHAR uni028B
ENCODING 651
SWIDTH 530 0
DWIDTH 7 0
BBX 7 7 0 0
BITMAP
C4
46
42
42
42
64
38
ENDCHAR
STARTCHAR uni028C
ENCODING 652
SWIDTH 495 0
DWIDTH 7 0
BBX 7 7 0 0
BITMAP
10
10
38
28
48
44
CE
ENDCHAR
STARTCHAR uni028D
ENCODING 653
SWIDTH 764 0
DWIDTH 11 0
BBX 11 7 0 0
BITMAP
1100
3300
3B00
2C80
4C80
4CC0
CEE0
ENDCHAR
STARTCHAR uni028E
ENCODING 654
SWIDTH 492 0
DWIDTH 7 0
BBX 7 10 0 0
BITMAP
0E
08
10
10
10
38
28
48
44
CE
ENDCHAR
STARTCHAR uni028F
ENCODING 655
SWIDTH 454 0
DWIDTH 6 0
BBX 7 7 0 0
BITMAP
EE
44
28
30
10
10
38
ENDCHAR
STARTCHAR uni0290
ENCODING 656
SWIDTH 458 0
DWIDTH 6 0
BBX 8 10 0 -3
BITMAP
7C
88
18
30
20
64
FC
04
05
03
ENDCHAR
STARTCHAR uni0291
ENCODING 657
SWIDTH 458 0
DWIDTH 6 0
BBX 6 9 0 -2
BITMAP
7C
88
18
30
2C
74
FC
20
20
ENDCHAR
STARTCHAR uni0292
ENCODING 658
SWIDTH 443 0
DWIDTH 6 0
BBX 6 10 0 -3
BITMAP
7C
88
10
30
30
0C
04
04
CC
70
ENDCHAR
STARTCHAR uni0293
ENCODING 659
SWIDTH 443 0
DWIDTH 6 0
BBX 6 12 0 -5
BITMAP
7C
88
10
30
30
0C
04
44
AC
78
08
08
ENDCHAR
STARTCHAR uni0294
ENCODING 660
SWIDTH 383 0
DWIDTH 5 0
BBX 5 10 0 0
BITMAP
78
C8
08
08
18
20
60
60
60
F0
ENDCHAR
STARTCHAR uni0295
ENCODING 661
SWIDTH 383 0
DWIDTH 5 0
BBX 5 10 0 0
BITMAP
70
88
80
80
40
30
10
10
10
38
ENDCHAR
STARTCHAR uni0296
ENCODING 662
SWIDTH 408 0
DWIDTH 6 0
BBX 5 10 0 0
BITMAP
E0
20
20
20
20
18
08
08
C8
70
ENDCHAR
STARTCHAR uni0297
ENCODING 663
SWIDTH 437 0
DWIDTH 6 0
BBX 6 10 0 -3
BITMAP
38
4C
40
40
C0
C0
40
40
44
38
ENDCHAR
STARTCHAR uni0298
ENCODING 664
SWIDTH 736 0
DWIDTH 10 0
BBX 10 10 0 0
BITMAP
1E00
2180
4080
40C0
CC40
CC40
40C0
4080
2180
1E00
ENDCHAR
STARTCHAR uni0299
ENCODING 665
SWIDTH 485 0
DWIDTH 7 0
BBX 6 7 0 0
BITMAP
F8
64
64
78
64
64
FC
ENDCHAR
STARTCHAR uni029A
ENCODING 666
SWIDTH 500 0
DWIDTH 7 0
BBX 7 7 0 0
BITMAP
78
44
44
36
44
C4
78
ENDCHAR
STARTCHAR uni029B
ENCODING 667
SWIDTH 536 0
DWIDTH 8 0
BBX 9 9 0 0
BITMAP
0380
0200
3E00
4200
4000
CE00
4600
4600
3C00
ENDCHAR
STARTCHAR uni029C
ENCODING 668
SWIDTH 599 0
DWIDTH 8 0
BBX 8 7 0 0
BITMAP
F7
62
62
7E
62
62
F7
ENDCHAR
STARTCHAR uni029D
ENCODING 669
SWIDTH 263 0
DWIDTH 4 0
BBX 5 12 -1 -3
BITMAP
30
20
70
30
30
30
30
30
30
70
A8
E0
ENDCHAR
STARTCHAR uni029E
ENCODING 670
SWIDTH 542 0
DWIDTH 8 0
BBX 7 10 0 -3
BITMAP
EE
24
14
1C
0C
14
74
04
04
06
ENDCHAR
STARTCHAR uni029F
ENCODING 671
SWIDTH 440 0
DWIDTH 6 0
BBX 6 7 0 0
BITMAP
F0
40
40
40
40
44
FC
ENDCHAR
STARTCHAR uni02A0
ENCODING 672
SWIDTH 541 0
DWIDTH 8 0
BBX 9 13 0 -3
BITMAP
0380
0480
0400
3C00
4400
4400
C400
4400
4400
7C00
0400
0400
0E00
ENDCHAR
STARTCHAR uni02A1
ENCODING 673
SWIDTH 393 0
DWIDTH 6 0
BBX 5 10 0 0
BITMAP
78
C8
08
08
08
10
60
F0
60
F0
ENDCHAR
STARTCHAR uni02A2
ENCODING 674
SWIDTH 393 0
DWIDTH 6 0
BBX 5 10 0 0
BITMAP
78
88
80
80
40
20
10
78
10
38
ENDCHAR
STARTCHAR uni02A3
ENCODING 675
SWIDTH 830 0
DWIDTH 12 0
BBX 11 10 0 0
BITMAP
0C00
0400
0400
3FE0
4460
44C0
C480
4500
4720
7FE0
ENDCHAR
STARTCHAR uni02A4
ENCODING 676
SWIDTH 838 0
DWIDTH 12 0
BBX 11 13 0 -3
BITMAP
0C00
0400
0400
3FE0
4460
4440
C480
4580
4460
7E20
0020
0220
03C0
ENDCHAR
STARTCHAR uni02A5
ENCODING 677
SWIDTH 829 0
DWIDTH 12 0
BBX 11 12 0 -2
BITMAP
0C00
0400
0400
3FE0
4460
44C0
C480
4560
47A0
7FE0
0100
0100
ENDCHAR
STARTCHAR uni02A6
ENCODING 678
SWIDTH 614 0
DWIDTH 9 0
BBX 7 9 1 0
BITMAP
40
80
FE
92
90
8C
82
C2
7C
ENDCHAR
STARTCHAR uni02A7
ENCODING 679
SWIDTH 513 0
DWIDTH 7 0
BBX 8 13 1 -3
BITMAP
07
48
88
F8
88
88
88
88
88
68
08
48
70
ENDCHAR
STARTCHAR uni02A8
ENCODING 680
SWIDTH 687 0
DWIDTH 10 0
BBX 8 9 1 0
BITMAP
40
80
EF
91
90
90
97
D9
6F
ENDCHAR
STARTCHAR uni02A9
ENCODING 681
SWIDTH 866 0
DWIDTH 12 0
BBX 11 13 0 -3
BITMAP
3800
2000
6000
FEC0
6320
6220
6220
6220
6220
F720
0020
0120
01C0
ENDCHAR
STARTCHAR uni02AA
ENCODING 682
SWIDTH 595 0
DWIDTH 8 0
BBX 8 10 0 0
BITMAP
C0
40
40
4F
51
48
4E
43
41
3E
ENDCHAR
STARTCHAR uni02AB
ENCODING 683
SWIDTH 580 0
DWIDTH 8 0
BBX 8 10 0 0
BITMAP
E0
60
60
7F
66
64
6C
68
71
FE
ENDCHAR
STARTCHAR uni02AC
ENCODING 684
SWIDTH 599 0
DWIDTH 8 0
BBX 8 10 0 0
BITMAP
DB
49
2A
34
24
DB
49
4A
36
24
ENDCHAR
STARTCHAR uni02AD
ENCODING 685
SWIDTH 479 0
DWIDTH 7 0
BBX 5 9 1 0
BITMAP
F8
88
88
88
00
F8
88
88
88
ENDCHAR
STARTCHAR uni02AE
ENCODING 686
SWIDTH 595 0
DWIDTH 8 0
BBX 8 10 0 -3
BITMAP
C6
22
22
22
22
22
1E
02
02
03
ENDCHAR
STARTCHAR uni02AF
ENCODING 687
SWIDTH 600 0
DWIDTH 8 0
BBX 10 10 0 -3
BITMAP
C600
2200
2200
2200
2200
2200
1E00
0200
0240
01C0
ENDCHAR
STARTCHAR uni02B0
ENCODING 688
SWIDTH 488 0
DWIDTH 7 0
BBX 7 7 0 4
BITMAP
C0
40
78
44
44
44
EE
ENDCHAR
STARTCHAR uni02B1
ENCODING 689
SWIDTH 488 0
DWIDTH 7 0
BBX 7 8 0 4
BITMAP
38
48
40
78
44
44
44
EE
ENDCHAR
STARTCHAR uni02B2
ENCODING 690
SWIDTH 222 0
DWIDTH 3 0
BBX 3 10 -1 1
BITMAP
20
00
60
20
20
20
20
20
20
E0
ENDCHAR
STARTCHAR uni02B3
ENCODING 691
SWIDTH 325 0
DWIDTH 5 0
BBX 4 5 0 4
BITMAP
D0
60
40
40
E0
ENDCHAR
STARTCHAR uni02B4
ENCODING 692
SWIDTH 325 0
DWIDTH 5 0
BBX 4 5 0 4
BITMAP
30
10
10
30
D0
ENDCHAR
STARTCHAR uni02B5
ENCODING 693
SWIDTH 325 0
DWIDTH 5 0
BBX 6 7 0 2
BITMAP
30
10
10
30
D0
10
1C
ENDCHAR
STARTCHAR uni02B6
ENCODING 694
SWIDTH 443 0
DWIDTH 6 0
BBX 6 5 0 4
BITMAP
EC
58
70
48
F8
ENDCHAR
STARTCHAR uni02B7
ENCODING 695
SWIDTH 653 0
DWIDTH 9 0
BBX 9 5 0 4
BITMAP
DD80
4900
2D00
3600
3200
ENDCHAR
STARTCHAR uni02B8
ENCODING 696
SWIDTH 427 0
DWIDTH 6 0
BBX 6 8 0 1
BITMAP
EC
48
68
30
30
10
20
C0
ENDCHAR
STARTCHAR uni02B9
ENCODING 697
SWIDTH 296 0
DWIDTH 4 0
BBX 2 4 1 6
BITMAP
40
40
80
80
ENDCHAR
STARTCHAR uni02BA
ENCODING 698
SWIDTH 456 0
DWIDTH 6 0
BBX 4 4 1 6
BITMAP
50
50
90
A0
ENDCHAR
STARTCHAR uni02BB
ENCODING 699
SWIDTH 245 0
DWIDTH 3 0
BBX 2 4 1 7
BITMAP
40
80
C0
C0
ENDCHAR
STARTCHAR uni02BC
ENCODING 700
SWIDTH 244 0
DWIDTH 3 0
BBX 2 4 1 7
BITMAP
80
C0
40
80
ENDCHAR
STARTCHAR uni02BD
ENCODING 701
SWIDTH 244 0
DWIDTH 3 0
BBX 2 4 1 7
BITMAP
C0
C0
80
40
ENDCHAR
STARTCHAR uni02BE
ENCODING 702
SWIDTH 203 0
DWIDTH 3 0
BBX 2 3 0 7
BITMAP
C0
40
C0
ENDCHAR
STARTCHAR uni02BF
ENCODING 703
SWIDTH 203 0
DWIDTH 3 0
BBX 2 3 0 7
BITMAP
40
80
40
ENDCHAR
STARTCHAR uni02C0
ENCODING 704
SWIDTH 364 0
DWIDTH 5 0
BBX 4 5 1 5
BITMAP
E0
A0
30
20
40
ENDCHAR
STARTCHAR uni02C1
ENCODING 705
SWIDTH 364 0
DWIDTH 5 0
BBX 4 5 0 5
BITMAP
30
50
C0
40
30
ENDCHAR
STARTCHAR uni02C2
ENCODING 706
SWIDTH 324 0
DWIDTH 5 0
BBX 3 5 1 6
BITMAP
20
40
80
40
20
ENDCHAR
STARTCHAR uni02C3
ENCODING 707
SWIDTH 324 0
DWIDTH 5 0
BBX 3 5 1 6
BITMAP
80
C0
20
C0
80
ENDCHAR
STARTCHAR uni02C4
ENCODING 708
SWIDTH 324 0
DWIDTH 5 0
BBX 5 4 0 7
BITMAP
20
60
50
98
ENDCHAR
STARTCHAR uni02C5
ENCODING 709
SWIDTH 324 0
DWIDTH 5 0
BBX 5 4 0 7
BITMAP
88
90
60
20
ENDCHAR
STARTCHAR circumflex
ENCODING 710
SWIDTH 342 0
DWIDTH 5 0
BBX 4 2 0 8
BITMAP
20
D0
ENDCHAR
STARTCHAR caron
ENCODING 711
SWIDTH 342 0
DWIDTH 5 0
BBX 4 2 0 8
BITMAP
D0
20
ENDCHAR
STARTCHAR uni02C8
ENCODING 712
SWIDTH 284 0
DWIDTH 4 0
BBX 1 4 1 7
BITMAP
80
80
80
80
ENDCHAR
STARTCHAR uni02C9
ENCODING 713
SWIDTH 350 0
DWIDTH 5 0
BBX 4 1 0 8
BITMAP
F0
ENDCHAR
STARTCHAR uni02CA
ENCODING 714
SWIDTH 222 0
DWIDTH 3 0
BBX 3 2 0 8
BITMAP
60
C0
ENDCHAR
STARTCHAR uni02CB
ENCODING 715
SWIDTH 222 0
DWIDTH 3 0
BBX 3 2 0 8
BITMAP
C0
20
ENDCHAR
STARTCHAR uni02CC
ENCODING 716
SWIDTH 284 0
DWIDTH 4 0
BBX 1 4 1 -3
BITMAP
80
80
80
80
ENDCHAR
STARTCHAR uni02CD
ENCODING 717
SWIDTH 342 0
DWIDTH 5 0
BBX 5 1 0 -2
BITMAP
F8
ENDCHAR
STARTCHAR uni02CE
ENCODING 718
SWIDTH 222 0
DWIDTH 3 0
BBX 3 2 0 -2
BITMAP
C0
20
ENDCHAR
STARTCHAR uni02CF
ENCODING 719
SWIDTH 223 0
DWIDTH 3 0
BBX 3 2 0 -2
BITMAP
60
C0
ENDCHAR
STARTCHAR uni02D0
ENCODING 720
SWIDTH 341 0
DWIDTH 5 0
BBX 3 6 1 0
BITMAP
E0
40
00
00
40
E0
ENDCHAR
STARTCHAR uni02D1
ENCODING 721
SWIDTH 341 0
DWIDTH 5 0
BBX 3 2 1 4
BITMAP
E0
40
ENDCHAR
STARTCHAR uni02D2
ENCODING 722
SWIDTH 341 0
DWIDTH 5 0
BBX 3 5 1 1
BITMAP
C0
20
20
20
C0
ENDCHAR
STARTCHAR uni02D3
ENCODING 723
SWIDTH 341 0
DWIDTH 5 0
BBX 3 5 1 1
BITMAP
60
80
80
80
60
ENDCHAR
STARTCHAR uni02D4
ENCODING 724
SWIDTH 341 0
DWIDTH 5 0
BBX 3 3 1 2
BITMAP
40
40
E0
ENDCHAR
STARTCHAR uni02D5
ENCODING 725
SWIDTH 341 0
DWIDTH 5 0
BBX 3 3 1 2
BITMAP
E0
40
40
ENDCHAR
STARTCHAR uni02D6
ENCODING 726
SWIDTH 341 0
DWIDTH 5 0
BBX 3 3 1 2
BITMAP
40
E0
40
ENDCHAR
STARTCHAR uni02D7
ENCODING 727
SWIDTH 341 0
DWIDTH 5 0
BBX 3 1 1 3
BITMAP
E0
ENDCHAR
STARTCHAR breve
ENCODING 728
SWIDTH 353 0
DWIDTH 5 0
BBX 5 2 0 8
BITMAP
88
70
ENDCHAR
STARTCHAR dotaccent
ENCODING 729
SWIDTH 194 0
DWIDTH 3 0
BBX 1 2 1 8
BITMAP
80
80
ENDCHAR
STARTCHAR ring
ENCODING 730
SWIDTH 265 0
DWIDTH 4 0
BBX 3 3 0 7
BITMAP
60
A0
60
ENDCHAR
STARTCHAR ogonek
ENCODING 731
SWIDTH 277 0
DWIDTH 4 0
BBX 3 3 0 -3
BITMAP
60
80
60
ENDCHAR
STARTCHAR tilde
ENCODING 732
SWIDTH 381 0
DWIDTH 5 0
BBX 5 2 0 8
BITMAP
68
90
ENDCHAR
STARTCHAR hungarumlaut
ENCODING 733
SWIDTH 350 0
DWIDTH 5 0
BBX 4 2 0 8
BITMAP
70
E0
ENDCHAR
STARTCHAR uni02DE
ENCODING 734
SWIDTH 205 0
DWIDTH 3 0
BBX 4 2 -1 3
BITMAP
D0
20
ENDCHAR
STARTCHAR uni02DF
ENCODING 735
SWIDTH 302 0
DWIDTH 4 0
BBX 4 3 0 7
BITMAP
F0
20
D0
ENDCHAR
STARTCHAR uni02E0
ENCODING 736
SWIDTH 413 0
DWIDTH 6 0
BBX 6 8 0 1
BITMAP
CC
48
68
30
30
30
30
30
ENDCHAR
STARTCHAR uni02E1
ENCODING 737
SWIDTH 244 0
DWIDTH 3 0
BBX 3 7 0 4
BITMAP
C0
40
40
40
40
40
E0
ENDCHAR
STARTCHAR uni02E2
ENCODING 738
SWIDTH 337 0
DWIDTH 5 0
BBX 4 5 0 4
BITMAP
70
D0
60
90
F0
ENDCHAR
STARTCHAR uni02E3
ENCODING 739
SWIDTH 445 0
DWIDTH 6 0
BBX 6 5 0 4
BITMAP
EC
30
10
38
DC
ENDCHAR
STARTCHAR uni02E4
ENCODING 740
SWIDTH 364 0
DWIDTH 5 0
BBX 4 7 1 4
BITMAP
F0
90
80
C0
20
20
70
ENDCHAR
STARTCHAR uni02E5
ENCODING 741
SWIDTH 423 0
DWIDTH 6 0
BBX 4 10 1 0
BITMAP
F0
10
10
10
10
10
10
10
10
10
ENDCHAR
STARTCHAR uni02E6
ENCODING 742
SWIDTH 414 0
DWIDTH 6 0
BBX 4 10 1 0
BITMAP
10
10
10
F0
10
10
10
10
10
10
ENDCHAR
STARTCHAR uni02E7
ENCODING 743
SWIDTH 414 0
DWIDTH 6 0
BBX 4 10 1 0
BITMAP
10
10
10
10
10
F0
10
10
10
10
ENDCHAR
STARTCHAR uni02E8
ENCODING 744
SWIDTH 414 0
DWIDTH 6 0
BBX 4 9 1 1
BITMAP
10
10
10
10
10
10
F0
10
10
ENDCHAR
STARTCHAR uni02E9
ENCODING 745
SWIDTH 414 0
DWIDTH 6 0
BBX 4 10 1 0
BITMAP
10
10
10
10
10
10
10
10
10
F0
ENDCHAR
STARTCHAR uni02EC
ENCODING 748
SWIDTH 341 0
DWIDTH 5 0
BBX 4 3 0 -2
BITMAP
D0
50
20
ENDCHAR
STARTCHAR uni02ED
ENCODING 749
SWIDTH 380 0
DWIDTH 5 0
BBX 4 3 1 8
BITMAP
F0
00
F0
ENDCHAR
STARTCHAR uni02F7
ENCODING 759
SWIDTH 381 0
DWIDTH 5 0
BBX 5 2 0 -2
BITMAP
68
90
ENDCHAR
STARTCHAR uni0300
ENCODING 768
SWIDTH 0 0
DWIDTH 0 0
BBX 3 2 -5 8
BITMAP
C0
60
ENDCHAR
STARTCHAR uni0301
ENCODING 769
SWIDTH 0 0
DWIDTH 0 0
BBX 2 2 -4 8
BITMAP
40
80
ENDCHAR
STARTCHAR uni0302
ENCODING 770
SWIDTH 0 0
DWIDTH 0 0
BBX 4 2 -5 8
BITMAP
60
90
ENDCHAR
STARTCHAR uni0303
ENCODING 771
SWIDTH 0 0
DWIDTH 0 0
BBX 4 2 -5 8
BITMAP
D0
B0
ENDCHAR
STARTCHAR uni0304
ENCODING 772
SWIDTH 0 0
DWIDTH 0 0
BBX 4 1 -5 8
BITMAP
F0
ENDCHAR
STARTCHAR uni0305
ENCODING 773
SWIDTH 0 0
DWIDTH 0 0
BBX 6 1 -6 8
BITMAP
FC
ENDCHAR
STARTCHAR uni0306
ENCODING 774
SWIDTH 0 0
DWIDTH 0 0
BBX 4 2 -5 8
BITMAP
90
E0
ENDCHAR
STARTCHAR uni0307
ENCODING 775
SWIDTH 0 0
DWIDTH 0 0
BBX 2 2 -4 8
BITMAP
80
C0
ENDCHAR
STARTCHAR uni0308
ENCODING 776
SWIDTH 0 0
DWIDTH 0 0
BBX 5 2 -6 8
BITMAP
48
C8
ENDCHAR
STARTCHAR uni0309
ENCODING 777
SWIDTH 0 0
DWIDTH 0 0
BBX 2 3 -4 7
BITMAP
C0
40
80
ENDCHAR
STARTCHAR uni030A
ENCODING 778
SWIDTH 0 0
DWIDTH 0 0
BBX 3 3 -5 7
BITMAP
60
A0
60
ENDCHAR
STARTCHAR uni030B
ENCODING 779
SWIDTH 0 0
DWIDTH 0 0
BBX 5 2 -5 8
BITMAP
78
E0
ENDCHAR
STARTCHAR uni030C
ENCODING 780
SWIDTH 0 0
DWIDTH 0 0
BBX 4 2 -5 8
BITMAP
90
60
ENDCHAR
STARTCHAR uni030D
ENCODING 781
SWIDTH 0 0
DWIDTH 0 0
BBX 1 3 -4 7
BITMAP
80
80
80
ENDCHAR
STARTCHAR uni030E
ENCODING 782
SWIDTH 0 0
DWIDTH 0 0
BBX 3 3 -5 7
BITMAP
A0
A0
A0
ENDCHAR
STARTCHAR uni030F
ENCODING 783
SWIDTH 0 0
DWIDTH 0 0
BBX 4 2 -6 8
BITMAP
E0
50
ENDCHAR
STARTCHAR uni0310
ENCODING 784
SWIDTH 0 0
DWIDTH 0 0
BBX 4 3 -5 8
BITMAP
60
D0
E0
ENDCHAR
STARTCHAR uni0311
ENCODING 785
SWIDTH 0 0
DWIDTH 0 0
BBX 4 2 -5 8
BITMAP
E0
90
ENDCHAR
STARTCHAR uni0312
ENCODING 786
SWIDTH 0 0
DWIDTH 0 0
BBX 2 3 -4 8
BITMAP
C0
C0
C0
ENDCHAR
STARTCHAR uni0313
ENCODING 787
SWIDTH 0 0
DWIDTH 0 0
BBX 2 4 -4 7
BITMAP
80
C0
40
80
ENDCHAR
STARTCHAR uni0314
ENCODING 788
SWIDTH 0 0
DWIDTH 0 0
BBX 2 4 -4 7
BITMAP
80
C0
80
40
ENDCHAR
STARTCHAR uni0315
ENCODING 789
SWIDTH 0 0
DWIDTH 0 0
BBX 1 3 -3 7
BITMAP
80
80
80
ENDCHAR
STARTCHAR uni0316
ENCODING 790
SWIDTH 0 0
DWIDTH 0 0
BBX 3 2 -5 -3
BITMAP
C0
60
ENDCHAR
STARTCHAR uni0317
ENCODING 791
SWIDTH 0 0
DWIDTH 0 0
BBX 2 2 -4 -3
BITMAP
40
80
ENDCHAR
STARTCHAR uni0318
ENCODING 792
SWIDTH 0 0
DWIDTH 0 0
BBX 2 3 -4 -4
BITMAP
40
C0
40
ENDCHAR
STARTCHAR uni0319
ENCODING 793
SWIDTH 0 0
DWIDTH 0 0
BBX 2 3 -4 -4
BITMAP
80
C0
80
ENDCHAR
STARTCHAR uni031A
ENCODING 794
SWIDTH 0 0
DWIDTH 0 0
BBX 3 3 -5 7
BITMAP
E0
20
20
ENDCHAR
STARTCHAR uni031B
ENCODING 795
SWIDTH 0 0
DWIDTH 0 0
BBX 3 3 -3 6
BITMAP
20
20
C0
ENDCHAR
STARTCHAR uni031C
ENCODING 796
SWIDTH 0 0
DWIDTH 0 0
BBX 2 3 -4 -4
BITMAP
C0
80
C0
ENDCHAR
STARTCHAR uni031D
ENCODING 797
SWIDTH 0 0
DWIDTH 0 0
BBX 3 2 -5 -3
BITMAP
40
E0
ENDCHAR
STARTCHAR uni031E
ENCODING 798
SWIDTH 0 0
DWIDTH 0 0
BBX 3 2 -5 -3
BITMAP
E0
40
ENDCHAR
STARTCHAR uni031F
ENCODING 799
SWIDTH 0 0
DWIDTH 0 0
BBX 3 3 -5 -4
BITMAP
40
E0
40
ENDCHAR
STARTCHAR uni0320
ENCODING 800
SWIDTH 0 0
DWIDTH 0 0
BBX 3 1 -5 -3
BITMAP
E0
ENDCHAR
STARTCHAR uni0321
ENCODING 801
SWIDTH 0 0
DWIDTH 0 0
BBX 4 4 -6 -4
BITMAP
10
10
90
E0
ENDCHAR
STARTCHAR uni0322
ENCODING 802
SWIDTH 0 0
DWIDTH 0 0
BBX 4 4 -3 -4
BITMAP
80
80
B0
60
ENDCHAR
STARTCHAR uni0323
ENCODING 803
SWIDTH 0 0
DWIDTH 0 0
BBX 2 2 -4 -3
BITMAP
80
C0
ENDCHAR
STARTCHAR uni0324
ENCODING 804
SWIDTH 0 0
DWIDTH 0 0
BBX 5 2 -6 -3
BITMAP
48
C8
ENDCHAR
STARTCHAR uni0325
ENCODING 805
SWIDTH 0 0
DWIDTH 0 0
BBX 3 3 -5 -4
BITMAP
60
A0
60
ENDCHAR
STARTCHAR uni0326
ENCODING 806
SWIDTH 0 0
DWIDTH 0 0
BBX 2 4 -4 -4
BITMAP
80
C0
40
80
ENDCHAR
STARTCHAR uni0327
ENCODING 807
SWIDTH 0 0
DWIDTH 0 0
BBX 2 4 -4 -3
BITMAP
80
C0
40
C0
ENDCHAR
STARTCHAR uni0328
ENCODING 808
SWIDTH 0 0
DWIDTH 0 0
BBX 3 3 -5 -3
BITMAP
40
80
60
ENDCHAR
STARTCHAR uni0329
ENCODING 809
SWIDTH 0 0
DWIDTH 0 0
BBX 1 3 -4 -3
BITMAP
80
80
80
ENDCHAR
STARTCHAR uni032A
ENCODING 810
SWIDTH 0 0
DWIDTH 0 0
BBX 4 2 -5 -3
BITMAP
F0
90
ENDCHAR
STARTCHAR uni032B
ENCODING 811
SWIDTH 0 0
DWIDTH 0 0
BBX 4 2 -5 -3
BITMAP
D0
F0
ENDCHAR
STARTCHAR uni032C
ENCODING 812
SWIDTH 0 0
DWIDTH 0 0
BBX 4 2 -5 -3
BITMAP
90
60
ENDCHAR
STARTCHAR uni032D
ENCODING 813
SWIDTH 0 0
DWIDTH 0 0
BBX 4 2 -5 -3
BITMAP
60
90
ENDCHAR
STARTCHAR uni032E
ENCODING 814
SWIDTH 0 0
DWIDTH 0 0
BBX 4 2 -5 -3
BITMAP
90
E0
ENDCHAR
STARTCHAR uni032F
ENCODING 815
SWIDTH 0 0
DWIDTH 0 0
BBX 4 2 -5 -3
BITMAP
E0
90
ENDCHAR
STARTCHAR uni0330
ENCODING 816
SWIDTH 0 0
DWIDTH 0 0
BBX 5 2 -6 -2
BITMAP
68
90
ENDCHAR
STARTCHAR uni0331
ENCODING 817
SWIDTH 0 0
DWIDTH 0 0
BBX 4 1 -5 -2
BITMAP
F0
ENDCHAR
STARTCHAR uni0332
ENCODING 818
SWIDTH 0 0
DWIDTH 0 0
BBX 7 1 -7 -2
BITMAP
FE
ENDCHAR
STARTCHAR uni0333
ENCODING 819
SWIDTH 0 0
DWIDTH 0 0
BBX 7 3 -7 -4
BITMAP
FE
00
FE
ENDCHAR
STARTCHAR uni0334
ENCODING 820
SWIDTH 0 0
DWIDTH 0 0
BBX 5 2 -6 3
BITMAP
68
98
ENDCHAR
STARTCHAR uni0335
ENCODING 821
SWIDTH 0 0
DWIDTH 0 0
BBX 4 1 -5 3
BITMAP
F0
ENDCHAR
STARTCHAR uni0336
ENCODING 822
SWIDTH 0 0
DWIDTH 0 0
BBX 7 1 -7 3
BITMAP
FE
ENDCHAR
STARTCHAR uni0337
ENCODING 823
SWIDTH 0 0
DWIDTH 0 0
BBX 4 3 -5 4
BITMAP
10
60
80
ENDCHAR
STARTCHAR uni0338
ENCODING 824
SWIDTH 0 0
DWIDTH 0 0
BBX 6 12 -6 -2
BITMAP
04
08
08
10
10
10
20
20
40
40
80
80
ENDCHAR
STARTCHAR uni0339
ENCODING 825
SWIDTH 0 0
DWIDTH 0 0
BBX 2 3 -4 -4
BITMAP
80
40
80
ENDCHAR
STARTCHAR uni033A
ENCODING 826
SWIDTH 0 0
DWIDTH 0 0
BBX 4 2 -5 -3
BITMAP
90
F0
ENDCHAR
STARTCHAR uni033B
ENCODING 827
SWIDTH 0 0
DWIDTH 0 0
BBX 2 3 -4 -4
BITMAP
C0
C0
C0
ENDCHAR
STARTCHAR uni033C
ENCODING 828
SWIDTH 0 0
DWIDTH 0 0
BBX 4 2 -5 -3
BITMAP
B0
40
ENDCHAR
STARTCHAR uni033D
ENCODING 829
SWIDTH 0 0
DWIDTH 0 0
BBX 3 2 -5 8
BITMAP
E0
E0
ENDCHAR
STARTCHAR uni033E
ENCODING 830
SWIDTH 0 0
DWIDTH 0 0
BBX 2 5 -4 7
BITMAP
40
80
80
40
80
ENDCHAR
STARTCHAR uni033F
ENCODING 831
SWIDTH 0 0
DWIDTH 0 0
BBX 6 3 -6 7
BITMAP
FC
00
FC
ENDCHAR
STARTCHAR uni0346
ENCODING 838
SWIDTH 0 0
DWIDTH 0 0
BBX 4 2 -5 8
BITMAP
F0
90
ENDCHAR
STARTCHAR uni0347
ENCODING 839
SWIDTH 0 0
DWIDTH 0 0
BBX 4 2 -5 -3
BITMAP
F0
F0
ENDCHAR
STARTCHAR uni034C
ENCODING 844
SWIDTH 0 0
DWIDTH 0 0
BBX 4 4 -5 8
BITMAP
D0
B0
D0
B0
ENDCHAR
STARTCHAR uni034D
ENCODING 845
SWIDTH 0 0
DWIDTH 0 0
BBX 7 3 -7 -4
BITMAP
44
FE
64
ENDCHAR
STARTCHAR uni0359
ENCODING 857
SWIDTH 0 0
DWIDTH 0 0
BBX 4 5 -5 -5
BITMAP
40
D0
60
F0
40
ENDCHAR
STARTCHAR uni035C
ENCODING 860
SWIDTH 0 0
DWIDTH 0 0
BBX 10 3 -5 -3
BITMAP
8040
4080
3F00
ENDCHAR
STARTCHAR uni0360
ENCODING 864
SWIDTH 0 0
DWIDTH 0 0
BBX 8 2 -4 8
BITMAP
71
8E
ENDCHAR
STARTCHAR uni0361
ENCODING 865
SWIDTH 0 0
DWIDTH 0 0
BBX 6 2 -3 8
BITMAP
78
84
ENDCHAR
STARTCHAR uni0362
ENCODING 866
SWIDTH 0 0
DWIDTH 0 0
BBX 11 3 -5 -4
BITMAP
0040
FFE0
0040
ENDCHAR
STARTCHAR uni037E
ENCODING 894
SWIDTH 261 0
DWIDTH 4 0
BBX 2 9 1 -2
BITMAP
C0
00
00
00
00
00
C0
40
80
ENDCHAR
STARTCHAR tonos
ENCODING 900
SWIDTH 165 0
DWIDTH 2 0
BBX 2 2 0 8
BITMAP
40
80
ENDCHAR
STARTCHAR dieresistonos
ENCODING 901
SWIDTH 426 0
DWIDTH 6 0
BBX 6 2 0 8
BITMAP
FC
20
ENDCHAR
STARTCHAR Alphatonos
ENCODING 902
SWIDTH 718 0
DWIDTH 10 0
BBX 10 10 0 0
BITMAP
4000
4800
4C00
1400
1600
1200
3F00
2100
4180
E3C0
ENDCHAR
STARTCHAR anoteleia
ENCODING 903
SWIDTH 261 0
DWIDTH 4 0
BBX 2 1 1 6
BITMAP
C0
ENDCHAR
STARTCHAR Epsilontonos
ENCODING 904
SWIDTH 745 0
DWIDTH 10 0
BBX 10 10 0 0
BITMAP
8000
BFC0
8840
0880
0880
0F00
0800
0840
0840
3FC0
ENDCHAR
STARTCHAR Etatonos
ENCODING 905
SWIDTH 896 0
DWIDTH 13 0
BBX 12 10 0 0
BITMAP
8000
BCF0
8860
0860
0860
0FE0
0860
0860
0860
3CF0
ENDCHAR
STARTCHAR Iotatonos
ENCODING 906
SWIDTH 478 0
DWIDTH 7 0
BBX 6 10 0 0
BITMAP
80
BC
88
08
08
08
08
08
08
3C
ENDCHAR
STARTCHAR Omicrontonos
ENCODING 908
SWIDTH 806 0
DWIDTH 11 0
BBX 11 10 0 0
BITMAP
8000
8F00
90C0
2040
2060
2060
2040
2040
10C0
0F00
ENDCHAR
STARTCHAR Upsilontonos
ENCODING 910
SWIDTH 787 0
DWIDTH 11 0
BBX 11 10 0 0
BITMAP
8000
BCE0
9840
0C80
0500
0700
0200
0200
0200
0F80
ENDCHAR
STARTCHAR Omegatonos
ENCODING 911
SWIDTH 830 0
DWIDTH 12 0
BBX 11 10 0 0
BITMAP
8F00
98C0
B040
2040
2060
2040
3040
50A0
4920
39E0
ENDCHAR
STARTCHAR iotadieresistonos
ENCODING 912
SWIDTH 259 0
DWIDTH 4 0
BBX 5 11 -1 0
BITMAP
30
E8
20
00
20
20
20
20
20
28
30
ENDCHAR
STARTCHAR Alpha
ENCODING 913
SWIDTH 718 0
DWIDTH 10 0
BBX 10 9 0 0
BITMAP
0800
0C00
1400
1600
1200
3F00
2100
4180
E3C0
ENDCHAR
STARTCHAR Beta
ENCODING 914
SWIDTH 618 0
DWIDTH 9 0
BBX 8 9 0 0
BITMAP
FE
23
23
22
3E
23
21
21
FE
ENDCHAR
STARTCHAR Gamma
ENCODING 915
SWIDTH 569 0
DWIDTH 8 0
BBX 7 10 1 0
BITMAP
FE
42
42
40
40
40
40
40
40
F0
ENDCHAR
STARTCHAR Delta
ENCODING 916
SWIDTH 667 0
DWIDTH 9 0
BBX 9 10 0 0
BITMAP
0800
0C00
1400
1400
2600
2200
2300
4300
4100
FF80
ENDCHAR
STARTCHAR Epsilon
ENCODING 917
SWIDTH 626 0
DWIDTH 9 0
BBX 8 9 0 0
BITMAP
FF
21
22
22
3E
20
21
21
FF
ENDCHAR
STARTCHAR Zeta
ENCODING 918
SWIDTH 594 0
DWIDTH 8 0
BBX 8 9 0 0
BITMAP
7F
42
04
0C
18
10
21
61
FF
ENDCHAR
STARTCHAR Eta
ENCODING 919
SWIDTH 777 0
DWIDTH 11 0
BBX 10 9 0 0
BITMAP
FBC0
2080
2080
2080
3F80
2080
2080
2080
FBC0
ENDCHAR
STARTCHAR Theta
ENCODING 920
SWIDTH 738 0
DWIDTH 10 0
BBX 9 10 1 0
BITMAP
3C00
6700
C100
8100
A580
BD80
A500
C100
6300
3C00
ENDCHAR
STARTCHAR Iota
ENCODING 921
SWIDTH 357 0
DWIDTH 5 0
BBX 5 9 0 0
BITMAP
F8
20
20
20
20
20
20
20
F8
ENDCHAR
STARTCHAR Kappa
ENCODING 922
SWIDTH 702 0
DWIDTH 10 0
BBX 10 9 0 0
BITMAP
FB80
2200
2400
2800
3800
2C00
2600
2300
FBC0
ENDCHAR
STARTCHAR Lambda
ENCODING 923
SWIDTH 710 0
DWIDTH 10 0
BBX 10 10 0 0
BITMAP
0800
0C00
1400
1600
1200
2300
2300
4100
4180
E3C0
ENDCHAR
STARTCHAR Mu
ENCODING 924
SWIDTH 895 0
DWIDTH 13 0
BBX 12 9 0 0
BITMAP
E070
3060
30E0
38E0
2960
2D60
2660
2660
F4F0
ENDCHAR
STARTCHAR Nu
ENCODING 925
SWIDTH 742 0
DWIDTH 10 0
BBX 10 9 0 0
BITMAP
E1C0
3080
3880
2C80
2480
2680
2380
2180
F080
ENDCHAR
STARTCHAR Xi
ENCODING 926
SWIDTH 648 0
DWIDTH 9 0
BBX 7 10 1 0
BITMAP
FE
82
82
44
7C
44
00
82
82
FE
ENDCHAR
STARTCHAR Omicron
ENCODING 927
SWIDTH 738 0
DWIDTH 10 0
BBX 9 9 1 0
BITMAP
3C00
4300
8100
8180
8180
8180
C100
4300
3C00
ENDCHAR
STARTCHAR Pi
ENCODING 928
SWIDTH 759 0
DWIDTH 11 0
BBX 10 10 0 0
BITMAP
FFC0
2180
2180
2180
2180
2180
2180
2180
2180
F3C0
ENDCHAR
STARTCHAR Rho
ENCODING 929
SWIDTH 569 0
DWIDTH 8 0
BBX 7 9 1 0
BITMAP
FC
46
46
44
78
40
40
40
F0
ENDCHAR
STARTCHAR Sigma
ENCODING 931
SWIDTH 604 0
DWIDTH 8 0
BBX 8 10 0 0
BITMAP
FF
61
21
10
18
08
10
21
41
FF
ENDCHAR
STARTCHAR Tau
ENCODING 932
SWIDTH 603 0
DWIDTH 8 0
BBX 8 9 0 0
BITMAP
FF
89
08
08
08
08
08
08
3C
ENDCHAR
STARTCHAR Upsilon
ENCODING 933
SWIDTH 647 0
DWIDTH 9 0
BBX 9 9 0 0
BITMAP
F380
2100
3200
1400
1C00
0800
0800
0800
1E00
ENDCHAR
STARTCHAR Phi
ENCODING 934
SWIDTH 718 0
DWIDTH 10 0
BBX 10 10 0 0
BITMAP
1E00
0C00
7F80
4C80
CCC0
4C80
4C80
3F00
0C00
1E00
ENDCHAR
STARTCHAR Chi
ENCODING 935
SWIDTH 664 0
DWIDTH 9 0
BBX 9 9 0 0
BITMAP
F380
3200
1200
1C00
0800
1400
2600
2300
E780
ENDCHAR
STARTCHAR Psi
ENCODING 936
SWIDTH 720 0
DWIDTH 10 0
BBX 10 10 0 0
BITMAP
DEC0
4C80
4C80
4C80
4C80
6D80
3F00
0C00
0C00
1E00
ENDCHAR
STARTCHAR Omega
ENCODING 937
SWIDTH 777 0
DWIDTH 11 0
BBX 9 10 1 0
BITMAP
3E00
6300
C180
C180
C180
C180
4100
C380
A280
F780
ENDCHAR
STARTCHAR Iotadieresis
ENCODING 938
SWIDTH 357 0
DWIDTH 5 0
BBX 5 12 0 0
BITMAP
88
D8
00
F8
20
20
20
20
20
20
20
F8
ENDCHAR
STARTCHAR Upsilondieresis
ENCODING 939
SWIDTH 647 0
DWIDTH 9 0
BBX 9 12 0 0
BITMAP
1200
3200
0000
F380
2100
3200
1400
1C00
0800
0800
0800
1E00
ENDCHAR
STARTCHAR alphatonos
ENCODING 940
SWIDTH 561 0
DWIDTH 8 0
BBX 8 11 0 0
BITMAP
08
10
10
00
3A
4A
84
84
84
4D
76
ENDCHAR
STARTCHAR epsilontonos
ENCODING 941
SWIDTH 381 0
DWIDTH 5 0
BBX 4 11 1 0
BITMAP
30
20
20
00
F0
90
80
60
80
90
F0
ENDCHAR
STARTCHAR etatonos
ENCODING 942
SWIDTH 510 0
DWIDTH 7 0
BBX 6 14 0 -3
BITMAP
08
08
08
00
CC
D4
24
24
24
44
44
04
04
04
ENDCHAR
STARTCHAR iotatonos
ENCODING 943
SWIDTH 259 0
DWIDTH 4 0
BBX 3 11 1 0
BITMAP
40
80
80
00
80
80
80
80
80
A0
C0
ENDCHAR
STARTCHAR upsilondieresistonos
ENCODING 944
SWIDTH 491 0
DWIDTH 7 0
BBX 6 11 0 0
BITMAP
10
5C
20
00
C8
C4
44
44
44
4C
38
ENDCHAR
STARTCHAR alpha
ENCODING 945
SWIDTH 561 0
DWIDTH 8 0
BBX 8 7 0 0
BITMAP
3A
4A
84
84
84
4D
76
ENDCHAR
STARTCHAR beta
ENCODING 946
SWIDTH 530 0
DWIDTH 7 0
BBX 6 14 1 -3
BITMAP
38
48
44
84
88
B0
88
84
84
CC
B8
80
80
80
ENDCHAR
STARTCHAR gamma
ENCODING 947
SWIDTH 466 0
DWIDTH 7 0
BBX 6 10 0 -3
BITMAP
C4
AC
28
28
30
10
20
20
20
20
ENDCHAR
STARTCHAR delta
ENCODING 948
SWIDTH 479 0
DWIDTH 7 0
BBX 6 11 0 0
BITMAP
38
4C
20
10
38
44
84
84
84
4C
78
ENDCHAR
STARTCHAR epsilon
ENCODING 949
SWIDTH 381 0
DWIDTH 5 0
BBX 4 7 1 0
BITMAP
F0
90
80
60
80
90
F0
ENDCHAR
STARTCHAR zeta
ENCODING 950
SWIDTH 386 0
DWIDTH 5 0
BBX 6 14 0 -3
BITMAP
20
24
38
30
20
40
80
80
80
60
38
04
08
30
ENDCHAR
STARTCHAR eta
ENCODING 951
SWIDTH 510 0
DWIDTH 7 0
BBX 6 10 0 -3
BITMAP
CC
D4
24
24
24
44
44
04
04
04
ENDCHAR
STARTCHAR theta
ENCODING 952
SWIDTH 514 0
DWIDTH 7 0
BBX 6 11 1 0
BITMAP
70
48
88
84
84
FC
84
84
88
C8
70
ENDCHAR
STARTCHAR iota
ENCODING 953
SWIDTH 259 0
DWIDTH 4 0
BBX 3 7 1 0
BITMAP
80
80
80
80
80
A0
C0
ENDCHAR
STARTCHAR kappa
ENCODING 954
SWIDTH 495 0
DWIDTH 7 0
BBX 7 7 0 0
BITMAP
C4
EC
30
30
30
6A
4C
ENDCHAR
STARTCHAR lambda
ENCODING 955
SWIDTH 506 0
DWIDTH 7 0
BBX 7 10 0 0
BITMAP
30
50
10
10
10
28
28
68
4A
C6
ENDCHAR
STARTCHAR mu
ENCODING 956
SWIDTH 552 0
DWIDTH 8 0
BBX 7 10 1 -3
BITMAP
88
88
88
88
88
9A
EC
80
80
80
ENDCHAR
STARTCHAR nu
ENCODING 957
SWIDTH 453 0
DWIDTH 6 0
BBX 6 7 0 0
BITMAP
CC
E4
24
2C
28
30
30
ENDCHAR
STARTCHAR xi
ENCODING 958
SWIDTH 390 0
DWIDTH 5 0
BBX 6 14 0 -3
BITMAP
40
48
30
40
40
38
40
80
80
70
38
04
08
30
ENDCHAR
STARTCHAR omicron
ENCODING 959
SWIDTH 475 0
DWIDTH 7 0
BBX 6 7 0 0
BITMAP
38
44
84
84
84
4C
38
ENDCHAR
STARTCHAR pi
ENCODING 960
SWIDTH 591 0
DWIDTH 8 0
BBX 8 7 0 0
BITMAP
7F
94
14
24
24
25
46
ENDCHAR
STARTCHAR rho
ENCODING 961
SWIDTH 515 0
DWIDTH 7 0
BBX 6 10 1 -3
BITMAP
78
48
84
84
84
C8
B0
80
80
80
ENDCHAR
STARTCHAR uni03C2
ENCODING 962
SWIDTH 377 0
DWIDTH 5 0
BBX 5 10 0 -3
BITMAP
38
40
80
80
40
70
18
08
08
30
ENDCHAR
STARTCHAR sigma
ENCODING 963
SWIDTH 545 0
DWIDTH 8 0
BBX 8 7 0 0
BITMAP
3F
44
84
84
84
44
38
ENDCHAR
STARTCHAR tau
ENCODING 964
SWIDTH 392 0
DWIDTH 5 0
BBX 6 7 0 0
BITMAP
7C
A0
20
20
20
28
30
ENDCHAR
STARTCHAR upsilon
ENCODING 965
SWIDTH 491 0
DWIDTH 7 0
BBX 6 7 0 0
BITMAP
C8
C4
44
44
44
4C
38
ENDCHAR
STARTCHAR phi
ENCODING 966
SWIDTH 603 0
DWIDTH 8 0
BBX 7 10 1 -3
BITMAP
6C
92
92
92
A2
E4
78
20
30
30
ENDCHAR
STARTCHAR chi
ENCODING 967
SWIDTH 462 0
DWIDTH 6 0
BBX 8 10 -1 -3
BITMAP
63
92
14
14
08
18
18
28
65
C6
ENDCHAR
STARTCHAR psi
ENCODING 968
SWIDTH 620 0
DWIDTH 9 0
BBX 8 13 0 -3
BITMAP
08
08
08
CA
C9
49
49
49
6A
3C
08
08
08
ENDCHAR
STARTCHAR omega
ENCODING 969
SWIDTH 660 0
DWIDTH 9 0
BBX 9 7 0 0
BITMAP
2300
4900
8880
8880
8880
4900
7700
ENDCHAR
STARTCHAR iotadieresis
ENCODING 970
SWIDTH 259 0
DWIDTH 4 0
BBX 5 10 -1 0
BITMAP
D8
00
00
20
20
20
20
20
28
30
ENDCHAR
STARTCHAR upsilondieresis
ENCODING 971
SWIDTH 491 0
DWIDTH 7 0
BBX 6 10 0 0
BITMAP
48
00
00
C8
C4
44
44
44
4C
38
ENDCHAR
STARTCHAR omicrontonos
ENCODING 972
SWIDTH 475 0
DWIDTH 7 0
BBX 6 11 0 0
BITMAP
08
10
10
00
38
44
84
84
84
4C
38
ENDCHAR
STARTCHAR upsilontonos
ENCODING 973
SWIDTH 491 0
DWIDTH 7 0
BBX 6 11 0 0
BITMAP
18
10
10
00
C8
C4
44
44
44
4C
38
ENDCHAR
STARTCHAR omegatonos
ENCODING 974
SWIDTH 660 0
DWIDTH 9 0
BBX 9 11 0 0
BITMAP
0C00
0800
0800
0000
2300
4900
8880
8880
8880
4900
7700
ENDCHAR
STARTCHAR uni03D0
ENCODING 976
SWIDTH 438 0
DWIDTH 6 0
BBX 5 11 1 0
BITMAP
30
48
88
C8
B0
80
F0
88
88
C8
70
ENDCHAR
STARTCHAR uni03D1
ENCODING 977
SWIDTH 541 0
DWIDTH 8 0
BBX 7 11 0 0
BITMAP
38
24
44
44
22
1E
62
A2
24
24
38
ENDCHAR
STARTCHAR uni03D2
ENCODING 978
SWIDTH 616 0
DWIDTH 9 0
BBX 9 10 0 0
BITMAP
6300
B580
1500
1800
0800
0800
0800
0800
1800
3C00
ENDCHAR
STARTCHAR uni03D5
ENCODING 981
SWIDTH 575 0
DWIDTH 8 0
BBX 8 13 0 -3
BITMAP
08
08
08
3C
6A
49
89
91
52
3C
10
10
10
ENDCHAR
STARTCHAR uni03D6
ENCODING 982
SWIDTH 821 0
DWIDTH 12 0
BBX 12 7 0 0
BITMAP
7FF0
9040
2640
2640
2440
2640
1B80
ENDCHAR
STARTCHAR uni03D8
ENCODING 984
SWIDTH 627 0
DWIDTH 9 0
BBX 8 10 0 0
BITMAP
3E
63
41
C1
41
41
62
1C
08
3C
ENDCHAR
STARTCHAR uni03D9
ENCODING 985
SWIDTH 475 0
DWIDTH 7 0
BBX 6 10 0 -3
BITMAP
38
44
84
84
84
4C
38
10
10
30
ENDCHAR
STARTCHAR uni03DA
ENCODING 986
SWIDTH 578 0
DWIDTH 8 0
BBX 7 10 0 0
BITMAP
3E
62
42
40
C0
40
60
3C
0C
1E
ENDCHAR
STARTCHAR uni03DB
ENCODING 987
SWIDTH 490 0
DWIDTH 7 0
BBX 7 10 0 -3
BITMAP
3E
40
80
80
40
70
38
08
08
30
ENDCHAR
STARTCHAR uni03DC
ENCODING 988
SWIDTH 588 0
DWIDTH 8 0
BBX 8 9 0 0
BITMAP
FF
21
22
22
3E
20
20
20
F8
ENDCHAR
STARTCHAR uni03DD
ENCODING 989
SWIDTH 386 0
DWIDTH 5 0
BBX 7 10 -2 -3
BITMAP
1E
10
10
10
1C
10
10
10
A0
60
ENDCHAR
STARTCHAR uni03DE
ENCODING 990
SWIDTH 525 0
DWIDTH 7 0
BBX 7 10 0 0
BITMAP
38
10
20
20
40
FE
04
04
08
1C
ENDCHAR
STARTCHAR uni03DF
ENCODING 991
SWIDTH 434 0
DWIDTH 6 0
BBX 6 10 0 0
BITMAP
C0
C0
40
40
58
78
08
10
14
08
ENDCHAR
STARTCHAR uni03E0
ENCODING 992
SWIDTH 697 0
DWIDTH 10 0
BBX 10 10 0 0
BITMAP
1800
0800
0C00
1400
1600
2600
2B00
4900
5180
93C0
ENDCHAR
STARTCHAR uni03E1
ENCODING 993
SWIDTH 458 0
DWIDTH 6 0
BBX 6 13 0 -3
BITMAP
80
E0
30
10
18
E8
04
1C
24
04
04
04
04
ENDCHAR
STARTCHAR uni03F0
ENCODING 1008
SWIDTH 504 0
DWIDTH 7 0
BBX 7 7 0 0
BITMAP
46
A4
28
38
38
2A
46
ENDCHAR
STARTCHAR uni03F1
ENCODING 1009
SWIDTH 467 0
DWIDTH 7 0
BBX 5 10 1 -3
BITMAP
70
88
88
88
F0
80
C0
70
10
60
ENDCHAR
STARTCHAR uni03F4
ENCODING 1012
SWIDTH 737 0
DWIDTH 10 0
BBX 9 10 1 0
BITMAP
3C00
6300
C100
8100
FF80
8180
8100
C100
6200
3C00
ENDCHAR
STARTCHAR uni03F5
ENCODING 1013
SWIDTH 380 0
DWIDTH 5 0
BBX 4 7 1 0
BITMAP
70
90
80
E0
80
90
70
ENDCHAR
STARTCHAR uni03F6
ENCODING 1014
SWIDTH 382 0
DWIDTH 5 0
BBX 5 7 0 0
BITMAP
F0
90
08
78
08
90
70
ENDCHAR
STARTCHAR uni0400
ENCODING 1024
SWIDTH 626 0
DWIDTH 9 0
BBX 8 12 0 0
BITMAP
18
0C
00
FF
21
22
22
3E
20
21
21
FF
ENDCHAR
STARTCHAR uni0401
ENCODING 1025
SWIDTH 626 0
DWIDTH 9 0
BBX 8 12 0 0
BITMAP
22
36
00
FF
21
22
22
3E
20
21
21
FF
ENDCHAR
STARTCHAR uni0402
ENCODING 1026
SWIDTH 731 0
DWIDTH 10 0
BBX 10 9 0 0
BITMAP
FF00
8880
0800
0F80
08C0
08C0
08C0
0AC0
3B80
ENDCHAR
STARTCHAR uni0403
ENCODING 1027
SWIDTH 548 0
DWIDTH 8 0
BBX 6 12 1 0
BITMAP
18
20
00
FC
44
44
40
40
40
40
40
F0
ENDCHAR
STARTCHAR uni0404
ENCODING 1028
SWIDTH 668 0
DWIDTH 9 0
BBX 8 9 1 0
BITMAP
3E
42
81
FC
80
80
C1
42
3C
ENDCHAR
STARTCHAR uni0405
ENCODING 1029
SWIDTH 504 0
DWIDTH 7 0
BBX 7 9 0 0
BITMAP
3C
44
44
60
38
0C
86
44
7C
ENDCHAR
STARTCHAR uni0406
ENCODING 1030
SWIDTH 357 0
DWIDTH 5 0
BBX 5 9 0 0
BITMAP
F8
20
20
20
20
20
20
20
F8
ENDCHAR
STARTCHAR uni0407
ENCODING 1031
SWIDTH 357 0
DWIDTH 5 0
BBX 5 12 0 0
BITMAP
88
D8
00
F8
20
20
20
20
20
20
20
F8
ENDCHAR
STARTCHAR uni0408
ENCODING 1032
SWIDTH 396 0
DWIDTH 6 0
BBX 5 9 0 0
BITMAP
78
10
10
10
10
10
10
90
E0
ENDCHAR
STARTCHAR uni0409
ENCODING 1033
SWIDTH 924 0
DWIDTH 13 0
BBX 13 9 0 0
BITMAP
3F80
1300
1300
13E0
1310
1318
2310
A310
C7E0
ENDCHAR
STARTCHAR uni040A
ENCODING 1034
SWIDTH 1013 0
DWIDTH 14 0
BBX 14 9 0 0
BITMAP
FBC0
2080
2080
2080
3FF0
208C
208C
208C
FBF8
ENDCHAR
STARTCHAR uni040B
ENCODING 1035
SWIDTH 761 0
DWIDTH 11 0
BBX 10 9 0 0
BITMAP
FF00
8880
0800
0F80
0880
0880
0880
0880
3DC0
ENDCHAR
STARTCHAR uni040C
ENCODING 1036
SWIDTH 658 0
DWIDTH 9 0
BBX 8 12 1 0
BITMAP
0C
10
00
E3
45
44
48
78
48
44
46
F3
ENDCHAR
STARTCHAR uni040D
ENCODING 1037
SWIDTH 780 0
DWIDTH 11 0
BBX 10 12 0 0
BITMAP
1800
0400
0000
FBC0
2080
2180
2280
2480
2880
3080
2080
FBC0
ENDCHAR
STARTCHAR uni040E
ENCODING 1038
SWIDTH 625 0
DWIDTH 9 0
BBX 9 13 0 0
BITMAP
3200
2200
1C00
0000
F380
6100
2200
1200
1400
0C00
0800
4800
7000
ENDCHAR
STARTCHAR uni040F
ENCODING 1039
SWIDTH 759 0
DWIDTH 11 0
BBX 10 12 0 -3
BITMAP
F3C0
2180
2180
2180
2180
2180
2180
2180
FFC0
0400
0400
0400
ENDCHAR
STARTCHAR uni0410
ENCODING 1040
SWIDTH 718 0
DWIDTH 10 0
BBX 10 9 0 0
BITMAP
0800
0C00
1400
1600
1200
3F00
2100
4180
E3C0
ENDCHAR
STARTCHAR uni0411
ENCODING 1041
SWIDTH 617 0
DWIDTH 9 0
BBX 7 9 1 0
BITMAP
FC
42
40
78
46
42
42
46
FC
ENDCHAR
STARTCHAR uni0412
ENCODING 1042
SWIDTH 618 0
DWIDTH 9 0
BBX 8 9 0 0
BITMAP
FE
23
23
22
3E
23
21
21
FE
ENDCHAR
STARTCHAR uni0413
ENCODING 1043
SWIDTH 548 0
DWIDTH 8 0
BBX 6 9 1 0
BITMAP
FC
44
44
40
40
40
40
40
F0
ENDCHAR
STARTCHAR uni0414
ENCODING 1044
SWIDTH 663 0
DWIDTH 9 0
BBX 9 12 0 -3
BITMAP
3F80
1200
1200
2200
2200
2200
2200
4200
FF80
8080
8080
8080
ENDCHAR
STARTCHAR uni0415
ENCODING 1045
SWIDTH 626 0
DWIDTH 9 0
BBX 8 9 0 0
BITMAP
FF
21
22
22
3E
20
21
21
FF
ENDCHAR
STARTCHAR uni0416
ENCODING 1046
SWIDTH 937 0
DWIDTH 13 0
BBX 13 9 0 0
BITMAP
C798
A228
1220
1240
0F80
1240
3260
2220
E798
ENDCHAR
STARTCHAR uni0417
ENCODING 1047
SWIDTH 545 0
DWIDTH 8 0
BBX 7 9 0 0
BITMAP
7C
46
46
1C
04
02
02
C6
3C
ENDCHAR
STARTCHAR uni0418
ENCODING 1048
SWIDTH 780 0
DWIDTH 11 0
BBX 10 9 0 0
BITMAP
FBC0
2080
2180
2280
2480
2880
3080
2080
FBC0
ENDCHAR
STARTCHAR uni0419
ENCODING 1049
SWIDTH 780 0
DWIDTH 11 0
BBX 10 13 0 0
BITMAP
1200
1900
0E00
0000
FBC0
2080
2180
2280
2480
2880
3080
2080
FBC0
ENDCHAR
STARTCHAR uni041A
ENCODING 1050
SWIDTH 658 0
DWIDTH 9 0
BBX 8 9 1 0
BITMAP
E3
45
44
48
78
48
44
46
F3
ENDCHAR
STARTCHAR uni041B
ENCODING 1051
SWIDTH 684 0
DWIDTH 10 0
BBX 9 9 0 0
BITMAP
3F80
1300
1300
1300
1300
1300
2300
A300
C780
ENDCHAR
STARTCHAR uni041C
ENCODING 1052
SWIDTH 895 0
DWIDTH 13 0
BBX 12 9 0 0
BITMAP
E070
3060
30E0
38E0
2960
2D60
2660
2660
F4F0
ENDCHAR
STARTCHAR uni041D
ENCODING 1053
SWIDTH 777 0
DWIDTH 11 0
BBX 10 9 0 0
BITMAP
FBC0
2080
2080
2080
3F80
2080
2080
2080
FBC0
ENDCHAR
STARTCHAR uni041E
ENCODING 1054
SWIDTH 738 0
DWIDTH 10 0
BBX 9 9 1 0
BITMAP
3C00
4300
8100
8180
8180
8180
C100
4300
3C00
ENDCHAR
STARTCHAR uni041F
ENCODING 1055
SWIDTH 759 0
DWIDTH 11 0
BBX 10 10 0 0
BITMAP
FFC0
2180
2180
2180
2180
2180
2180
2180
2180
F3C0
ENDCHAR
STARTCHAR uni0420
ENCODING 1056
SWIDTH 569 0
DWIDTH 8 0
BBX 7 9 1 0
BITMAP
FC
46
46
44
78
40
40
40
F0
ENDCHAR
STARTCHAR uni0421
ENCODING 1057
SWIDTH 670 0
DWIDTH 9 0
BBX 8 9 1 0
BITMAP
3F
43
81
80
80
80
C0
41
3E
ENDCHAR
STARTCHAR uni0422
ENCODING 1058
SWIDTH 603 0
DWIDTH 8 0
BBX 8 9 0 0
BITMAP
FF
89
08
08
08
08
08
08
3C
ENDCHAR
STARTCHAR uni0423
ENCODING 1059
SWIDTH 625 0
DWIDTH 9 0
BBX 9 9 0 0
BITMAP
F380
6100
2200
1200
1400
0C00
0800
4800
7000
ENDCHAR
STARTCHAR uni0424
ENCODING 1060
SWIDTH 725 0
DWIDTH 10 0
BBX 10 9 0 0
BITMAP
1E00
1F00
6C80
4CC0
CCC0
4C80
6D80
1E00
1E00
ENDCHAR
STARTCHAR uni0425
ENCODING 1061
SWIDTH 664 0
DWIDTH 9 0
BBX 9 9 0 0
BITMAP
F380
3200
1200
1C00
0800
1400
2600
2300
E780
ENDCHAR
STARTCHAR uni0426
ENCODING 1062
SWIDTH 756 0
DWIDTH 11 0
BBX 10 12 0 -3
BITMAP
F3C0
2180
2180
2180
2180
2180
2180
2180
FFC0
0040
0040
0040
ENDCHAR
STARTCHAR uni0427
ENCODING 1063
SWIDTH 650 0
DWIDTH 9 0
BBX 9 9 0 0
BITMAP
F780
4200
4200
6200
3E00
0200
0200
0200
0F80
ENDCHAR
STARTCHAR uni0428
ENCODING 1064
SWIDTH 1053 0
DWIDTH 15 0
BBX 14 9 0 0
BITMAP
F7BC
2108
2108
2108
2108
2108
2108
2108
FFFC
ENDCHAR
STARTCHAR uni0429
ENCODING 1065
SWIDTH 1044 0
DWIDTH 15 0
BBX 14 12 0 -3
BITMAP
F7BC
2118
2118
2118
2118
2118
2118
2118
FFFC
0004
0004
0004
ENDCHAR
STARTCHAR uni042A
ENCODING 1066
SWIDTH 723 0
DWIDTH 10 0
BBX 10 9 0 0
BITMAP
FC00
8800
0800
0F00
0880
08C0
08C0
0880
3F00
ENDCHAR
STARTCHAR uni042B
ENCODING 1067
SWIDTH 887 0
DWIDTH 12 0
BBX 12 9 0 0
BITMAP
F8F0
2060
2060
3C60
2260
2360
2360
2260
7CF0
ENDCHAR
STARTCHAR uni042C
ENCODING 1068
SWIDTH 606 0
DWIDTH 8 0
BBX 8 9 0 0
BITMAP
F8
20
20
3C
23
21
21
23
7E
ENDCHAR
STARTCHAR uni042D
ENCODING 1069
SWIDTH 667 0
DWIDTH 9 0
BBX 8 9 1 0
BITMAP
FC
82
82
3F
03
03
02
86
78
ENDCHAR
STARTCHAR uni042E
ENCODING 1070
SWIDTH 1042 0
DWIDTH 15 0
BBX 14 9 0 0
BITMAP
F9F0
2308
260C
3E0C
260C
260C
220C
2208
F9F0
ENDCHAR
STARTCHAR uni042F
ENCODING 1071
SWIDTH 654 0
DWIDTH 9 0
BBX 9 9 0 0
BITMAP
3F80
6200
6200
2200
1E00
1200
3200
2200
E780
ENDCHAR
STARTCHAR uni0430
ENCODING 1072
SWIDTH 480 0
DWIDTH 7 0
BBX 6 7 1 0
BITMAP
F0
90
10
70
90
90
FC
ENDCHAR
STARTCHAR uni0431
ENCODING 1073
SWIDTH 520 0
DWIDTH 7 0
BBX 6 11 1 0
BITMAP
04
18
70
80
F8
88
8C
84
8C
88
70
ENDCHAR
STARTCHAR uni0432
ENCODING 1074
SWIDTH 505 0
DWIDTH 7 0
BBX 7 7 0 0
BITMAP
FC
64
64
78
64
66
FC
ENDCHAR
STARTCHAR uni0433
ENCODING 1075
SWIDTH 429 0
DWIDTH 6 0
BBX 6 7 0 0
BITMAP
FC
64
64
60
60
60
F0
ENDCHAR
STARTCHAR uni0434
ENCODING 1076
SWIDTH 530 0
DWIDTH 7 0
BBX 7 10 0 -3
BITMAP
7E
24
24
24
24
44
FE
82
82
82
ENDCHAR
STARTCHAR uni0435
ENCODING 1077
SWIDTH 464 0
DWIDTH 7 0
BBX 6 7 0 0
BITMAP
38
44
7C
C0
40
64
38
ENDCHAR
STARTCHAR uni0436
ENCODING 1078
SWIDTH 754 0
DWIDTH 11 0
BBX 11 7 0 0
BITMAP
CEC0
2480
2500
1F00
2500
2480
CEE0
ENDCHAR
STARTCHAR uni0437
ENCODING 1079
SWIDTH 435 0
DWIDTH 6 0
BBX 6 7 0 0
BITMAP
78
88
08
30
08
8C
78
ENDCHAR
STARTCHAR uni0438
ENCODING 1080
SWIDTH 609 0
DWIDTH 9 0
BBX 8 7 0 0
BITMAP
F7
62
66
6A
72
62
F7
ENDCHAR
STARTCHAR uni0439
ENCODING 1081
SWIDTH 609 0
DWIDTH 9 0
BBX 8 10 0 0
BITMAP
26
26
1C
E3
62
66
6A
72
62
F7
ENDCHAR
STARTCHAR uni043A
ENCODING 1082
SWIDTH 521 0
DWIDTH 7 0
BBX 7 7 0 0
BITMAP
F6
68
68
78
68
64
F6
ENDCHAR
STARTCHAR uni043B
ENCODING 1083
SWIDTH 553 0
DWIDTH 8 0
BBX 7 7 0 0
BITMAP
3E
14
24
24
24
24
CE
ENDCHAR
STARTCHAR uni043C
ENCODING 1084
SWIDTH 697 0
DWIDTH 10 0
BBX 9 7 0 0
BITMAP
E180
6300
7300
5500
5D00
4900
EB80
ENDCHAR
STARTCHAR uni043D
ENCODING 1085
SWIDTH 605 0
DWIDTH 8 0
BBX 8 7 0 0
BITMAP
F7
62
62
7E
62
62
F7
ENDCHAR
STARTCHAR uni043E
ENCODING 1086
SWIDTH 514 0
DWIDTH 7 0
BBX 7 7 0 0
BITMAP
38
44
46
C6
46
44
38
ENDCHAR
STARTCHAR uni043F
ENCODING 1087
SWIDTH 591 0
DWIDTH 8 0
BBX 8 7 0 0
BITMAP
FF
62
62
62
62
62
F7
ENDCHAR
STARTCHAR uni0440
ENCODING 1088
SWIDTH 537 0
DWIDTH 8 0
BBX 7 10 0 -3
BITMAP
DC
66
42
42
42
44
7C
40
40
F0
ENDCHAR
STARTCHAR uni0441
ENCODING 1089
SWIDTH 446 0
DWIDTH 6 0
BBX 6 7 0 0
BITMAP
38
4C
40
C0
40
44
38
ENDCHAR
STARTCHAR uni0442
ENCODING 1090
SWIDTH 456 0
DWIDTH 6 0
BBX 6 7 0 0
BITMAP
FC
94
10
10
10
10
38
ENDCHAR
STARTCHAR uni0443
ENCODING 1091
SWIDTH 483 0
DWIDTH 7 0
BBX 7 10 0 -3
BITMAP
E6
44
64
28
38
10
10
10
20
C0
ENDCHAR
STARTCHAR uni0444
ENCODING 1092
SWIDTH 710 0
DWIDTH 10 0
BBX 8 14 1 -3
BITMAP
08
38
18
18
7E
99
99
99
99
99
7E
18
18
3C
ENDCHAR
STARTCHAR uni0445
ENCODING 1093
SWIDTH 479 0
DWIDTH 7 0
BBX 7 7 0 0
BITMAP
EE
28
28
10
38
48
CE
ENDCHAR
STARTCHAR uni0446
ENCODING 1094
SWIDTH 590 0
DWIDTH 8 0
BBX 8 10 0 -3
BITMAP
F7
62
62
62
62
62
FF
01
01
01
ENDCHAR
STARTCHAR uni0447
ENCODING 1095
SWIDTH 535 0
DWIDTH 7 0
BBX 7 7 0 0
BITMAP
EE
44
44
44
3C
04
0E
ENDCHAR
STARTCHAR uni0448
ENCODING 1096
SWIDTH 812 0
DWIDTH 11 0
BBX 11 7 0 0
BITMAP
EEE0
6440
6440
6440
6440
6440
FFE0
ENDCHAR
STARTCHAR uni0449
ENCODING 1097
SWIDTH 814 0
DWIDTH 11 0
BBX 11 10 0 -3
BITMAP
EEE0
6440
6440
6440
6440
6440
FFE0
0020
0020
0020
ENDCHAR
STARTCHAR uni044A
ENCODING 1098
SWIDTH 568 0
DWIDTH 8 0
BBX 8 7 0 0
BITMAP
F8
90
90
1E
13
13
3E
ENDCHAR
STARTCHAR uni044B
ENCODING 1099
SWIDTH 728 0
DWIDTH 10 0
BBX 10 7 0 0
BITMAP
F1C0
6080
6080
7880
6480
6480
FDC0
ENDCHAR
STARTCHAR uni044C
ENCODING 1100
SWIDTH 489 0
DWIDTH 7 0
BBX 7 7 0 0
BITMAP
F0
60
60
78
64
66
FC
ENDCHAR
STARTCHAR uni044D
ENCODING 1101
SWIDTH 467 0
DWIDTH 7 0
BBX 6 7 0 0
BITMAP
78
84
04
3C
04
8C
78
ENDCHAR
STARTCHAR uni044E
ENCODING 1102
SWIDTH 774 0
DWIDTH 11 0
BBX 10 7 0 0
BITMAP
F380
6440
6C40
7C40
6C40
6440
F380
ENDCHAR
STARTCHAR uni044F
ENCODING 1103
SWIDTH 518 0
DWIDTH 7 0
BBX 7 7 0 0
BITMAP
7E
44
44
3C
24
64
CE
ENDCHAR
STARTCHAR uni0450
ENCODING 1104
SWIDTH 464 0
DWIDTH 7 0
BBX 6 10 0 0
BITMAP
20
10
00
38
44
7C
C0
40
64
38
ENDCHAR
STARTCHAR uni0451
ENCODING 1105
SWIDTH 464 0
DWIDTH 7 0
BBX 6 10 0 0
BITMAP
4C
6C
00
38
44
7C
C0
40
64
38
ENDCHAR
STARTCHAR uni0452
ENCODING 1106
SWIDTH 563 0
DWIDTH 8 0
BBX 7 14 0 -3
BITMAP
20
E0
F8
60
7C
66
62
62
62
62
F2
02
14
38
ENDCHAR
STARTCHAR uni0453
ENCODING 1107
SWIDTH 429 0
DWIDTH 6 0
BBX 6 10 0 0
BITMAP
18
20
00
FC
64
64
60
60
60
F0
ENDCHAR
STARTCHAR uni0454
ENCODING 1108
SWIDTH 460 0
DWIDTH 6 0
BBX 6 7 0 0
BITMAP
38
44
40
F8
40
44
38
ENDCHAR
STARTCHAR uni0455
ENCODING 1109
SWIDTH 394 0
DWIDTH 6 0
BBX 4 7 1 0
BITMAP
F0
90
80
60
B0
90
F0
ENDCHAR
STARTCHAR uni0456
ENCODING 1110
SWIDTH 285 0
DWIDTH 4 0
BBX 4 9 0 0
BITMAP
60
20
E0
60
60
60
60
60
F0
ENDCHAR
STARTCHAR uni0457
ENCODING 1111
SWIDTH 285 0
DWIDTH 4 0
BBX 4 9 0 0
BITMAP
B0
90
E0
60
60
60
60
60
F0
ENDCHAR
STARTCHAR uni0458
ENCODING 1112
SWIDTH 263 0
DWIDTH 4 0
BBX 4 12 -1 -3
BITMAP
30
20
70
30
30
30
30
30
30
30
A0
E0
ENDCHAR
STARTCHAR uni0459
ENCODING 1113
SWIDTH 742 0
DWIDTH 10 0
BBX 10 7 0 0
BITMAP
3E00
1400
2400
2780
2440
2440
CF80
ENDCHAR
STARTCHAR uni045A
ENCODING 1114
SWIDTH 790 0
DWIDTH 11 0
BBX 11 7 0 0
BITMAP
F700
6200
6200
7FC0
6260
6260
F7C0
ENDCHAR
STARTCHAR uni045B
ENCODING 1115
SWIDTH 579 0
DWIDTH 8 0
BBX 8 10 0 0
BITMAP
E0
60
F8
7C
66
62
62
62
62
F7
ENDCHAR
STARTCHAR uni045C
ENCODING 1116
SWIDTH 521 0
DWIDTH 7 0
BBX 7 10 0 0
BITMAP
08
10
00
F6
68
68
78
68
64
F6
ENDCHAR
STARTCHAR uni045D
ENCODING 1117
SWIDTH 609 0
DWIDTH 9 0
BBX 8 10 0 0
BITMAP
30
08
00
F7
62
66
6A
72
62
F7
ENDCHAR
STARTCHAR uni045E
ENCODING 1118
SWIDTH 483 0
DWIDTH 7 0
BBX 7 13 0 -3
BITMAP
64
38
00
E6
44
64
28
38
10
10
10
20
C0
ENDCHAR
STARTCHAR uni045F
ENCODING 1119
SWIDTH 587 0
DWIDTH 8 0
BBX 8 10 0 -3
BITMAP
F7
62
62
62
62
62
FF
08
18
18
ENDCHAR
STARTCHAR uni0462
ENCODING 1122
SWIDTH 727 0
DWIDTH 10 0
BBX 10 11 0 0
BITMAP
3C00
1800
FF80
9880
9880
1800
1F00
1880
18C0
1880
3F00
ENDCHAR
STARTCHAR uni0463
ENCODING 1123
SWIDTH 561 0
DWIDTH 8 0
BBX 8 10 0 0
BITMAP
30
10
10
FC
94
10
1E
12
13
3E
ENDCHAR
STARTCHAR uni046A
ENCODING 1130
SWIDTH 881 0
DWIDTH 12 0
BBX 13 9 0 0
BITMAP
3FC0
1880
0900
0500
0F80
12C0
3240
2260
CF38
ENDCHAR
STARTCHAR uni046B
ENCODING 1131
SWIDTH 667 0
DWIDTH 9 0
BBX 10 7 0 0
BITMAP
7F00
3200
1C00
1C00
2B00
6900
DDC0
ENDCHAR
STARTCHAR uni0472
ENCODING 1138
SWIDTH 737 0
DWIDTH 10 0
BBX 9 9 1 0
BITMAP
3C00
4300
8100
B180
CF80
8180
8100
4300
3C00
ENDCHAR
STARTCHAR uni0473
ENCODING 1139
SWIDTH 514 0
DWIDTH 7 0
BBX 7 7 0 0
BITMAP
38
44
46
FE
46
44
38
ENDCHAR
STARTCHAR uni0474
ENCODING 1140
SWIDTH 705 0
DWIDTH 10 0
BBX 10 9 0 0
BITMAP
F0C0
6140
2100
3200
1200
1200
1C00
0C00
0800
ENDCHAR
STARTCHAR uni0475
ENCODING 1141
SWIDTH 520 0
DWIDTH 7 0
BBX 8 7 0 0
BITMAP
E3
44
68
28
28
30
10
ENDCHAR
STARTCHAR uni0490
ENCODING 1168
SWIDTH 525 0
DWIDTH 7 0
BBX 6 12 1 0
BITMAP
04
04
04
FC
40
40
40
40
40
40
40
F0
ENDCHAR
STARTCHAR uni0491
ENCODING 1169
SWIDTH 404 0
DWIDTH 6 0
BBX 6 9 0 0
BITMAP
04
04
FC
60
60
60
60
60
F0
ENDCHAR
STARTCHAR uni1D00
ENCODING 7424
SWIDTH 511 0
DWIDTH 7 0
BBX 7 7 0 0
BITMAP
10
18
28
28
7C
44
CE
ENDCHAR
STARTCHAR uni1D07
ENCODING 7431
SWIDTH 495 0
DWIDTH 7 0
BBX 6 7 0 0
BITMAP
FC
64
64
78
60
64
FC
ENDCHAR
STARTCHAR uni1D1C
ENCODING 7452
SWIDTH 584 0
DWIDTH 8 0
BBX 8 7 0 0
BITMAP
E7
42
42
42
42
62
3C
ENDCHAR
STARTCHAR uni1D81
ENCODING 7553
SWIDTH 539 0
DWIDTH 8 0
BBX 7 13 0 -3
BITMAP
0C
04
04
3C
44
44
C4
44
44
7E
02
02
0E
ENDCHAR
STARTCHAR uni1D84
ENCODING 7556
SWIDTH 542 0
DWIDTH 8 0
BBX 8 13 0 -3
BITMAP
E0
60
60
6E
68
70
70
68
6C
FE
01
05
06
ENDCHAR
STARTCHAR uni1D85
ENCODING 7557
SWIDTH 283 0
DWIDTH 4 0
BBX 4 13 0 -3
BITMAP
E0
60
60
60
60
60
60
60
60
E0
10
50
60
ENDCHAR
STARTCHAR uni1D8A
ENCODING 7562
SWIDTH 395 0
DWIDTH 6 0
BBX 4 10 1 -3
BITMAP
F0
90
80
60
B0
90
F0
10
50
60
ENDCHAR
STARTCHAR uni1D8D
ENCODING 7565
SWIDTH 479 0
DWIDTH 7 0
BBX 7 10 0 -3
BITMAP
EE
28
28
10
38
48
CC
02
0A
0C
ENDCHAR
STARTCHAR uni1D8E
ENCODING 7566
SWIDTH 458 0
DWIDTH 6 0
BBX 6 10 0 -3
BITMAP
7C
88
18
30
20
64
FC
04
14
18
ENDCHAR
STARTCHAR uni1D98
ENCODING 7576
SWIDTH 368 0
DWIDTH 5 0
BBX 7 13 0 -3
BITMAP
0E
12
10
10
10
10
10
10
90
E0
80
A0
60
ENDCHAR
STARTCHAR uni1D9B
ENCODING 7579
SWIDTH 462 0
DWIDTH 6 0
BBX 6 5 0 4
BITMAP
F8
44
44
44
78
ENDCHAR
STARTCHAR uni1DA3
ENCODING 7587
SWIDTH 488 0
DWIDTH 7 0
BBX 7 8 0 1
BITMAP
EC
44
44
4C
34
04
04
06
ENDCHAR
STARTCHAR uni1E00
ENCODING 7680
SWIDTH 718 0
DWIDTH 10 0
BBX 10 13 0 -4
BITMAP
0800
0C00
1400
1600
1200
3F00
2100
4180
E3C0
0000
0C00
1400
0C00
ENDCHAR
STARTCHAR uni1E01
ENCODING 7681
SWIDTH 480 0
DWIDTH 7 0
BBX 6 11 1 -4
BITMAP
F0
90
10
70
90
90
FC
00
60
50
60
ENDCHAR
STARTCHAR uni1E02
ENCODING 7682
SWIDTH 618 0
DWIDTH 9 0
BBX 8 12 0 0
BITMAP
08
18
00
FE
23
23
22
3E
23
21
21
FE
ENDCHAR
STARTCHAR uni1E03
ENCODING 7683
SWIDTH 522 0
DWIDTH 7 0
BBX 7 13 0 0
BITMAP
10
10
00
C0
40
40
5C
66
46
42
46
44
78
ENDCHAR
STARTCHAR uni1E04
ENCODING 7684
SWIDTH 618 0
DWIDTH 9 0
BBX 8 12 0 -3
BITMAP
FE
23
23
22
3E
23
21
21
FE
00
18
18
ENDCHAR
STARTCHAR uni1E05
ENCODING 7685
SWIDTH 522 0
DWIDTH 7 0
BBX 7 13 0 -3
BITMAP
C0
40
40
5C
66
46
42
46
44
78
00
10
10
ENDCHAR
STARTCHAR uni1E06
ENCODING 7686
SWIDTH 618 0
DWIDTH 9 0
BBX 8 11 0 -2
BITMAP
FE
23
23
22
3E
23
21
21
FE
00
3C
ENDCHAR
STARTCHAR uni1E07
ENCODING 7687
SWIDTH 522 0
DWIDTH 7 0
BBX 7 12 0 -2
BITMAP
C0
40
40
5C
66
46
42
46
44
78
00
3C
ENDCHAR
STARTCHAR uni1E08
ENCODING 7688
SWIDTH 670 0
DWIDTH 9 0
BBX 8 15 1 -3
BITMAP
0C
10
00
3F
43
81
80
80
80
C0
41
3E
18
08
18
ENDCHAR
STARTCHAR uni1E09
ENCODING 7689
SWIDTH 446 0
DWIDTH 6 0
BBX 6 13 0 -3
BITMAP
18
10
00
38
4C
40
C0
40
44
38
10
08
30
ENDCHAR
STARTCHAR uni1E0A
ENCODING 7690
SWIDTH 730 0
DWIDTH 10 0
BBX 10 12 0 0
BITMAP
0800
0C00
0000
FE00
2180
2080
2080
20C0
2080
2080
2180
FE00
ENDCHAR
STARTCHAR uni1E0B
ENCODING 7691
SWIDTH 539 0
DWIDTH 8 0
BBX 7 13 0 0
BITMAP
10
18
00
0C
04
04
3C
44
44
C4
44
44
7E
ENDCHAR
STARTCHAR uni1E0C
ENCODING 7692
SWIDTH 730 0
DWIDTH 10 0
BBX 10 12 0 -3
BITMAP
FE00
2180
2080
2080
20C0
2080
2080
2180
FE00
0000
0800
0800
ENDCHAR
STARTCHAR uni1E0D
ENCODING 7693
SWIDTH 539 0
DWIDTH 8 0
BBX 7 13 0 -3
BITMAP
0C
04
04
3C
44
44
C4
44
44
7E
00
10
18
ENDCHAR
STARTCHAR uni1E0E
ENCODING 7694
SWIDTH 730 0
DWIDTH 10 0
BBX 10 11 0 -2
BITMAP
FE00
2180
2080
2080
20C0
2080
2080
2180
FE00
0000
3E00
ENDCHAR
STARTCHAR uni1E0F
ENCODING 7695
SWIDTH 539 0
DWIDTH 8 0
BBX 7 12 0 -2
BITMAP
0C
04
04
3C
44
44
C4
44
44
7E
00
3C
ENDCHAR
STARTCHAR uni1E10
ENCODING 7696
SWIDTH 730 0
DWIDTH 10 0
BBX 10 13 0 -4
BITMAP
FE00
2180
2080
2080
20C0
2080
2080
2180
FE00
0800
0800
0800
1000
ENDCHAR
STARTCHAR uni1E11
ENCODING 7697
SWIDTH 539 0
DWIDTH 8 0
BBX 7 14 0 -4
BITMAP
0C
04
04
3C
44
44
C4
44
44
7E
10
18
08
10
ENDCHAR
STARTCHAR uni1E12
ENCODING 7698
SWIDTH 730 0
DWIDTH 10 0
BBX 10 12 0 -3
BITMAP
FE00
2180
2080
2080
20C0
2080
2080
2180
FE00
0000
0800
1400
ENDCHAR
STARTCHAR uni1E13
ENCODING 7699
SWIDTH 539 0
DWIDTH 8 0
BBX 7 13 0 -3
BITMAP
0C
04
04
3C
44
44
C4
44
44
7E
00
18
2C
ENDCHAR
STARTCHAR uni1E14
ENCODING 7700
SWIDTH 626 0
DWIDTH 9 0
BBX 8 14 0 0
BITMAP
18
0C
00
3E
00
FF
21
22
22
3E
20
21
21
FF
ENDCHAR
STARTCHAR uni1E15
ENCODING 7701
SWIDTH 464 0
DWIDTH 7 0
BBX 6 12 0 0
BITMAP
20
10
00
78
00
38
44
7C
C0
40
64
38
ENDCHAR
STARTCHAR uni1E16
ENCODING 7702
SWIDTH 626 0
DWIDTH 9 0
BBX 8 14 0 0
BITMAP
0C
10
00
3E
00
FF
21
22
22
3E
20
21
21
FF
ENDCHAR
STARTCHAR uni1E17
ENCODING 7703
SWIDTH 464 0
DWIDTH 7 0
BBX 6 12 0 0
BITMAP
18
10
00
78
00
38
44
7C
C0
40
64
38
ENDCHAR
STARTCHAR uni1E18
ENCODING 7704
SWIDTH 626 0
DWIDTH 9 0
BBX 8 12 0 -3
BITMAP
FF
21
22
22
3E
20
21
21
FF
00
08
14
ENDCHAR
STARTCHAR uni1E19
ENCODING 7705
SWIDTH 464 0
DWIDTH 7 0
BBX 6 10 0 -3
BITMAP
38
44
7C
C0
40
64
38
00
10
68
ENDCHAR
STARTCHAR uni1E1A
ENCODING 7706
SWIDTH 626 0
DWIDTH 9 0
BBX 8 11 0 -2
BITMAP
FF
21
22
22
3E
20
21
21
FF
1A
2C
ENDCHAR
STARTCHAR uni1E1B
ENCODING 7707
SWIDTH 464 0
DWIDTH 7 0
BBX 6 9 0 -2
BITMAP
38
44
7C
C0
40
64
38
24
58
ENDCHAR
STARTCHAR uni1E1C
ENCODING 7708
SWIDTH 626 0
DWIDTH 9 0
BBX 8 15 0 -3
BITMAP
22
1C
00
FF
21
22
22
3E
20
21
21
FF
0C
04
18
ENDCHAR
STARTCHAR uni1E1D
ENCODING 7709
SWIDTH 464 0
DWIDTH 7 0
BBX 6 13 0 -3
BITMAP
44
38
00
38
44
7C
C0
40
64
38
10
08
30
ENDCHAR
STARTCHAR uni1E1E
ENCODING 7710
SWIDTH 588 0
DWIDTH 8 0
BBX 8 12 0 0
BITMAP
08
08
00
FF
21
22
22
3E
20
20
20
F8
ENDCHAR
STARTCHAR uni1E1F
ENCODING 7711
SWIDTH 307 0
DWIDTH 4 0
BBX 5 13 0 0
BITMAP
20
60
00
38
20
60
F0
60
60
60
60
60
F0
ENDCHAR
STARTCHAR uni1E20
ENCODING 7712
SWIDTH 720 0
DWIDTH 10 0
BBX 9 11 1 0
BITMAP
3C00
0000
3F00
4300
8100
8000
8780
8300
8300
4300
3E00
ENDCHAR
STARTCHAR uni1E21
ENCODING 7713
SWIDTH 484 0
DWIDTH 7 0
BBX 7 12 0 -3
BITMAP
78
00
3E
4C
44
4C
78
40
7C
42
84
78
ENDCHAR
STARTCHAR uni1E22
ENCODING 7714
SWIDTH 777 0
DWIDTH 11 0
BBX 10 12 0 0
BITMAP
0400
0400
0000
FBC0
2080
2080
2080
3F80
2080
2080
2080
FBC0
ENDCHAR
STARTCHAR uni1E23
ENCODING 7715
SWIDTH 577 0
DWIDTH 8 0
BBX 8 13 0 0
BITMAP
08
18
00
E0
60
60
7C
66
62
62
62
62
F7
ENDCHAR
STARTCHAR uni1E24
ENCODING 7716
SWIDTH 777 0
DWIDTH 11 0
BBX 10 12 0 -3
BITMAP
FBC0
2080
2080
2080
3F80
2080
2080
2080
FBC0
0000
0400
0400
ENDCHAR
STARTCHAR uni1E25
ENCODING 7717
SWIDTH 577 0
DWIDTH 8 0
BBX 8 13 0 -3
BITMAP
E0
60
60
7C
66
62
62
62
62
F7
00
18
18
ENDCHAR
STARTCHAR uni1E26
ENCODING 7718
SWIDTH 777 0
DWIDTH 11 0
BBX 10 12 0 0
BITMAP
1100
1B00
0000
FBC0
2080
2080
2080
3F80
2080
2080
2080
FBC0
ENDCHAR
STARTCHAR uni1E27
ENCODING 7719
SWIDTH 577 0
DWIDTH 8 0
BBX 8 13 0 0
BITMAP
24
24
00
E0
60
60
7C
66
62
62
62
62
F7
ENDCHAR
STARTCHAR uni1E28
ENCODING 7720
SWIDTH 777 0
DWIDTH 11 0
BBX 10 12 0 -3
BITMAP
FBC0
2080
2080
2080
3F80
2080
2080
2080
FBC0
3000
1000
6000
ENDCHAR
STARTCHAR uni1E29
ENCODING 7721
SWIDTH 577 0
DWIDTH 8 0
BBX 8 13 0 -3
BITMAP
E0
60
60
7C
66
62
62
62
62
F7
60
20
60
ENDCHAR
STARTCHAR uni1E2A
ENCODING 7722
SWIDTH 777 0
DWIDTH 11 0
BBX 10 12 0 -3
BITMAP
FBC0
2080
2080
2080
3F80
2080
2080
2080
FBC0
0000
1100
0E00
ENDCHAR
STARTCHAR uni1E2B
ENCODING 7723
SWIDTH 577 0
DWIDTH 8 0
BBX 8 13 0 -3
BITMAP
E0
60
60
7C
66
62
62
62
62
F7
00
24
18
ENDCHAR
STARTCHAR uni1E2C
ENCODING 7724
SWIDTH 357 0
DWIDTH 5 0
BBX 5 11 0 -2
BITMAP
F8
20
20
20
20
20
20
20
F0
68
B0
ENDCHAR
STARTCHAR uni1E2D
ENCODING 7725
SWIDTH 285 0
DWIDTH 4 0
BBX 4 11 0 -2
BITMAP
60
20
E0
60
60
60
60
60
60
D0
B0
ENDCHAR
STARTCHAR uni1E2E
ENCODING 7726
SWIDTH 357 0
DWIDTH 5 0
BBX 5 14 0 0
BITMAP
30
60
88
D8
00
F8
20
20
20
20
20
20
20
F8
ENDCHAR
STARTCHAR uni1E2F
ENCODING 7727
SWIDTH 285 0
DWIDTH 4 0
BBX 4 12 0 0
BITMAP
20
40
00
B0
90
E0
60
60
60
60
60
F0
ENDCHAR
STARTCHAR uni1E30
ENCODING 7728
SWIDTH 702 0
DWIDTH 10 0
BBX 10 12 0 0
BITMAP
0400
0800
0000
FB80
2200
2400
2800
3800
2C00
2600
2300
FBC0
ENDCHAR
STARTCHAR uni1E31
ENCODING 7729
SWIDTH 542 0
DWIDTH 8 0
BBX 8 13 0 0
BITMAP
08
30
00
E0
60
60
6E
68
70
70
68
6C
FF
ENDCHAR
STARTCHAR uni1E32
ENCODING 7730
SWIDTH 702 0
DWIDTH 10 0
BBX 10 12 0 -3
BITMAP
FB80
2200
2400
2800
3800
2C00
2600
2300
FBC0
0000
0C00
0C00
ENDCHAR
STARTCHAR uni1E33
ENCODING 7731
SWIDTH 542 0
DWIDTH 8 0
BBX 8 13 0 -3
BITMAP
E0
60
60
6E
68
70
70
68
6C
FF
00
10
18
ENDCHAR
STARTCHAR uni1E34
ENCODING 7732
SWIDTH 702 0
DWIDTH 10 0
BBX 10 11 0 -2
BITMAP
FB80
2200
2400
2800
3800
2C00
2600
2300
FBC0
0000
1E00
ENDCHAR
STARTCHAR uni1E35
ENCODING 7733
SWIDTH 542 0
DWIDTH 8 0
BBX 8 12 0 -2
BITMAP
E0
60
60
6E
68
70
70
68
6C
FF
00
3C
ENDCHAR
STARTCHAR uni1E36
ENCODING 7734
SWIDTH 585 0
DWIDTH 8 0
BBX 7 12 1 -3
BITMAP
F0
40
40
40
40
40
42
42
FE
00
30
30
ENDCHAR
STARTCHAR uni1E37
ENCODING 7735
SWIDTH 283 0
DWIDTH 4 0
BBX 4 13 0 -3
BITMAP
E0
60
60
60
60
60
60
60
60
F0
00
60
60
ENDCHAR
STARTCHAR uni1E38
ENCODING 7736
SWIDTH 585 0
DWIDTH 8 0
BBX 8 14 0 -3
BITMAP
F8
00
78
20
20
20
20
20
21
21
7F
00
18
18
ENDCHAR
STARTCHAR uni1E39
ENCODING 7737
SWIDTH 283 0
DWIDTH 4 0
BBX 4 15 0 -3
BITMAP
F0
00
E0
60
60
60
60
60
60
60
60
F0
00
60
60
ENDCHAR
STARTCHAR uni1E3A
ENCODING 7738
SWIDTH 585 0
DWIDTH 8 0
BBX 7 11 1 -2
BITMAP
F0
40
40
40
40
40
42
42
FE
00
78
ENDCHAR
STARTCHAR uni1E3B
ENCODING 7739
SWIDTH 283 0
DWIDTH 4 0
BBX 4 12 0 -2
BITMAP
E0
60
60
60
60
60
60
60
60
F0
00
F0
ENDCHAR
STARTCHAR uni1E3C
ENCODING 7740
SWIDTH 585 0
DWIDTH 8 0
BBX 7 12 1 -3
BITMAP
F0
40
40
40
40
40
42
42
FE
00
30
48
ENDCHAR
STARTCHAR uni1E3D
ENCODING 7741
SWIDTH 283 0
DWIDTH 4 0
BBX 4 13 0 -3
BITMAP
E0
60
60
60
60
60
60
60
60
F0
00
60
90
ENDCHAR
STARTCHAR uni1E3E
ENCODING 7742
SWIDTH 895 0
DWIDTH 13 0
BBX 12 12 0 0
BITMAP
0300
0400
0000
E070
3060
30E0
38E0
2960
2D60
2660
2660
F4F0
ENDCHAR
STARTCHAR uni1E3F
ENCODING 7743
SWIDTH 852 0
DWIDTH 12 0
BBX 12 10 0 0
BITMAP
0300
0400
0000
FDC0
6660
6660
6660
6660
6660
FFF0
ENDCHAR
STARTCHAR uni1E40
ENCODING 7744
SWIDTH 895 0
DWIDTH 13 0
BBX 12 12 0 0
BITMAP
0200
0600
0000
E070
3060
30E0
38E0
2960
2D60
2660
2660
F4F0
ENDCHAR
STARTCHAR uni1E41
ENCODING 7745
SWIDTH 852 0
DWIDTH 12 0
BBX 12 10 0 0
BITMAP
0600
0600
0000
FDC0
6660
6660
6660
6660
6660
FFF0
ENDCHAR
STARTCHAR uni1E42
ENCODING 7746
SWIDTH 895 0
DWIDTH 13 0
BBX 12 12 0 -3
BITMAP
E070
3060
30E0
38E0
2960
2D60
2660
2660
F4F0
0000
0600
0600
ENDCHAR
STARTCHAR uni1E43
ENCODING 7747
SWIDTH 852 0
DWIDTH 12 0
BBX 12 10 0 -3
BITMAP
FDC0
6660
6660
6660
6660
6660
FFF0
0000
0600
0600
ENDCHAR
STARTCHAR uni1E44
ENCODING 7748
SWIDTH 742 0
DWIDTH 10 0
BBX 10 12 0 0
BITMAP
0400
0C00
0000
E1C0
3080
3880
2C80
2480
2680
2380
2180
F080
ENDCHAR
STARTCHAR uni1E45
ENCODING 7749
SWIDTH 576 0
DWIDTH 8 0
BBX 8 10 0 0
BITMAP
08
18
00
FC
66
62
62
62
62
F7
ENDCHAR
STARTCHAR uni1E46
ENCODING 7750
SWIDTH 742 0
DWIDTH 10 0
BBX 10 12 0 -3
BITMAP
E1C0
3080
3880
2C80
2480
2680
2380
2180
F080
0000
0C00
0C00
ENDCHAR
STARTCHAR uni1E47
ENCODING 7751
SWIDTH 576 0
DWIDTH 8 0
BBX 8 10 0 -3
BITMAP
FC
66
62
62
62
62
F7
00
18
18
ENDCHAR
STARTCHAR uni1E48
ENCODING 7752
SWIDTH 742 0
DWIDTH 10 0
BBX 10 11 0 -2
BITMAP
E1C0
3080
3880
2C80
2480
2680
2380
2180
F080
0000
1E00
ENDCHAR
STARTCHAR uni1E49
ENCODING 7753
SWIDTH 576 0
DWIDTH 8 0
BBX 8 9 0 -2
BITMAP
FC
66
62
62
62
62
F7
00
3C
ENDCHAR
STARTCHAR uni1E4A
ENCODING 7754
SWIDTH 742 0
DWIDTH 10 0
BBX 10 12 0 -3
BITMAP
E1C0
3080
3880
2C80
2480
2680
2380
2180
F080
0000
0C00
1200
ENDCHAR
STARTCHAR uni1E4B
ENCODING 7755
SWIDTH 576 0
DWIDTH 8 0
BBX 8 10 0 -3
BITMAP
FC
66
62
62
62
62
F7
00
18
24
ENDCHAR
STARTCHAR uni1E4C
ENCODING 7756
SWIDTH 738 0
DWIDTH 10 0
BBX 9 14 1 0
BITMAP
0C00
1000
3200
2C00
0000
3C00
4300
8100
8180
8180
8180
C100
4300
3C00
ENDCHAR
STARTCHAR uni1E4D
ENCODING 7757
SWIDTH 514 0
DWIDTH 7 0
BBX 7 12 0 0
BITMAP
08
10
34
48
00
38
44
46
C6
46
44
38
ENDCHAR
STARTCHAR uni1E4E
ENCODING 7758
SWIDTH 738 0
DWIDTH 10 0
BBX 9 14 1 0
BITMAP
2400
2600
3200
2C00
0000
3C00
4300
8100
8180
8180
8180
C100
4300
3C00
ENDCHAR
STARTCHAR uni1E4F
ENCODING 7759
SWIDTH 514 0
DWIDTH 7 0
BBX 7 12 0 0
BITMAP
64
6C
34
48
00
38
44
46
C6
46
44
38
ENDCHAR
STARTCHAR uni1E50
ENCODING 7760
SWIDTH 738 0
DWIDTH 10 0
BBX 9 14 1 0
BITMAP
1000
0C00
0000
3C00
0000
3C00
4300
8100
8180
8180
8180
C100
4300
3C00
ENDCHAR
STARTCHAR uni1E51
ENCODING 7761
SWIDTH 514 0
DWIDTH 7 0
BBX 7 12 0 0
BITMAP
30
10
00
3C
00
38
44
46
C6
46
44
38
ENDCHAR
STARTCHAR uni1E52
ENCODING 7762
SWIDTH 738 0
DWIDTH 10 0
BBX 9 14 1 0
BITMAP
0C00
1000
0000
3C00
0000
3C00
4300
8100
8180
8180
8180
C100
4300
3C00
ENDCHAR
STARTCHAR uni1E53
ENCODING 7763
SWIDTH 514 0
DWIDTH 7 0
BBX 7 12 0 0
BITMAP
08
10
00
3C
00
38
44
46
C6
46
44
38
ENDCHAR
STARTCHAR uni1E54
ENCODING 7764
SWIDTH 569 0
DWIDTH 8 0
BBX 7 12 1 0
BITMAP
18
20
00
FC
46
46
44
78
40
40
40
F0
ENDCHAR
STARTCHAR uni1E55
ENCODING 7765
SWIDTH 537 0
DWIDTH 8 0
BBX 7 13 0 -3
BITMAP
08
10
00
DC
66
42
42
42
44
7C
40
40
F0
ENDCHAR
STARTCHAR uni1E56
ENCODING 7766
SWIDTH 569 0
DWIDTH 8 0
BBX 7 12 1 0
BITMAP
10
30
00
FC
46
46
44
78
40
40
40
F0
ENDCHAR
STARTCHAR uni1E57
ENCODING 7767
SWIDTH 537 0
DWIDTH 8 0
BBX 7 13 0 -3
BITMAP
10
18
00
DC
66
42
42
42
44
7C
40
40
F0
ENDCHAR
STARTCHAR uni1E58
ENCODING 7768
SWIDTH 659 0
DWIDTH 9 0
BBX 8 12 1 0
BITMAP
10
10
00
FC
46
46
44
78
48
4C
46
F3
ENDCHAR
STARTCHAR uni1E59
ENCODING 7769
SWIDTH 380 0
DWIDTH 5 0
BBX 5 10 0 0
BITMAP
20
30
00
F8
68
60
60
60
60
F0
ENDCHAR
STARTCHAR uni1E5A
ENCODING 7770
SWIDTH 659 0
DWIDTH 9 0
BBX 8 12 1 -3
BITMAP
FC
46
46
44
78
48
4C
46
F3
00
10
10
ENDCHAR
STARTCHAR uni1E5B
ENCODING 7771
SWIDTH 380 0
DWIDTH 5 0
BBX 5 10 0 -3
BITMAP
F8
68
60
60
60
60
F0
00
20
60
ENDCHAR
STARTCHAR uni1E5C
ENCODING 7772
SWIDTH 659 0
DWIDTH 9 0
BBX 8 14 1 -3
BITMAP
78
00
FC
46
46
44
78
48
4C
46
F3
00
10
10
ENDCHAR
STARTCHAR uni1E5D
ENCODING 7773
SWIDTH 380 0
DWIDTH 5 0
BBX 5 12 0 -3
BITMAP
78
00
F8
68
60
60
60
60
F0
00
20
60
ENDCHAR
STARTCHAR uni1E5E
ENCODING 7774
SWIDTH 659 0
DWIDTH 9 0
BBX 8 11 1 -2
BITMAP
FC
46
46
44
78
48
4C
46
F3
00
3C
ENDCHAR
STARTCHAR uni1E5F
ENCODING 7775
SWIDTH 380 0
DWIDTH 5 0
BBX 5 9 0 -2
BITMAP
F8
68
60
60
60
60
F0
00
F0
ENDCHAR
STARTCHAR uni1E60
ENCODING 7776
SWIDTH 504 0
DWIDTH 7 0
BBX 7 12 0 0
BITMAP
10
10
00
3C
44
44
60
38
0C
86
44
7C
ENDCHAR
STARTCHAR uni1E61
ENCODING 7777
SWIDTH 394 0
DWIDTH 6 0
BBX 4 10 1 0
BITMAP
40
60
00
F0
90
80
60
B0
90
F0
ENDCHAR
STARTCHAR uni1E62
ENCODING 7778
SWIDTH 504 0
DWIDTH 7 0
BBX 7 12 0 -3
BITMAP
3C
44
44
60
38
0C
86
44
7C
00
10
10
ENDCHAR
STARTCHAR uni1E63
ENCODING 7779
SWIDTH 394 0
DWIDTH 6 0
BBX 4 10 1 -3
BITMAP
F0
90
80
60
B0
90
F0
00
40
60
ENDCHAR
STARTCHAR uni1E64
ENCODING 7780
SWIDTH 504 0
DWIDTH 7 0
BBX 7 12 0 0
BITMAP
2C
10
00
3C
44
44
60
38
0C
86
44
7C
ENDCHAR
STARTCHAR uni1E65
ENCODING 7781
SWIDTH 394 0
DWIDTH 6 0
BBX 4 10 1 0
BITMAP
F0
40
00
F0
90
80
60
B0
90
F0
ENDCHAR
STARTCHAR uni1E66
ENCODING 7782
SWIDTH 504 0
DWIDTH 7 0
BBX 7 13 0 0
BITMAP
10
7C
10
00
3C
44
44
60
38
0C
86
44
7C
ENDCHAR
STARTCHAR uni1E67
ENCODING 7783
SWIDTH 394 0
DWIDTH 6 0
BBX 4 11 1 0
BITMAP
60
90
60
00
F0
90
80
60
B0
90
F0
ENDCHAR
STARTCHAR uni1E68
ENCODING 7784
SWIDTH 504 0
DWIDTH 7 0
BBX 7 15 0 -3
BITMAP
10
10
00
3C
44
44
60
38
0C
86
44
7C
00
10
10
ENDCHAR
STARTCHAR uni1E69
ENCODING 7785
SWIDTH 394 0
DWIDTH 6 0
BBX 4 13 1 -3
BITMAP
40
60
00
F0
90
80
60
B0
90
F0
00
40
60
ENDCHAR
STARTCHAR uni1E6A
ENCODING 7786
SWIDTH 603 0
DWIDTH 8 0
BBX 8 12 0 0
BITMAP
08
18
00
FF
89
08
08
08
08
08
08
3C
ENDCHAR
STARTCHAR uni1E6B
ENCODING 7787
SWIDTH 315 0
DWIDTH 4 0
BBX 3 11 1 0
BITMAP
40
C0
40
80
E0
80
80
80
80
80
60
ENDCHAR
STARTCHAR uni1E6C
ENCODING 7788
SWIDTH 603 0
DWIDTH 8 0
BBX 8 12 0 -3
BITMAP
FF
89
08
08
08
08
08
08
3C
00
08
18
ENDCHAR
STARTCHAR uni1E6D
ENCODING 7789
SWIDTH 315 0
DWIDTH 4 0
BBX 3 12 1 -3
BITMAP
40
80
E0
80
80
80
80
80
60
00
40
40
ENDCHAR
STARTCHAR uni1E6E
ENCODING 7790
SWIDTH 603 0
DWIDTH 8 0
BBX 8 11 0 -2
BITMAP
FF
89
08
08
08
08
08
08
3C
00
3C
ENDCHAR
STARTCHAR uni1E6F
ENCODING 7791
SWIDTH 315 0
DWIDTH 4 0
BBX 4 11 1 -2
BITMAP
40
80
E0
80
80
80
80
80
60
00
F0
ENDCHAR
STARTCHAR uni1E70
ENCODING 7792
SWIDTH 603 0
DWIDTH 8 0
BBX 8 12 0 -3
BITMAP
FF
89
08
08
08
08
08
08
3C
00
18
24
ENDCHAR
STARTCHAR uni1E71
ENCODING 7793
SWIDTH 315 0
DWIDTH 4 0
BBX 4 12 1 -3
BITMAP
40
80
E0
80
80
80
80
80
60
00
40
B0
ENDCHAR
STARTCHAR uni1E72
ENCODING 7794
SWIDTH 752 0
DWIDTH 11 0
BBX 10 12 0 -3
BITMAP
F1C0
2080
2080
2080
2080
2080
2080
3080
1F00
0000
1200
1B00
ENDCHAR
STARTCHAR uni1E73
ENCODING 7795
SWIDTH 570 0
DWIDTH 8 0
BBX 8 10 0 -3
BITMAP
CE
46
46
46
46
66
3F
00
24
24
ENDCHAR
STARTCHAR uni1E74
ENCODING 7796
SWIDTH 752 0
DWIDTH 11 0
BBX 10 11 0 -2
BITMAP
F1C0
2080
2080
2080
2080
2080
2080
3080
1F00
0900
1600
ENDCHAR
STARTCHAR uni1E75
ENCODING 7797
SWIDTH 570 0
DWIDTH 8 0
BBX 8 9 0 -2
BITMAP
CE
46
46
46
46
66
3F
34
48
ENDCHAR
STARTCHAR uni1E76
ENCODING 7798
SWIDTH 752 0
DWIDTH 11 0
BBX 10 12 0 -3
BITMAP
F1C0
2080
2080
2080
2080
2080
2080
3080
1F00
0000
0C00
1A00
ENDCHAR
STARTCHAR uni1E77
ENCODING 7799
SWIDTH 570 0
DWIDTH 8 0
BBX 8 10 0 -3
BITMAP
CE
46
46
46
46
66
3F
00
18
24
ENDCHAR
STARTCHAR uni1E78
ENCODING 7800
SWIDTH 752 0
DWIDTH 11 0
BBX 10 14 0 0
BITMAP
0600
0400
0D00
1200
0000
F1C0
2080
2080
2080
2080
2080
2080
3080
1F00
ENDCHAR
STARTCHAR uni1E79
ENCODING 7801
SWIDTH 570 0
DWIDTH 8 0
BBX 8 12 0 0
BITMAP
08
10
34
4C
00
CE
46
46
46
46
66
3F
ENDCHAR
STARTCHAR uni1E7A
ENCODING 7802
SWIDTH 752 0
DWIDTH 11 0
BBX 10 13 0 0
BITMAP
0900
1B00
0F00
0000
F1C0
2080
2080
2080
2080
2080
2080
3080
1F00
ENDCHAR
STARTCHAR uni1E7B
ENCODING 7803
SWIDTH 570 0
DWIDTH 8 0
BBX 8 12 0 0
BITMAP
24
24
00
3C
00
CE
46
46
46
46
66
3F
ENDCHAR
STARTCHAR uni1E7C
ENCODING 7804
SWIDTH 680 0
DWIDTH 10 0
BBX 10 12 0 0
BITMAP
1A00
2600
0000
F1C0
6100
2100
3100
1200
1200
1C00
0C00
0800
ENDCHAR
STARTCHAR uni1E7D
ENCODING 7805
SWIDTH 481 0
DWIDTH 7 0
BBX 7 10 0 0
BITMAP
34
48
00
E6
44
64
28
28
30
10
ENDCHAR
STARTCHAR uni1E7E
ENCODING 7806
SWIDTH 680 0
DWIDTH 10 0
BBX 10 12 0 -3
BITMAP
F1C0
6100
2100
3100
1200
1200
1C00
0C00
0800
0000
0800
0C00
ENDCHAR
STARTCHAR uni1E7F
ENCODING 7807
SWIDTH 481 0
DWIDTH 7 0
BBX 7 10 0 -3
BITMAP
E6
44
64
28
28
30
10
00
10
10
ENDCHAR
STARTCHAR Wgrave
ENCODING 7808
SWIDTH 944 0
DWIDTH 13 0
BBX 13 12 0 0
BITMAP
0600
0300
0000
E738
6210
2310
3320
33A0
14A0
1CC0
08C0
0840
ENDCHAR
STARTCHAR wgrave
ENCODING 7809
SWIDTH 749 0
DWIDTH 10 0
BBX 11 10 0 0
BITMAP
0800
0400
0000
EEE0
4440
6480
2A80
2A80
3300
1100
ENDCHAR
STARTCHAR Wacute
ENCODING 7810
SWIDTH 944 0
DWIDTH 13 0
BBX 13 12 0 0
BITMAP
0300
0400
0000
E738
6210
2310
3320
33A0
14A0
1CC0
08C0
0840
ENDCHAR
STARTCHAR wacute
ENCODING 7811
SWIDTH 749 0
DWIDTH 10 0
BBX 11 10 0 0
BITMAP
0600
0C00
0000
EEE0
4440
6480
2A80
2A80
3300
1100
ENDCHAR
STARTCHAR Wdieresis
ENCODING 7812
SWIDTH 944 0
DWIDTH 13 0
BBX 13 12 0 0
BITMAP
0900
0D80
0000
E738
6210
2310
3320
33A0
14A0
1CC0
08C0
0840
ENDCHAR
STARTCHAR wdieresis
ENCODING 7813
SWIDTH 749 0
DWIDTH 10 0
BBX 11 10 0 0
BITMAP
1200
1300
0000
EEE0
4440
6480
2A80
2A80
3300
1100
ENDCHAR
STARTCHAR uni1E86
ENCODING 7814
SWIDTH 944 0
DWIDTH 13 0
BBX 13 12 0 0
BITMAP
0200
0200
0000
E738
6210
2310
3320
33A0
14A0
1CC0
08C0
0840
ENDCHAR
STARTCHAR uni1E87
ENCODING 7815
SWIDTH 749 0
DWIDTH 10 0
BBX 11 10 0 0
BITMAP
0400
0C00
0000
EEE0
4440
6480
2A80
2A80
3300
1100
ENDCHAR
STARTCHAR uni1E88
ENCODING 7816
SWIDTH 944 0
DWIDTH 13 0
BBX 13 12 0 -3
BITMAP
E738
6210
2310
3320
33A0
14A0
1CC0
08C0
0840
0000
0200
0300
ENDCHAR
STARTCHAR uni1E89
ENCODING 7817
SWIDTH 749 0
DWIDTH 10 0
BBX 11 10 0 -3
BITMAP
EEE0
4440
6480
2A80
2A80
3300
1100
0000
0400
0C00
ENDCHAR
STARTCHAR uni1E8A
ENCODING 7818
SWIDTH 664 0
DWIDTH 9 0
BBX 9 12 0 0
BITMAP
0800
0C00
0000
F380
3200
1200
1C00
0800
1400
2600
2300
E780
ENDCHAR
STARTCHAR uni1E8B
ENCODING 7819
SWIDTH 479 0
DWIDTH 7 0
BBX 7 10 0 0
BITMAP
10
10
00
EE
28
28
10
38
48
CE
ENDCHAR
STARTCHAR uni1E8C
ENCODING 7820
SWIDTH 664 0
DWIDTH 9 0
BBX 9 12 0 0
BITMAP
1200
3200
0000
F380
3200
1200
1C00
0800
1400
2600
2300
E780
ENDCHAR
STARTCHAR uni1E8D
ENCODING 7821
SWIDTH 479 0
DWIDTH 7 0
BBX 7 10 0 0
BITMAP
6C
6C
00
EE
28
28
10
38
48
CE
ENDCHAR
STARTCHAR uni1E8E
ENCODING 7822
SWIDTH 647 0
DWIDTH 9 0
BBX 9 12 0 0
BITMAP
0800
0C00
0000
F380
2100
3200
1400
1C00
0800
0800
0800
1E00
ENDCHAR
STARTCHAR uni1E8F
ENCODING 7823
SWIDTH 483 0
DWIDTH 7 0
BBX 7 13 0 -3
BITMAP
10
10
00
E6
44
64
28
38
10
10
10
20
C0
ENDCHAR
STARTCHAR uni1E90
ENCODING 7824
SWIDTH 594 0
DWIDTH 8 0
BBX 8 12 0 0
BITMAP
08
34
00
7F
42
04
0C
18
10
21
61
FF
ENDCHAR
STARTCHAR uni1E91
ENCODING 7825
SWIDTH 458 0
DWIDTH 6 0
BBX 6 10 0 0
BITMAP
10
68
00
7C
88
18
30
20
64
FC
ENDCHAR
STARTCHAR uni1E92
ENCODING 7826
SWIDTH 594 0
DWIDTH 8 0
BBX 8 12 0 -3
BITMAP
7F
42
04
0C
18
10
21
61
FF
00
18
18
ENDCHAR
STARTCHAR uni1E93
ENCODING 7827
SWIDTH 458 0
DWIDTH 6 0
BBX 6 10 0 -3
BITMAP
7C
88
18
30
20
64
FC
00
10
30
ENDCHAR
STARTCHAR uni1E94
ENCODING 7828
SWIDTH 594 0
DWIDTH 8 0
BBX 8 11 0 -2
BITMAP
7F
42
04
0C
18
10
21
61
FF
00
3C
ENDCHAR
STARTCHAR uni1E95
ENCODING 7829
SWIDTH 458 0
DWIDTH 6 0
BBX 6 9 0 -2
BITMAP
7C
88
18
30
20
64
FC
00
78
ENDCHAR
STARTCHAR uni1E96
ENCODING 7830
SWIDTH 577 0
DWIDTH 8 0
BBX 8 12 0 -2
BITMAP
E0
60
60
7C
66
62
62
62
62
F7
00
3C
ENDCHAR
STARTCHAR uni1E97
ENCODING 7831
SWIDTH 315 0
DWIDTH 4 0
BBX 5 11 0 0
BITMAP
90
D8
20
40
70
40
40
40
40
40
30
ENDCHAR
STARTCHAR uni1E98
ENCODING 7832
SWIDTH 749 0
DWIDTH 10 0
BBX 11 10 0 0
BITMAP
0C00
0A00
0C00
EEE0
4440
6480
2A80
2A80
3300
1100
ENDCHAR
STARTCHAR uni1E99
ENCODING 7833
SWIDTH 483 0
DWIDTH 7 0
BBX 7 13 0 -3
BITMAP
10
28
18
E6
44
64
28
38
10
10
10
20
C0
ENDCHAR
STARTCHAR uni1E9A
ENCODING 7834
SWIDTH 480 0
DWIDTH 7 0
BBX 6 11 1 0
BITMAP
60
20
60
00
F0
90
10
70
90
90
FC
ENDCHAR
STARTCHAR uni1E9B
ENCODING 7835
SWIDTH 285 0
DWIDTH 4 0
BBX 5 13 0 0
BITMAP
20
60
00
38
20
60
E0
60
60
60
60
60
F0
ENDCHAR
STARTCHAR uni1E9C
ENCODING 7836
SWIDTH 300 0
DWIDTH 4 0
BBX 5 10 0 0
BITMAP
38
20
20
E0
30
60
A0
20
20
F0
ENDCHAR
STARTCHAR uni1E9D
ENCODING 7837
SWIDTH 285 0
DWIDTH 4 0
BBX 5 10 0 0
BITMAP
38
28
F0
E0
60
60
60
60
60
F0
ENDCHAR
STARTCHAR uni1E9E
ENCODING 7838
SWIDTH 684 0
DWIDTH 10 0
BBX 9 9 0 0
BITMAP
1F00
2100
2200
2600
2300
2180
2080
2880
EF00
ENDCHAR
STARTCHAR uni1E9F
ENCODING 7839
SWIDTH 517 0
DWIDTH 7 0
BBX 7 11 0 0
BITMAP
3C
24
60
30
18
64
46
C6
46
44
38
ENDCHAR
STARTCHAR uni1EA0
ENCODING 7840
SWIDTH 718 0
DWIDTH 10 0
BBX 10 12 0 -3
BITMAP
0800
0C00
1400
1600
1200
3F00
2100
4180
E3C0
0000
0800
0C00
ENDCHAR
STARTCHAR uni1EA1
ENCODING 7841
SWIDTH 480 0
DWIDTH 7 0
BBX 6 10 1 -3
BITMAP
F0
90
10
70
90
90
FC
00
20
60
ENDCHAR
STARTCHAR uni1EA2
ENCODING 7842
SWIDTH 718 0
DWIDTH 10 0
BBX 10 13 0 0
BITMAP
0C00
0400
0800
0000
0800
0C00
1400
1600
1200
3F00
2100
4180
E3C0
ENDCHAR
STARTCHAR uni1EA3
ENCODING 7843
SWIDTH 480 0
DWIDTH 7 0
BBX 6 10 1 0
BITMAP
60
10
20
F0
90
10
70
90
90
FC
ENDCHAR
STARTCHAR uni1EA4
ENCODING 7844
SWIDTH 718 0
DWIDTH 10 0
BBX 10 13 0 0
BITMAP
0080
0D00
1200
0000
0800
0C00
1400
1600
1200
3F00
2100
4180
E3C0
ENDCHAR
STARTCHAR uni1EA5
ENCODING 7845
SWIDTH 480 0
DWIDTH 7 0
BBX 6 11 1 0
BITMAP
0C
08
70
50
F0
90
10
70
90
90
FC
ENDCHAR
STARTCHAR uni1EA6
ENCODING 7846
SWIDTH 718 0
DWIDTH 10 0
BBX 10 13 0 0
BITMAP
0200
0D00
1200
0000
0800
0C00
1400
1600
1200
3F00
2100
4180
E3C0
ENDCHAR
STARTCHAR uni1EA7
ENCODING 7847
SWIDTH 480 0
DWIDTH 7 0
BBX 6 10 1 0
BITMAP
10
68
50
F0
90
10
70
90
90
FC
ENDCHAR
STARTCHAR uni1EA8
ENCODING 7848
SWIDTH 718 0
DWIDTH 10 0
BBX 10 14 0 0
BITMAP
0300
0100
0E00
1200
0000
0800
0C00
1400
1600
1200
3F00
2100
4180
E3C0
ENDCHAR
STARTCHAR uni1EA9
ENCODING 7849
SWIDTH 480 0
DWIDTH 7 0
BBX 6 11 1 0
BITMAP
18
08
70
50
F0
90
10
70
90
90
FC
ENDCHAR
STARTCHAR uni1EAA
ENCODING 7850
SWIDTH 718 0
DWIDTH 10 0
BBX 10 14 0 0
BITMAP
1A00
1600
0C00
1200
0000
0800
0C00
1400
1600
1200
3F00
2100
4180
E3C0
ENDCHAR
STARTCHAR uni1EAB
ENCODING 7851
SWIDTH 480 0
DWIDTH 7 0
BBX 6 11 1 0
BITMAP
48
B0
60
50
F0
90
10
70
90
90
FC
ENDCHAR
STARTCHAR uni1EAC
ENCODING 7852
SWIDTH 718 0
DWIDTH 10 0
BBX 10 15 0 -3
BITMAP
0C00
1200
0000
0800
0C00
1400
1600
1200
3F00
2100
4180
E3C0
0000
0800
0C00
ENDCHAR
STARTCHAR uni1EAD
ENCODING 7853
SWIDTH 480 0
DWIDTH 7 0
BBX 6 13 1 -3
BITMAP
60
90
00
F0
90
10
70
90
90
FC
00
20
60
ENDCHAR
STARTCHAR uni1EAE
ENCODING 7854
SWIDTH 718 0
DWIDTH 10 0
BBX 10 13 0 0
BITMAP
0600
1A00
1C00
0000
0800
0C00
1400
1600
1200
3F00
2100
4180
E3C0
ENDCHAR
STARTCHAR uni1EAF
ENCODING 7855
SWIDTH 480 0
DWIDTH 7 0
BBX 6 11 1 0
BITMAP
10
20
D0
70
F0
90
10
70
90
90
FC
ENDCHAR
STARTCHAR uni1EB0
ENCODING 7856
SWIDTH 718 0
DWIDTH 10 0
BBX 10 13 0 0
BITMAP
1800
1600
1C00
0000
0800
0C00
1400
1600
1200
3F00
2100
4180
E3C0
ENDCHAR
STARTCHAR uni1EB1
ENCODING 7857
SWIDTH 480 0
DWIDTH 7 0
BBX 6 11 1 0
BITMAP
40
40
B0
70
F0
90
10
70
90
90
FC
ENDCHAR
STARTCHAR uni1EB2
ENCODING 7858
SWIDTH 718 0
DWIDTH 10 0
BBX 10 14 0 0
BITMAP
0C00
0400
1A00
1C00
0000
0800
0C00
1400
1600
1200
3F00
2100
4180
E3C0
ENDCHAR
STARTCHAR uni1EB3
ENCODING 7859
SWIDTH 480 0
DWIDTH 7 0
BBX 6 11 1 0
BITMAP
60
10
B0
70
F0
90
10
70
90
90
FC
ENDCHAR
STARTCHAR uni1EB4
ENCODING 7860
SWIDTH 718 0
DWIDTH 10 0
BBX 10 14 0 0
BITMAP
1A00
1600
1200
0C00
0000
0800
0C00
1400
1600
1200
3F00
2100
4180
E3C0
ENDCHAR
STARTCHAR uni1EB5
ENCODING 7861
SWIDTH 480 0
DWIDTH 7 0
BBX 6 11 1 0
BITMAP
48
B0
90
70
F0
90
10
70
90
90
FC
ENDCHAR
STARTCHAR uni1EB6
ENCODING 7862
SWIDTH 718 0
DWIDTH 10 0
BBX 10 15 0 -3
BITMAP
1200
1C00
0000
0800
0C00
1400
1600
1200
3F00
2100
4180
E3C0
0000
0800
0C00
ENDCHAR
STARTCHAR uni1EB7
ENCODING 7863
SWIDTH 480 0
DWIDTH 7 0
BBX 6 13 1 -3
BITMAP
90
70
00
F0
90
10
70
90
90
FC
00
20
60
ENDCHAR
STARTCHAR uni1EB8
ENCODING 7864
SWIDTH 626 0
DWIDTH 9 0
BBX 8 12 0 -3
BITMAP
FF
21
22
22
3E
20
21
21
FF
00
08
08
ENDCHAR
STARTCHAR uni1EB9
ENCODING 7865
SWIDTH 464 0
DWIDTH 7 0
BBX 6 10 0 -3
BITMAP
38
44
7C
C0
40
64
38
00
10
10
ENDCHAR
STARTCHAR uni1EBA
ENCODING 7866
SWIDTH 626 0
DWIDTH 9 0
BBX 8 13 0 0
BITMAP
18
04
08
00
FF
21
22
22
3E
20
21
21
FF
ENDCHAR
STARTCHAR uni1EBB
ENCODING 7867
SWIDTH 464 0
DWIDTH 7 0
BBX 6 10 0 0
BITMAP
30
08
10
38
44
7C
C0
40
64
38
ENDCHAR
STARTCHAR uni1EBC
ENCODING 7868
SWIDTH 626 0
DWIDTH 9 0
BBX 8 12 0 0
BITMAP
1A
2C
00
FF
21
22
22
3E
20
21
21
FF
ENDCHAR
STARTCHAR uni1EBD
ENCODING 7869
SWIDTH 464 0
DWIDTH 7 0
BBX 6 10 0 0
BITMAP
34
58
00
38
44
7C
C0
40
64
38
ENDCHAR
STARTCHAR uni1EBE
ENCODING 7870
SWIDTH 626 0
DWIDTH 9 0
BBX 8 13 0 0
BITMAP
01
0A
36
00
FF
21
22
22
3E
20
21
21
FF
ENDCHAR
STARTCHAR uni1EBF
ENCODING 7871
SWIDTH 464 0
DWIDTH 7 0
BBX 7 11 0 0
BITMAP
02
04
14
68
38
44
7C
C0
40
64
38
ENDCHAR
STARTCHAR uni1EC0
ENCODING 7872
SWIDTH 626 0
DWIDTH 9 0
BBX 8 13 0 0
BITMAP
06
0B
36
00
FF
21
22
22
3E
20
21
21
FF
ENDCHAR
STARTCHAR uni1EC1
ENCODING 7873
SWIDTH 464 0
DWIDTH 7 0
BBX 6 10 0 0
BITMAP
08
14
68
38
44
7C
C0
40
64
38
ENDCHAR
STARTCHAR uni1EC2
ENCODING 7874
SWIDTH 626 0
DWIDTH 9 0
BBX 8 14 0 0
BITMAP
06
01
0A
36
00
FF
21
22
22
3E
20
21
21
FF
ENDCHAR
STARTCHAR uni1EC3
ENCODING 7875
SWIDTH 464 0
DWIDTH 7 0
BBX 7 11 0 0
BITMAP
0C
02
14
28
78
44
7C
C0
40
64
38
ENDCHAR
STARTCHAR uni1EC4
ENCODING 7876
SWIDTH 626 0
DWIDTH 9 0
BBX 8 14 0 0
BITMAP
1A
2C
08
36
00
FF
21
22
22
3E
20
21
21
FF
ENDCHAR
STARTCHAR uni1EC5
ENCODING 7877
SWIDTH 464 0
DWIDTH 7 0
BBX 6 11 0 0
BITMAP
34
58
10
68
38
44
7C
C0
40
64
38
ENDCHAR
STARTCHAR uni1EC6
ENCODING 7878
SWIDTH 626 0
DWIDTH 9 0
BBX 8 15 0 -3
BITMAP
08
36
00
FF
21
22
22
3E
20
21
21
FF
00
08
08
ENDCHAR
STARTCHAR uni1EC7
ENCODING 7879
SWIDTH 464 0
DWIDTH 7 0
BBX 6 13 0 -3
BITMAP
10
68
00
38
44
7C
C0
40
64
38
00
10
10
ENDCHAR
STARTCHAR uni1EC8
ENCODING 7880
SWIDTH 357 0
DWIDTH 5 0
BBX 5 13 0 0
BITMAP
70
10
20
00
F8
20
20
20
20
20
20
20
F8
ENDCHAR
STARTCHAR uni1EC9
ENCODING 7881
SWIDTH 285 0
DWIDTH 4 0
BBX 4 10 0 0
BITMAP
60
20
40
E0
60
60
60
60
60
F0
ENDCHAR
STARTCHAR uni1ECA
ENCODING 7882
SWIDTH 357 0
DWIDTH 5 0
BBX 5 12 0 -3
BITMAP
F8
20
20
20
20
20
20
20
F8
00
20
20
ENDCHAR
STARTCHAR uni1ECB
ENCODING 7883
SWIDTH 285 0
DWIDTH 4 0
BBX 4 12 0 -3
BITMAP
60
20
E0
60
60
60
60
60
F0
00
60
60
ENDCHAR
STARTCHAR uni1ECC
ENCODING 7884
SWIDTH 738 0
DWIDTH 10 0
BBX 9 12 1 -3
BITMAP
3C00
4300
8100
8180
8180
8180
C100
4300
3C00
0000
0800
1800
ENDCHAR
STARTCHAR uni1ECD
ENCODING 7885
SWIDTH 514 0
DWIDTH 7 0
BBX 7 10 0 -3
BITMAP
38
44
46
C6
46
44
38
00
10
10
ENDCHAR
STARTCHAR uni1ECE
ENCODING 7886
SWIDTH 738 0
DWIDTH 10 0
BBX 9 13 1 0
BITMAP
1800
0400
0800
0000
3C00
4300
8100
8180
8180
8180
C100
4300
3C00
ENDCHAR
STARTCHAR uni1ECF
ENCODING 7887
SWIDTH 514 0
DWIDTH 7 0
BBX 7 10 0 0
BITMAP
18
08
10
38
44
46
C6
46
44
38
ENDCHAR
STARTCHAR uni1ED0
ENCODING 7888
SWIDTH 738 0
DWIDTH 10 0
BBX 9 13 1 0
BITMAP
0100
1A00
2400
0000
3C00
4300
8100
8180
8180
8180
C100
4300
3C00
ENDCHAR
STARTCHAR uni1ED1
ENCODING 7889
SWIDTH 514 0
DWIDTH 7 0
BBX 7 11 0 0
BITMAP
02
04
14
2C
38
44
46
C6
46
44
38
ENDCHAR
STARTCHAR uni1ED2
ENCODING 7890
SWIDTH 738 0
DWIDTH 10 0
BBX 9 13 1 0
BITMAP
0400
1A00
2400
0000
3C00
4300
8100
8180
8180
8180
C100
4300
3C00
ENDCHAR
STARTCHAR uni1ED3
ENCODING 7891
SWIDTH 514 0
DWIDTH 7 0
BBX 7 10 0 0
BITMAP
0C
14
2C
38
44
46
C6
46
44
38
ENDCHAR
STARTCHAR uni1ED4
ENCODING 7892
SWIDTH 738 0
DWIDTH 10 0
BBX 9 14 1 0
BITMAP
0600
0200
1C00
2400
0000
3C00
4300
8100
8180
8180
8180
C100
4300
3C00
ENDCHAR
STARTCHAR uni1ED5
ENCODING 7893
SWIDTH 514 0
DWIDTH 7 0
BBX 7 11 0 0
BITMAP
0E
02
14
28
3C
44
46
C6
46
44
38
ENDCHAR
STARTCHAR uni1ED6
ENCODING 7894
SWIDTH 738 0
DWIDTH 10 0
BBX 9 14 1 0
BITMAP
1200
2C00
1800
2400
0000
3C00
4300
8100
8180
8180
8180
C100
4300
3C00
ENDCHAR
STARTCHAR uni1ED7
ENCODING 7895
SWIDTH 514 0
DWIDTH 7 0
BBX 7 11 0 0
BITMAP
34
48
10
2C
38
44
46
C6
46
44
38
ENDCHAR
STARTCHAR uni1ED8
ENCODING 7896
SWIDTH 738 0
DWIDTH 10 0
BBX 9 15 1 -3
BITMAP
1800
2400
0000
3C00
4300
8100
8180
8180
8180
C100
4300
3C00
0000
0800
1800
ENDCHAR
STARTCHAR uni1ED9
ENCODING 7897
SWIDTH 514 0
DWIDTH 7 0
BBX 7 13 0 -3
BITMAP
10
2C
00
38
44
46
C6
46
44
38
00
10
10
ENDCHAR
STARTCHAR uni1EDA
ENCODING 7898
SWIDTH 737 0
DWIDTH 10 0
BBX 9 12 1 0
BITMAP
0C80
1080
0080
3F00
4300
8100
8180
8180
8180
8100
4300
3C00
ENDCHAR
STARTCHAR uni1EDB
ENCODING 7899
SWIDTH 516 0
DWIDTH 7 0
BBX 7 10 0 0
BITMAP
08
12
02
3C
44
46
C6
46
44
38
ENDCHAR
STARTCHAR uni1EDC
ENCODING 7900
SWIDTH 737 0
DWIDTH 10 0
BBX 9 12 1 0
BITMAP
1080
0C80
0080
3F00
4300
8100
8180
8180
8180
8100
4300
3C00
ENDCHAR
STARTCHAR uni1EDD
ENCODING 7901
SWIDTH 516 0
DWIDTH 7 0
BBX 7 10 0 0
BITMAP
30
12
02
3C
44
46
C6
46
44
38
ENDCHAR
STARTCHAR uni1EDE
ENCODING 7902
SWIDTH 737 0
DWIDTH 10 0
BBX 9 13 1 0
BITMAP
1800
0480
0880
0080
3F00
4300
8100
8180
8180
8180
8100
4300
3C00
ENDCHAR
STARTCHAR uni1EDF
ENCODING 7903
SWIDTH 516 0
DWIDTH 7 0
BBX 7 10 0 0
BITMAP
18
0A
12
3C
44
46
C6
46
44
38
ENDCHAR
STARTCHAR uni1EE0
ENCODING 7904
SWIDTH 737 0
DWIDTH 10 0
BBX 9 12 1 0
BITMAP
3280
2C80
0080
3F00
4300
8100
8180
8180
8180
8100
4300
3C00
ENDCHAR
STARTCHAR uni1EE1
ENCODING 7905
SWIDTH 516 0
DWIDTH 7 0
BBX 7 9 0 0
BITMAP
7E
02
3C
44
46
C6
46
44
38
ENDCHAR
STARTCHAR uni1EE2
ENCODING 7906
SWIDTH 737 0
DWIDTH 10 0
BBX 9 15 1 -3
BITMAP
0080
0080
0080
3F00
4300
8100
8180
8180
8180
8100
4300
3C00
0000
0800
1800
ENDCHAR
STARTCHAR uni1EE3
ENCODING 7907
SWIDTH 516 0
DWIDTH 7 0
BBX 7 12 0 -3
BITMAP
02
02
3C
44
46
C6
46
44
38
00
10
10
ENDCHAR
STARTCHAR uni1EE4
ENCODING 7908
SWIDTH 752 0
DWIDTH 11 0
BBX 10 12 0 -3
BITMAP
F1C0
2080
2080
2080
2080
2080
2080
3080
1F00
0000
0400
0400
ENDCHAR
STARTCHAR uni1EE5
ENCODING 7909
SWIDTH 570 0
DWIDTH 8 0
BBX 8 10 0 -3
BITMAP
CE
46
46
46
46
66
3F
00
10
18
ENDCHAR
STARTCHAR uni1EE6
ENCODING 7910
SWIDTH 752 0
DWIDTH 11 0
BBX 10 13 0 0
BITMAP
0E00
0200
0400
0000
F1C0
2080
2080
2080
2080
2080
2080
3080
1F00
ENDCHAR
STARTCHAR uni1EE7
ENCODING 7911
SWIDTH 570 0
DWIDTH 8 0
BBX 8 10 0 0
BITMAP
18
08
10
CE
46
46
46
46
66
3F
ENDCHAR
STARTCHAR uni1EE8
ENCODING 7912
SWIDTH 762 0
DWIDTH 11 0
BBX 12 12 0 0
BITMAP
0620
0C30
0020
F1C0
2080
2080
2080
2080
2080
2080
3100
1E00
ENDCHAR
STARTCHAR uni1EE9
ENCODING 7913
SWIDTH 574 0
DWIDTH 8 0
BBX 8 10 0 0
BITMAP
08
11
01
CE
46
46
46
46
66
3F
ENDCHAR
STARTCHAR uni1EEA
ENCODING 7914
SWIDTH 762 0
DWIDTH 11 0
BBX 12 12 0 0
BITMAP
0C20
0230
0020
F1C0
2080
2080
2080
2080
2080
2080
3100
1E00
ENDCHAR
STARTCHAR uni1EEB
ENCODING 7915
SWIDTH 574 0
DWIDTH 8 0
BBX 8 10 0 0
BITMAP
30
19
01
CE
46
46
46
46
66
3F
ENDCHAR
STARTCHAR uni1EEC
ENCODING 7916
SWIDTH 762 0
DWIDTH 11 0
BBX 12 13 0 0
BITMAP
0E00
0220
0430
0020
F1C0
2080
2080
2080
2080
2080
2080
3100
1E00
ENDCHAR
STARTCHAR uni1EED
ENCODING 7917
SWIDTH 574 0
DWIDTH 8 0
BBX 8 10 0 0
BITMAP
18
09
11
CE
46
46
46
46
66
3F
ENDCHAR
STARTCHAR uni1EEE
ENCODING 7918
SWIDTH 762 0
DWIDTH 11 0
BBX 12 12 0 0
BITMAP
0D20
1230
0020
F1C0
2080
2080
2080
2080
2080
2080
3100
1E00
ENDCHAR
STARTCHAR uni1EEF
ENCODING 7919
SWIDTH 574 0
DWIDTH 8 0
BBX 8 10 0 0
BITMAP
34
4D
01
CE
46
46
46
46
66
3F
ENDCHAR
STARTCHAR uni1EF0
ENCODING 7920
SWIDTH 762 0
DWIDTH 11 0
BBX 12 15 0 -3
BITMAP
0020
0030
0020
F1C0
2080
2080
2080
2080
2080
2080
3100
1E00
0000
0400
0400
ENDCHAR
STARTCHAR uni1EF1
ENCODING 7921
SWIDTH 574 0
DWIDTH 8 0
BBX 8 12 0 -3
BITMAP
01
01
CE
46
46
46
46
66
3F
00
10
18
ENDCHAR
STARTCHAR Ygrave
ENCODING 7922
SWIDTH 647 0
DWIDTH 9 0
BBX 9 12 0 0
BITMAP
1800
0400
0000
F380
2100
3200
1400
1C00
0800
0800
0800
1E00
ENDCHAR
STARTCHAR ygrave
ENCODING 7923
SWIDTH 483 0
DWIDTH 7 0
BBX 7 13 0 -3
BITMAP
30
10
00
E6
44
64
28
38
10
10
10
20
C0
ENDCHAR
STARTCHAR uni1EF4
ENCODING 7924
SWIDTH 647 0
DWIDTH 9 0
BBX 9 12 0 -3
BITMAP
F380
2100
3200
1400
1C00
0800
0800
0800
1E00
0000
0800
0800
ENDCHAR
STARTCHAR uni1EF5
ENCODING 7925
SWIDTH 483 0
DWIDTH 7 0
BBX 7 10 0 -3
BITMAP
E6
44
64
28
38
10
10
10
28
CC
ENDCHAR
STARTCHAR uni1EF6
ENCODING 7926
SWIDTH 647 0
DWIDTH 9 0
BBX 9 13 0 0
BITMAP
0C00
0400
0800
0000
F380
2100
3200
1400
1C00
0800
0800
0800
1E00
ENDCHAR
STARTCHAR uni1EF7
ENCODING 7927
SWIDTH 483 0
DWIDTH 7 0
BBX 7 13 0 -3
BITMAP
18
08
10
E6
44
64
28
38
10
10
10
20
C0
ENDCHAR
STARTCHAR uni1EF8
ENCODING 7928
SWIDTH 647 0
DWIDTH 9 0
BBX 9 12 0 0
BITMAP
1A00
2600
0000
F380
2100
3200
1400
1C00
0800
0800
0800
1E00
ENDCHAR
STARTCHAR uni1EF9
ENCODING 7929
SWIDTH 483 0
DWIDTH 7 0
BBX 7 13 0 -3
BITMAP
34
48
00
E6
44
64
28
38
10
10
10
20
C0
ENDCHAR
STARTCHAR uni2000
ENCODING 8192
SWIDTH 500 0
DWIDTH 7 0
BBX 1 1 0 0
BITMAP
00
ENDCHAR
STARTCHAR uni2001
ENCODING 8193
SWIDTH 1000 0
DWIDTH 14 0
BBX 1 1 0 0
BITMAP
00
ENDCHAR
STARTCHAR uni2002
ENCODING 8194
SWIDTH 500 0
DWIDTH 7 0
BBX 1 1 0 0
BITMAP
00
ENDCHAR
STARTCHAR uni2003
ENCODING 8195
SWIDTH 1000 0
DWIDTH 14 0
BBX 1 1 0 0
BITMAP
00
ENDCHAR
STARTCHAR uni2004
ENCODING 8196
SWIDTH 334 0
DWIDTH 5 0
BBX 1 1 0 0
BITMAP
00
ENDCHAR
STARTCHAR uni2005
ENCODING 8197
SWIDTH 250 0
DWIDTH 4 0
BBX 1 1 0 0
BITMAP
00
ENDCHAR
STARTCHAR uni2006
ENCODING 8198
SWIDTH 167 0
DWIDTH 2 0
BBX 1 1 0 0
BITMAP
00
ENDCHAR
STARTCHAR uni2007
ENCODING 8199
SWIDTH 560 0
DWIDTH 8 0
BBX 1 1 0 0
BITMAP
00
ENDCHAR
STARTCHAR uni2008
ENCODING 8200
SWIDTH 297 0
DWIDTH 4 0
BBX 1 1 0 0
BITMAP
00
ENDCHAR
STARTCHAR uni2009
ENCODING 8201
SWIDTH 125 0
DWIDTH 2 0
BBX 1 1 0 0
BITMAP
00
ENDCHAR
STARTCHAR uni200A
ENCODING 8202
SWIDTH 63 0
DWIDTH 1 0
BBX 1 1 0 0
BITMAP
00
ENDCHAR
STARTCHAR uni200B
ENCODING 8203
SWIDTH 0 0
DWIDTH 0 0
BBX 1 1 0 0
BITMAP
00
ENDCHAR
STARTCHAR uni200C
ENCODING 8204
SWIDTH 0 0
DWIDTH 0 0
BBX 1 15 0 -4
BITMAP
80
80
80
80
80
80
80
80
80
80
80
80
80
80
80
ENDCHAR
STARTCHAR uni200D
ENCODING 8205
SWIDTH 0 0
DWIDTH 0 0
BBX 4 16 -2 -4
BITMAP
F0
60
D0
40
40
40
40
40
40
40
40
40
40
40
40
40
ENDCHAR
STARTCHAR uni2010
ENCODING 8208
SWIDTH 315 0
DWIDTH 4 0
BBX 3 1 1 3
BITMAP
E0
ENDCHAR
STARTCHAR uni2011
ENCODING 8209
SWIDTH 315 0
DWIDTH 4 0
BBX 3 1 1 3
BITMAP
E0
ENDCHAR
STARTCHAR figuredash
ENCODING 8210
SWIDTH 495 0
DWIDTH 7 0
BBX 7 1 0 3
BITMAP
FE
ENDCHAR
STARTCHAR endash
ENCODING 8211
SWIDTH 500 0
DWIDTH 7 0
BBX 7 1 0 3
BITMAP
FE
ENDCHAR
STARTCHAR emdash
ENCODING 8212
SWIDTH 1000 0
DWIDTH 14 0
BBX 14 1 0 3
BITMAP
FFFC
ENDCHAR
STARTCHAR uni2015
ENCODING 8213
SWIDTH 940 0
DWIDTH 13 0
BBX 13 1 0 3
BITMAP
FFF8
ENDCHAR
STARTCHAR uni2016
ENCODING 8214
SWIDTH 427 0
DWIDTH 6 0
BBX 4 13 1 -3
BITMAP
90
90
90
90
90
90
90
90
90
90
90
90
90
ENDCHAR
STARTCHAR underscoredbl
ENCODING 8215
SWIDTH 512 0
DWIDTH 7 0
BBX 7 3 0 -4
BITMAP
FE
00
FE
ENDCHAR
STARTCHAR quoteleft
ENCODING 8216
SWIDTH 245 0
DWIDTH 3 0
BBX 2 3 1 7
BITMAP
C0
80
C0
ENDCHAR
STARTCHAR quoteright
ENCODING 8217
SWIDTH 245 0
DWIDTH 3 0
BBX 2 4 1 6
BITMAP
80
C0
80
80
ENDCHAR
STARTCHAR quotesinglbase
ENCODING 8218
SWIDTH 243 0
DWIDTH 3 0
BBX 2 4 1 -2
BITMAP
80
C0
40
80
ENDCHAR
STARTCHAR quotereversed
ENCODING 8219
SWIDTH 243 0
DWIDTH 3 0
BBX 2 4 1 6
BITMAP
C0
80
80
40
ENDCHAR
STARTCHAR quotedblleft
ENCODING 8220
SWIDTH 435 0
DWIDTH 6 0
BBX 4 3 1 7
BITMAP
D0
B0
D0
ENDCHAR
STARTCHAR quotedblright
ENCODING 8221
SWIDTH 434 0
DWIDTH 6 0
BBX 4 4 1 6
BITMAP
B0
D0
90
A0
ENDCHAR
STARTCHAR quotedblbase
ENCODING 8222
SWIDTH 433 0
DWIDTH 6 0
BBX 4 4 1 -2
BITMAP
90
F0
50
A0
ENDCHAR
STARTCHAR uni201F
ENCODING 8223
SWIDTH 434 0
DWIDTH 6 0
BBX 4 4 1 6
BITMAP
D0
B0
90
50
ENDCHAR
STARTCHAR dagger
ENCODING 8224
SWIDTH 512 0
DWIDTH 7 0
BBX 5 12 1 -2
BITMAP
20
20
20
F8
20
20
20
20
20
20
20
20
ENDCHAR
STARTCHAR daggerdbl
ENCODING 8225
SWIDTH 512 0
DWIDTH 7 0
BBX 5 12 1 -2
BITMAP
20
20
20
F8
20
20
20
20
F8
20
20
20
ENDCHAR
STARTCHAR bullet
ENCODING 8226
SWIDTH 457 0
DWIDTH 6 0
BBX 3 4 2 2
BITMAP
C0
E0
E0
C0
ENDCHAR
STARTCHAR twodotenleader
ENCODING 8229
SWIDTH 500 0
DWIDTH 7 0
BBX 5 2 1 0
BITMAP
88
88
ENDCHAR
STARTCHAR ellipsis
ENCODING 8230
SWIDTH 887 0
DWIDTH 12 0
BBX 10 2 1 0
BITMAP
4440
CCC0
ENDCHAR
STARTCHAR uni202F
ENCODING 8239
SWIDTH 125 0
DWIDTH 2 0
BBX 1 1 0 0
BITMAP
00
ENDCHAR
STARTCHAR perthousand
ENCODING 8240
SWIDTH 1017 0
DWIDTH 14 0
BBX 13 9 1 0
BITMAP
7E00
9400
9400
A800
D230
1548
2948
2948
4670
ENDCHAR
STARTCHAR uni2031
ENCODING 8241
SWIDTH 1342 0
DWIDTH 19 0
BBX 17 9 1 0
BITMAP
7E0000
940000
940000
A80000
D23100
154A80
294C80
294C80
467300
ENDCHAR
STARTCHAR minute
ENCODING 8242
SWIDTH 296 0
DWIDTH 4 0
BBX 2 4 1 6
BITMAP
40
40
80
80
ENDCHAR
STARTCHAR second
ENCODING 8243
SWIDTH 436 0
DWIDTH 6 0
BBX 4 4 1 6
BITMAP
50
50
A0
A0
ENDCHAR
STARTCHAR uni2034
ENCODING 8244
SWIDTH 576 0
DWIDTH 8 0
BBX 6 4 1 6
BITMAP
54
54
A8
A8
ENDCHAR
STARTCHAR uni2035
ENCODING 8245
SWIDTH 296 0
DWIDTH 4 0
BBX 2 4 1 6
BITMAP
80
80
40
40
ENDCHAR
STARTCHAR uni2036
ENCODING 8246
SWIDTH 436 0
DWIDTH 6 0
BBX 4 4 1 6
BITMAP
A0
A0
50
50
ENDCHAR
STARTCHAR uni2037
ENCODING 8247
SWIDTH 576 0
DWIDTH 8 0
BBX 6 4 1 6
BITMAP
A8
A8
54
54
ENDCHAR
STARTCHAR uni2038
ENCODING 8248
SWIDTH 523 0
DWIDTH 7 0
BBX 6 4 1 -2
BITMAP
20
50
88
84
ENDCHAR
STARTCHAR guilsinglleft
ENCODING 8249
SWIDTH 307 0
DWIDTH 4 0
BBX 4 6 0 0
BITMAP
30
40
C0
40
20
10
ENDCHAR
STARTCHAR guilsinglright
ENCODING 8250
SWIDTH 307 0
DWIDTH 4 0
BBX 3 6 1 0
BITMAP
80
40
20
40
80
80
ENDCHAR
STARTCHAR uni203B
ENCODING 8251
SWIDTH 701 0
DWIDTH 10 0
BBX 8 8 1 0
BITMAP
99
52
24
9A
DB
24
52
99
ENDCHAR
STARTCHAR exclamdbl
ENCODING 8252
SWIDTH 565 0
DWIDTH 8 0
BBX 6 9 1 0
BITMAP
CC
CC
CC
C8
88
88
88
C8
CC
ENDCHAR
STARTCHAR uni203E
ENCODING 8254
SWIDTH 512 0
DWIDTH 7 0
BBX 7 1 0 11
BITMAP
FE
ENDCHAR
STARTCHAR uni2040
ENCODING 8256
SWIDTH 810 0
DWIDTH 11 0
BBX 9 3 1 7
BITMAP
3E00
4180
8080
ENDCHAR
STARTCHAR uni2043
ENCODING 8259
SWIDTH 352 0
DWIDTH 5 0
BBX 3 2 1 3
BITMAP
E0
E0
ENDCHAR
STARTCHAR fraction
ENCODING 8260
SWIDTH 205 0
DWIDTH 3 0
BBX 7 10 -2 0
BITMAP
02
04
08
08
10
10
20
40
40
80
ENDCHAR
STARTCHAR uni2047
ENCODING 8263
SWIDTH 822 0
DWIDTH 12 0
BBX 11 9 0 0
BITMAP
79C0
CA20
4B20
0820
1040
1080
2080
2080
3080
ENDCHAR
STARTCHAR uni204B
ENCODING 8267
SWIDTH 605 0
DWIDTH 8 0
BBX 7 12 1 -3
BITMAP
FC
54
52
56
54
58
50
50
50
50
50
D8
ENDCHAR
STARTCHAR uni204C
ENCODING 8268
SWIDTH 479 0
DWIDTH 7 0
BBX 5 4 1 2
BITMAP
78
D0
D0
78
ENDCHAR
STARTCHAR uni204D
ENCODING 8269
SWIDTH 479 0
DWIDTH 7 0
BBX 5 4 1 2
BITMAP
F0
78
70
F0
ENDCHAR
STARTCHAR uni204E
ENCODING 8270
SWIDTH 410 0
DWIDTH 6 0
BBX 4 5 1 -2
BITMAP
40
D0
60
D0
40
ENDCHAR
STARTCHAR uni204F
ENCODING 8271
SWIDTH 245 0
DWIDTH 3 0
BBX 2 9 1 -2
BITMAP
C0
80
00
00
00
80
C0
80
C0
ENDCHAR
STARTCHAR uni2050
ENCODING 8272
SWIDTH 809 0
DWIDTH 11 0
BBX 9 10 1 0
BITMAP
3E00
4180
8080
0000
0000
0000
0000
8080
4180
3E00
ENDCHAR
STARTCHAR uni2051
ENCODING 8273
SWIDTH 410 0
DWIDTH 6 0
BBX 4 11 1 -1
BITMAP
40
D0
60
F0
40
00
40
D0
60
D0
40
ENDCHAR
STARTCHAR uni2052
ENCODING 8274
SWIDTH 482 0
DWIDTH 7 0
BBX 5 14 1 -3
BITMAP
08
C8
90
10
10
20
20
20
40
40
40
40
98
90
ENDCHAR
STARTCHAR uni2057
ENCODING 8279
SWIDTH 727 0
DWIDTH 10 0
BBX 8 4 1 6
BITMAP
55
55
AA
AA
ENDCHAR
STARTCHAR uni205F
ENCODING 8287
SWIDTH 222 0
DWIDTH 3 0
BBX 1 1 0 0
BITMAP
00
ENDCHAR
STARTCHAR uni2061
ENCODING 8289
SWIDTH 0 0
DWIDTH 0 0
BBX 1 1 0 0
BITMAP
00
ENDCHAR
STARTCHAR uni2062
ENCODING 8290
SWIDTH 0 0
DWIDTH 0 0
BBX 1 1 0 0
BITMAP
00
ENDCHAR
STARTCHAR uni2063
ENCODING 8291
SWIDTH 0 0
DWIDTH 0 0
BBX 1 1 0 0
BITMAP
00
ENDCHAR
STARTCHAR uni2064
ENCODING 8292
SWIDTH 0 0
DWIDTH 0 0
BBX 1 1 0 0
BITMAP
00
ENDCHAR
STARTCHAR zerosuperior
ENCODING 8304
SWIDTH 412 0
DWIDTH 6 0
BBX 5 6 0 4
BITMAP
70
48
C8
C8
48
70
ENDCHAR
STARTCHAR uni2071
ENCODING 8305
SWIDTH 245 0
DWIDTH 3 0
BBX 3 7 0 4
BITMAP
40
00
C0
40
40
40
E0
ENDCHAR
STARTCHAR foursuperior
ENCODING 8308
SWIDTH 403 0
DWIDTH 6 0
BBX 5 6 0 4
BITMAP
10
30
50
F8
10
10
ENDCHAR
STARTCHAR fivesuperior
ENCODING 8309
SWIDTH 358 0
DWIDTH 5 0
BBX 5 6 0 4
BITMAP
70
70
10
08
10
F0
ENDCHAR
STARTCHAR sixsuperior
ENCODING 8310
SWIDTH 390 0
DWIDTH 5 0
BBX 5 6 0 4
BITMAP
38
70
48
88
48
70
ENDCHAR
STARTCHAR sevensuperior
ENCODING 8311
SWIDTH 364 0
DWIDTH 5 0
BBX 5 6 0 4
BITMAP
78
88
10
10
20
20
ENDCHAR
STARTCHAR eightsuperior
ENCODING 8312
SWIDTH 374 0
DWIDTH 5 0
BBX 5 6 0 4
BITMAP
70
88
70
50
88
70
ENDCHAR
STARTCHAR ninesuperior
ENCODING 8313
SWIDTH 390 0
DWIDTH 5 0
BBX 5 6 0 4
BITMAP
70
88
C8
78
10
60
ENDCHAR
STARTCHAR uni207A
ENCODING 8314
SWIDTH 536 0
DWIDTH 8 0
BBX 6 6 1 4
BITMAP
20
20
FC
20
20
20
ENDCHAR
STARTCHAR uni207B
ENCODING 8315
SWIDTH 536 0
DWIDTH 8 0
BBX 6 1 1 6
BITMAP
FC
ENDCHAR
STARTCHAR uni207C
ENCODING 8316
SWIDTH 534 0
DWIDTH 7 0
BBX 6 3 1 5
BITMAP
FC
00
FC
ENDCHAR
STARTCHAR parenleftsuperior
ENCODING 8317
SWIDTH 268 0
DWIDTH 4 0
BBX 3 10 0 2
BITMAP
20
20
40
40
80
80
80
40
40
20
ENDCHAR
STARTCHAR parenrightsuperior
ENCODING 8318
SWIDTH 268 0
DWIDTH 4 0
BBX 3 10 0 2
BITMAP
80
40
20
20
20
20
20
20
20
C0
ENDCHAR
STARTCHAR nsuperior
ENCODING 8319
SWIDTH 491 0
DWIDTH 7 0
BBX 7 5 0 4
BITMAP
F8
44
44
44
EE
ENDCHAR
STARTCHAR zeroinferior
ENCODING 8320
SWIDTH 412 0
DWIDTH 6 0
BBX 5 6 0 -3
BITMAP
70
48
C8
C8
48
70
ENDCHAR
STARTCHAR oneinferior
ENCODING 8321
SWIDTH 333 0
DWIDTH 5 0
BBX 3 6 1 -3
BITMAP
C0
40
40
40
40
E0
ENDCHAR
STARTCHAR twoinferior
ENCODING 8322
SWIDTH 373 0
DWIDTH 5 0
BBX 5 6 0 -3
BITMAP
70
98
10
30
48
F8
ENDCHAR
STARTCHAR threeinferior
ENCODING 8323
SWIDTH 374 0
DWIDTH 5 0
BBX 5 6 0 -3
BITMAP
70
90
30
08
08
F0
ENDCHAR
STARTCHAR fourinferior
ENCODING 8324
SWIDTH 403 0
DWIDTH 6 0
BBX 5 6 0 -3
BITMAP
10
30
50
F8
10
10
ENDCHAR
STARTCHAR fiveinferior
ENCODING 8325
SWIDTH 358 0
DWIDTH 5 0
BBX 5 6 0 -3
BITMAP
70
70
10
08
10
F0
ENDCHAR
STARTCHAR sixinferior
ENCODING 8326
SWIDTH 390 0
DWIDTH 5 0
BBX 5 6 0 -3
BITMAP
38
70
48
88
48
70
ENDCHAR
STARTCHAR seveninferior
ENCODING 8327
SWIDTH 364 0
DWIDTH 5 0
BBX 5 6 0 -3
BITMAP
78
88
10
10
20
20
ENDCHAR
STARTCHAR eightinferior
ENCODING 8328
SWIDTH 374 0
DWIDTH 5 0
BBX 5 6 0 -3
BITMAP
70
88
70
50
88
70
ENDCHAR
STARTCHAR nineinferior
ENCODING 8329
SWIDTH 390 0
DWIDTH 5 0
BBX 5 6 0 -3
BITMAP
70
88
C8
78
10
60
ENDCHAR
STARTCHAR uni208A
ENCODING 8330
SWIDTH 536 0
DWIDTH 8 0
BBX 6 6 1 -3
BITMAP
20
20
FC
20
20
20
ENDCHAR
STARTCHAR uni208B
ENCODING 8331
SWIDTH 536 0
DWIDTH 8 0
BBX 6 1 1 -1
BITMAP
FC
ENDCHAR
STARTCHAR uni208C
ENCODING 8332
SWIDTH 534 0
DWIDTH 7 0
BBX 6 3 1 -2
BITMAP
FC
00
FC
ENDCHAR
STARTCHAR parenleftinferior
ENCODING 8333
SWIDTH 268 0
DWIDTH 4 0
BBX 3 10 0 -5
BITMAP
20
20
40
40
80
80
80
40
40
20
ENDCHAR
STARTCHAR parenrightinferior
ENCODING 8334
SWIDTH 268 0
DWIDTH 4 0
BBX 3 10 0 -5
BITMAP
80
40
20
20
20
20
20
20
20
C0
ENDCHAR
STARTCHAR uni20A3
ENCODING 8355
SWIDTH 495 0
DWIDTH 7 0
BBX 7 9 0 0
BITMAP
FE
22
20
F8
20
F8
20
20
F0
ENDCHAR
STARTCHAR uni20A4
ENCODING 8356
SWIDTH 495 0
DWIDTH 7 0
BBX 7 9 0 0
BITMAP
1C
24
20
78
78
20
20
62
FC
ENDCHAR
STARTCHAR uni20A7
ENCODING 8359
SWIDTH 1193 0
DWIDTH 17 0
BBX 15 9 1 0
BITMAP
F800
4480
45CE
4592
7998
418C
4182
4192
E0DE
ENDCHAR
STARTCHAR uni20AB
ENCODING 8363
SWIDTH 495 0
DWIDTH 7 0
BBX 5 9 1 0
BITMAP
38
78
78
98
98
98
98
F8
F8
ENDCHAR
STARTCHAR Euro
ENCODING 8364
SWIDTH 495 0
DWIDTH 7 0
BBX 7 9 0 0
BITMAP
3E
22
42
F8
F8
40
60
22
3C
ENDCHAR
STARTCHAR uni20B9
ENCODING 8377
SWIDTH 495 0
DWIDTH 7 0
BBX 6 9 1 0
BITMAP
F8
10
F8
10
E0
20
30
10
0C
ENDCHAR
STARTCHAR uni20BA
ENCODING 8378
SWIDTH 495 0
DWIDTH 7 0
BBX 7 9 0 0
BITMAP
F0
60
60
78
F8
E0
66
64
FC
ENDCHAR
STARTCHAR uni20BD
ENCODING 8381
SWIDTH 495 0
DWIDTH 7 0
BBX 7 9 0 0
BITMAP
F8
24
26
24
F8
20
F8
20
F0
ENDCHAR
STARTCHAR uni20D0
ENCODING 8400
SWIDTH 0 0
DWIDTH 0 0
BBX 6 2 -6 9
BITMAP
40
FC
ENDCHAR
STARTCHAR uni20D1
ENCODING 8401
SWIDTH 0 0
DWIDTH 0 0
BBX 6 2 -6 9
BITMAP
08
FC
ENDCHAR
STARTCHAR uni20D2
ENCODING 8402
SWIDTH 0 0
DWIDTH 0 0
BBX 1 12 -4 -2
BITMAP
80
80
80
80
80
80
80
80
80
80
80
80
ENDCHAR
STARTCHAR uni20D3
ENCODING 8403
SWIDTH 0 0
DWIDTH 0 0
BBX 1 10 -4 -2
BITMAP
80
80
80
80
80
80
80
80
80
80
ENDCHAR
STARTCHAR uni20D4
ENCODING 8404
SWIDTH 0 0
DWIDTH 0 0
BBX 8 4 -8 8
BITMAP
1C
A2
41
71
ENDCHAR
STARTCHAR uni20D5
ENCODING 8405
SWIDTH 0 0
DWIDTH 0 0
BBX 7 4 -6 8
BITMAP
70
8A
86
8C
ENDCHAR
STARTCHAR uni20D6
ENCODING 8406
SWIDTH 0 0
DWIDTH 0 0
BBX 6 3 -6 8
BITMAP
C0
FC
C0
ENDCHAR
STARTCHAR uni20D7
ENCODING 8407
SWIDTH 0 0
DWIDTH 0 0
BBX 6 3 -6 8
BITMAP
08
FC
08
ENDCHAR
STARTCHAR uni20D8
ENCODING 8408
SWIDTH 0 0
DWIDTH 0 0
BBX 4 5 -5 2
BITMAP
60
90
90
90
60
ENDCHAR
STARTCHAR uni20D9
ENCODING 8409
SWIDTH 0 0
DWIDTH 0 0
BBX 5 5 -5 2
BITMAP
60
B8
90
90
60
ENDCHAR
STARTCHAR uni20DA
ENCODING 8410
SWIDTH 0 0
DWIDTH 0 0
BBX 5 5 -5 2
BITMAP
60
90
90
B8
60
ENDCHAR
STARTCHAR uni20DB
ENCODING 8411
SWIDTH 0 0
DWIDTH 0 0
BBX 7 1 -7 8
BITMAP
D2
ENDCHAR
STARTCHAR uni20DC
ENCODING 8412
SWIDTH 0 0
DWIDTH 0 0
BBX 10 1 -8 8
BITMAP
96C0
ENDCHAR
STARTCHAR uni20DD
ENCODING 8413
SWIDTH 0 0
DWIDTH 0 0
BBX 14 14 -10 -3
BITMAP
0F80
1060
2010
4008
8008
8008
8004
8004
8008
8008
4008
2010
1060
0F80
ENDCHAR
STARTCHAR uni20DE
ENCODING 8414
SWIDTH 0 0
DWIDTH 0 0
BBX 14 14 -10 -3
BITMAP
FFFC
8004
8004
8004
8004
8004
8004
8004
8004
8004
8004
8004
8004
FFFC
ENDCHAR
STARTCHAR uni20DF
ENCODING 8415
SWIDTH 0 0
DWIDTH 0 0
BBX 17 17 -12 -5
BITMAP
008000
01C000
032000
061000
0C0800
180400
300200
600100
C00080
600100
300200
180400
0C0800
061000
032000
01C000
008000
ENDCHAR
STARTCHAR uni20E1
ENCODING 8417
SWIDTH 0 0
DWIDTH 0 0
BBX 7 3 -7 8
BITMAP
64
FE
64
ENDCHAR
STARTCHAR uni20E4
ENCODING 8420
SWIDTH 0 0
DWIDTH 0 0
BBX 21 17 -14 -2
BITMAP
002000
003000
005000
005800
008800
018400
010600
020200
020100
040180
0C0080
080040
100040
300020
200030
600010
FFFFF8
ENDCHAR
STARTCHAR uni20E5
ENCODING 8421
SWIDTH 0 0
DWIDTH 0 0
BBX 6 12 -6 -2
BITMAP
80
80
40
40
20
20
20
10
10
08
08
0C
ENDCHAR
STARTCHAR uni20E6
ENCODING 8422
SWIDTH 0 0
DWIDTH 0 0
BBX 3 12 -5 -2
BITMAP
A0
A0
A0
A0
A0
A0
A0
A0
A0
A0
A0
A0
ENDCHAR
STARTCHAR uni20E7
ENCODING 8423
SWIDTH 0 0
DWIDTH 0 0
BBX 12 13 -9 -3
BITMAP
FFF0
0010
0010
0010
0010
0010
0010
0010
0010
0010
0010
0010
0010
ENDCHAR
STARTCHAR uni20E8
ENCODING 8424
SWIDTH 0 0
DWIDTH 0 0
BBX 7 1 -7 -3
BITMAP
D2
ENDCHAR
STARTCHAR uni20E9
ENCODING 8425
SWIDTH 0 0
DWIDTH 0 0
BBX 8 2 -7 8
BITMAP
FF
81
ENDCHAR
STARTCHAR uni20EA
ENCODING 8426
SWIDTH 0 0
DWIDTH 0 0
BBX 11 5 -9 1
BITMAP
2000
4000
FFE0
4000
2000
ENDCHAR
STARTCHAR uni20EB
ENCODING 8427
SWIDTH 0 0
DWIDTH 0 0
BBX 9 14 -8 -3
BITMAP
0280
0480
0500
0900
0900
0A00
1200
1400
2400
2400
2800
4800
5000
9000
ENDCHAR
STARTCHAR uni20EC
ENCODING 8428
SWIDTH 0 0
DWIDTH 0 0
BBX 6 2 -6 -4
BITMAP
FC
08
ENDCHAR
STARTCHAR uni20ED
ENCODING 8429
SWIDTH 0 0
DWIDTH 0 0
BBX 6 2 -6 -4
BITMAP
FC
40
ENDCHAR
STARTCHAR uni20EE
ENCODING 8430
SWIDTH 0 0
DWIDTH 0 0
BBX 6 3 -6 -4
BITMAP
C0
FC
C0
ENDCHAR
STARTCHAR uni20EF
ENCODING 8431
SWIDTH 0 0
DWIDTH 0 0
BBX 6 3 -6 -4
BITMAP
08
FC
08
ENDCHAR
STARTCHAR uni20F0
ENCODING 8432
SWIDTH 0 0
DWIDTH 0 0
BBX 4 5 -5 7
BITMAP
40
D0
60
D0
40
ENDCHAR
STARTCHAR uni2100
ENCODING 8448
SWIDTH 939 0
DWIDTH 13 0
BBX 12 10 1 0
BITMAP
00C0
6080
9100
7100
9260
BCB0
D510
0900
0990
10E0
ENDCHAR
STARTCHAR uni2101
ENCODING 8449
SWIDTH 936 0
DWIDTH 13 0
BBX 12 10 1 0
BITMAP
60C0
9080
3100
D100
92E0
FC90
04C0
0820
0910
10E0
ENDCHAR
STARTCHAR uni2102
ENCODING 8450
SWIDTH 695 0
DWIDTH 10 0
BBX 8 10 1 0
BITMAP
3C
43
C1
C0
C0
C0
C0
C1
43
3C
ENDCHAR
STARTCHAR uni2103
ENCODING 8451
SWIDTH 1028 0
DWIDTH 14 0
BBX 13 11 1 0
BITMAP
6000
9000
91F8
9218
6408
0400
0400
0400
0600
0208
01F0
ENDCHAR
STARTCHAR uni2104
ENCODING 8452
SWIDTH 646 0
DWIDTH 9 0
BBX 9 10 0 0
BITMAP
7800
1000
3C00
5400
D000
D000
5400
3880
1080
7F00
ENDCHAR
STARTCHAR uni2105
ENCODING 8453
SWIDTH 953 0
DWIDTH 13 0
BBX 12 10 1 0
BITMAP
6080
9100
8200
8200
84C0
F520
0910
1110
1120
20C0
ENDCHAR
STARTCHAR uni2106
ENCODING 8454
SWIDTH 1072 0
DWIDTH 15 0
BBX 14 10 1 0
BITMAP
6080
9100
8100
8200
9298
6488
0888
0888
1098
106C
ENDCHAR
STARTCHAR uni2107
ENCODING 8455
SWIDTH 612 0
DWIDTH 9 0
BBX 8 10 0 0
BITMAP
3F
61
41
60
1C
60
C0
C1
63
3C
ENDCHAR
STARTCHAR uni2108
ENCODING 8456
SWIDTH 669 0
DWIDTH 9 0
BBX 8 9 1 0
BITMAP
FC
86
A2
23
1F
03
02
86
78
ENDCHAR
STARTCHAR uni2109
ENCODING 8457
SWIDTH 949 0
DWIDTH 13 0
BBX 12 11 1 0
BITMAP
6000
9000
97F0
9210
6220
0220
03E0
0200
0200
0200
0780
ENDCHAR
STARTCHAR uni210A
ENCODING 8458
SWIDTH 657 0
DWIDTH 9 0
BBX 10 10 -1 -3
BITMAP
0780
0880
0900
1100
31C0
D300
1D00
2200
2200
3C00
ENDCHAR
STARTCHAR uni210B
ENCODING 8459
SWIDTH 951 0
DWIDTH 13 0
BBX 14 10 0 0
BITMAP
1F1C
2620
6420
2440
07C0
0440
08C0
0880
90D0
6060
ENDCHAR
STARTCHAR uni210C
ENCODING 8460
SWIDTH 728 0
DWIDTH 10 0
BBX 9 12 1 -3
BITMAP
1200
3C00
4000
4600
7B00
3100
3180
9100
E100
4200
3C00
4800
ENDCHAR
STARTCHAR uni210D
ENCODING 8461
SWIDTH 715 0
DWIDTH 10 0
BBX 8 10 1 0
BITMAP
C3
C3
C3
C3
C3
BD
C3
C3
C3
C3
ENDCHAR
STARTCHAR uni210E
ENCODING 8462
SWIDTH 569 0
DWIDTH 8 0
BBX 7 10 1 0
BITMAP
60
60
40
4C
54
64
CC
88
8A
8C
ENDCHAR
STARTCHAR uni210F
ENCODING 8463
SWIDTH 569 0
DWIDTH 8 0
BBX 7 10 1 0
BITMAP
60
78
E0
4C
54
64
CC
88
8A
8C
ENDCHAR
STARTCHAR uni2110
ENCODING 8464
SWIDTH 496 0
DWIDTH 7 0
BBX 7 10 0 0
BITMAP
1E
24
44
44
04
0C
08
08
90
60
ENDCHAR
STARTCHAR uni2111
ENCODING 8465
SWIDTH 673 0
DWIDTH 9 0
BBX 8 10 1 -1
BITMAP
79
CE
80
87
64
04
C6
E2
22
1C
ENDCHAR
STARTCHAR uni2112
ENCODING 8466
SWIDTH 699 0
DWIDTH 10 0
BBX 9 10 0 0
BITMAP
0700
0900
1800
1000
1000
1000
2000
4080
F900
8F00
ENDCHAR
STARTCHAR uni2113
ENCODING 8467
SWIDTH 529 0
DWIDTH 7 0
BBX 7 10 0 0
BITMAP
06
0A
12
12
2C
30
C0
48
48
30
ENDCHAR
STARTCHAR uni2114
ENCODING 8468
SWIDTH 787 0
DWIDTH 11 0
BBX 11 10 0 0
BITMAP
EC00
FF00
6400
65C0
6640
6460
6460
6440
6440
F780
ENDCHAR
STARTCHAR uni2115
ENCODING 8469
SWIDTH 692 0
DWIDTH 10 0
BBX 8 10 1 0
BITMAP
C1
A1
91
D1
A9
95
95
8B
85
83
ENDCHAR
STARTCHAR uni2116
ENCODING 8470
SWIDTH 1070 0
DWIDTH 15 0
BBX 15 10 0 0
BITMAP
3070
18B0
1880
1C98
14A4
12A2
13A4
1198
A080
E0BC
ENDCHAR
STARTCHAR uni2117
ENCODING 8471
SWIDTH 781 0
DWIDTH 11 0
BBX 9 10 1 0
BITMAP
3E00
4100
BC80
9280
9280
9C80
9080
B880
4100
3E00
ENDCHAR
STARTCHAR uni2118
ENCODING 8472
SWIDTH 846 0
DWIDTH 12 0
BBX 10 11 1 -3
BITMAP
3800
4380
8440
9840
B040
6440
7480
5300
D000
9000
6000
ENDCHAR
STARTCHAR uni2119
ENCODING 8473
SWIDTH 665 0
DWIDTH 9 0
BBX 8 10 1 0
BITMAP
FC
C6
C5
C5
C6
BC
C0
C0
C0
C0
ENDCHAR
STARTCHAR uni211A
ENCODING 8474
SWIDTH 751 0
DWIDTH 11 0
BBX 9 11 1 -1
BITMAP
3C00
4300
C100
C280
C280
C280
C280
C300
5900
3E00
0180
ENDCHAR
STARTCHAR uni211B
ENCODING 8475
SWIDTH 789 0
DWIDTH 11 0
BBX 10 10 0 0
BITMAP
0F00
34C0
2440
64C0
0580
0E00
0B00
0900
9140
E080
ENDCHAR
STARTCHAR uni211C
ENCODING 8476
SWIDTH 778 0
DWIDTH 11 0
BBX 9 10 1 0
BITMAP
6600
9B00
9100
DB00
5E00
D200
1300
1300
E380
C100
ENDCHAR
STARTCHAR uni211D
ENCODING 8477
SWIDTH 729 0
DWIDTH 10 0
BBX 9 10 1 0
BITMAP
FC00
C600
C500
C500
C600
BC00
CA00
CA00
C500
C380
ENDCHAR
STARTCHAR uni211E
ENCODING 8478
SWIDTH 725 0
DWIDTH 10 0
BBX 10 11 0 -1
BITMAP
FC00
2200
2300
2300
2200
3C00
24C0
2700
2300
F580
0800
ENDCHAR
STARTCHAR uni211F
ENCODING 8479
SWIDTH 659 0
DWIDTH 9 0
BBX 8 15 1 -3
BITMAP
18
04
F8
4C
4E
56
54
78
68
6C
46
F3
40
50
60
ENDCHAR
STARTCHAR uni2120
ENCODING 8480
SWIDTH 937 0
DWIDTH 13 0
BBX 12 6 1 3
BITMAP
EC30
A660
C6A0
25A0
9520
ED70
ENDCHAR
STARTCHAR uni2121
ENCODING 8481
SWIDTH 1200 0
DWIDTH 17 0
BBX 16 6 0 3
BITMAP
FBEC
A528
21C8
2148
2129
33EF
ENDCHAR
STARTCHAR trademark
ENCODING 8482
SWIDTH 881 0
DWIDTH 12 0
BBX 12 5 0 4
BITMAP
FE30
AB20
2360
22A0
76B0
ENDCHAR
STARTCHAR uni2123
ENCODING 8483
SWIDTH 680 0
DWIDTH 10 0
BBX 10 15 0 -3
BITMAP
0C00
0200
F3C0
6480
2500
2900
3A00
1200
1A00
1C00
2C00
2800
4000
2800
3000
ENDCHAR
STARTCHAR uni2124
ENCODING 8484
SWIDTH 648 0
DWIDTH 9 0
BBX 9 10 0 0
BITMAP
7F80
0500
0500
0A00
1400
1400
2800
5000
5000
FF80
ENDCHAR
STARTCHAR uni2125
ENCODING 8485
SWIDTH 434 0
DWIDTH 6 0
BBX 6 13 0 -3
BITMAP
78
90
20
78
10
30
58
08
0C
0C
08
C8
70
ENDCHAR
STARTCHAR uni2126
ENCODING 8486
SWIDTH 763 0
DWIDTH 11 0
BBX 10 9 0 0
BITMAP
1E00
2180
60C0
40C0
40C0
60C0
3180
8A40
FBC0
ENDCHAR
STARTCHAR uni2127
ENCODING 8487
SWIDTH 763 0
DWIDTH 11 0
BBX 10 10 0 0
BITMAP
FBC0
8A40
3180
6080
60C0
40C0
40C0
6080
2180
1E00
ENDCHAR
STARTCHAR uni2128
ENCODING 8488
SWIDTH 641 0
DWIDTH 9 0
BBX 7 13 1 -3
BITMAP
38
46
86
82
06
24
18
26
02
C2
E2
26
38
ENDCHAR
STARTCHAR uni2129
ENCODING 8489
SWIDTH 368 0
DWIDTH 5 0
BBX 4 7 0 0
BITMAP
60
B0
30
30
30
30
30
ENDCHAR
STARTCHAR uni212A
ENCODING 8490
SWIDTH 702 0
DWIDTH 10 0
BBX 10 9 0 0
BITMAP
FB80
2200
2400
2800
3800
2C00
2600
2300
FBC0
ENDCHAR
STARTCHAR uni212B
ENCODING 8491
SWIDTH 722 0
DWIDTH 10 0
BBX 10 12 0 0
BITMAP
0C00
1200
0C00
0C00
0C00
1600
1200
2200
3F00
2100
4180
E3C0
ENDCHAR
STARTCHAR uni212C
ENCODING 8492
SWIDTH 754 0
DWIDTH 11 0
BBX 9 10 1 0
BITMAP
1F00
6980
C880
8900
1E00
1180
1180
2100
2300
FC00
ENDCHAR
STARTCHAR uni212D
ENCODING 8493
SWIDTH 639 0
DWIDTH 9 0
BBX 7 10 1 0
BITMAP
36
CE
90
90
98
8C
8C
DA
64
78
ENDCHAR
STARTCHAR estimated
ENCODING 8494
SWIDTH 863 0
DWIDTH 12 0
BBX 12 10 0 -1
BITMAP
0F00
30C0
6020
6020
FFF0
6000
6000
6020
30C0
0F00
ENDCHAR
STARTCHAR uni212F
ENCODING 8495
SWIDTH 527 0
DWIDTH 7 0
BBX 7 7 0 0
BITMAP
0C
14
24
78
C2
44
38
ENDCHAR
STARTCHAR uni2130
ENCODING 8496
SWIDTH 572 0
DWIDTH 8 0
BBX 8 10 0 0
BITMAP
0E
31
22
10
1C
60
40
C2
46
38
ENDCHAR
STARTCHAR uni2131
ENCODING 8497
SWIDTH 713 0
DWIDTH 10 0
BBX 11 10 0 0
BITMAP
0F20
32C0
2600
2400
1F80
0400
0400
0800
9800
E000
ENDCHAR
STARTCHAR uni2132
ENCODING 8498
SWIDTH 588 0
DWIDTH 8 0
BBX 8 10 0 0
BITMAP
0F
04
04
04
44
7C
44
84
84
FF
ENDCHAR
STARTCHAR uni2133
ENCODING 8499
SWIDTH 1038 0
DWIDTH 15 0
BBX 15 10 0 0
BITMAP
180E
2C18
4E30
0A50
0A90
0A90
1330
1330
9234
E238
ENDCHAR
STARTCHAR uni2134
ENCODING 8500
SWIDTH 691 0
DWIDTH 10 0
BBX 11 7 -1 0
BITMAP
0700
09A0
09C0
1880
3100
D900
0E00
ENDCHAR
STARTCHAR uni2135
ENCODING 8501
SWIDTH 698 0
DWIDTH 10 0
BBX 8 10 1 0
BITMAP
84
86
C3
63
F2
9C
C6
C3
61
C1
ENDCHAR
STARTCHAR uni2136
ENCODING 8502
SWIDTH 654 0
DWIDTH 9 0
BBX 7 10 1 -1
BITMAP
98
FC
06
02
02
02
04
04
FE
80
ENDCHAR
STARTCHAR uni2137
ENCODING 8503
SWIDTH 517 0
DWIDTH 7 0
BBX 6 9 1 0
BITMAP
60
70
10
10
10
10
18
2C
E4
ENDCHAR
STARTCHAR uni2138
ENCODING 8504
SWIDTH 613 0
DWIDTH 9 0
BBX 6 10 1 -1
BITMAP
88
FC
04
08
08
08
0C
0C
08
08
ENDCHAR
STARTCHAR uni2139
ENCODING 8505
SWIDTH 361 0
DWIDTH 5 0
BBX 5 10 0 0
BITMAP
70
70
20
F0
70
70
70
70
70
F8
ENDCHAR
STARTCHAR uni213A
ENCODING 8506
SWIDTH 907 0
DWIDTH 13 0
BBX 11 9 1 0
BITMAP
3E20
6320
80A0
80E0
80C0
8080
8080
4100
3E00
ENDCHAR
STARTCHAR uni213B
ENCODING 8507
SWIDTH 1216 0
DWIDTH 17 0
BBX 17 6 0 3
BITMAP
F91D80
458E00
728400
4BC600
444900
E67B80
ENDCHAR
STARTCHAR uni213C
ENCODING 8508
SWIDTH 689 0
DWIDTH 10 0
BBX 9 7 0 0
BITMAP
FF80
5600
5600
5600
5600
5680
3300
ENDCHAR
STARTCHAR uni213D
ENCODING 8509
SWIDTH 552 0
DWIDTH 8 0
BBX 8 10 0 -3
BITMAP
41
A2
54
2C
18
14
1C
1C
1C
18
ENDCHAR
STARTCHAR uni213E
ENCODING 8510
SWIDTH 550 0
DWIDTH 8 0
BBX 7 10 1 0
BITMAP
FE
C0
C0
C0
C0
C0
C0
C0
C0
C0
ENDCHAR
STARTCHAR uni213F
ENCODING 8511
SWIDTH 714 0
DWIDTH 10 0
BBX 8 10 1 0
BITMAP
FF
C3
C3
C3
C3
C3
C3
C3
C3
C3
ENDCHAR
STARTCHAR uni2140
ENCODING 8512
SWIDTH 945 0
DWIDTH 13 0
BBX 12 15 1 -4
BITMAP
FFC0
9000
4800
4800
2400
1200
1200
0900
1200
1200
2400
4800
4800
9000
FFF0
ENDCHAR
STARTCHAR uni2141
ENCODING 8513
SWIDTH 711 0
DWIDTH 10 0
BBX 9 10 1 0
BITMAP
7C00
C600
8300
8100
E180
0180
0100
8100
C200
7C00
ENDCHAR
STARTCHAR uni2142
ENCODING 8514
SWIDTH 572 0
DWIDTH 8 0
BBX 7 10 0 0
BITMAP
FE
02
02
02
02
02
02
02
02
02
ENDCHAR
STARTCHAR uni2143
ENCODING 8515
SWIDTH 572 0
DWIDTH 8 0
BBX 7 9 0 0
BITMAP
02
02
02
02
02
02
02
02
FE
ENDCHAR
STARTCHAR uni2144
ENCODING 8516
SWIDTH 645 0
DWIDTH 9 0
BBX 9 10 0 0
BITMAP
0800
0800
0800
0800
0800
1C00
1400
2200
6300
C180
ENDCHAR
STARTCHAR uni2145
ENCODING 8517
SWIDTH 717 0
DWIDTH 10 0
BBX 10 10 0 0
BITMAP
3F00
3080
5180
5140
5140
5140
6180
A280
A300
FC00
ENDCHAR
STARTCHAR uni2146
ENCODING 8518
SWIDTH 607 0
DWIDTH 9 0
BBX 9 10 0 0
BITMAP
0180
0280
0280
3B00
6500
A500
A500
A600
AA00
7600
ENDCHAR
STARTCHAR uni2147
ENCODING 8519
SWIDTH 520 0
DWIDTH 7 0
BBX 7 7 0 0
BITMAP
18
64
AA
BE
A0
44
38
ENDCHAR
STARTCHAR uni2148
ENCODING 8520
SWIDTH 285 0
DWIDTH 4 0
BBX 4 10 0 0
BITMAP
30
30
00
70
50
60
60
A0
A0
C0
ENDCHAR
STARTCHAR uni2149
ENCODING 8521
SWIDTH 284 0
DWIDTH 4 0
BBX 6 13 -2 -3
BITMAP
0C
0C
00
1C
14
18
18
28
28
30
30
30
E0
ENDCHAR
STARTCHAR uni214A
ENCODING 8522
SWIDTH 680 0
DWIDTH 10 0
BBX 8 10 1 0
BITMAP
20
20
FE
A2
A1
22
3E
20
20
3E
ENDCHAR
STARTCHAR uni214B
ENCODING 8523
SWIDTH 736 0
DWIDTH 10 0
BBX 10 10 0 0
BITMAP
7380
9CC0
0C40
14C0
2280
7700
0900
0900
0900
0600
ENDCHAR
STARTCHAR uni214C
ENCODING 8524
SWIDTH 794 0
DWIDTH 11 0
BBX 11 10 0 0
BITMAP
6380
9440
3C60
5740
54C0
7580
1E40
1440
1400
1800
ENDCHAR
STARTCHAR uni214D
ENCODING 8525
SWIDTH 1010 0
DWIDTH 14 0
BBX 14 10 0 0
BITMAP
1030
3020
3840
4880
7CB8
CD20
0130
0208
0424
0438
ENDCHAR
STARTCHAR uni214E
ENCODING 8526
SWIDTH 473 0
DWIDTH 7 0
BBX 4 7 1 0
BITMAP
10
10
10
F0
10
10
F0
ENDCHAR
STARTCHAR uni214F
ENCODING 8527
SWIDTH 1161 0
DWIDTH 16 0
BBX 16 6 0 0
BITMAP
199C
2A54
2A54
2A54
1994
FFFF
ENDCHAR
STARTCHAR onethird
ENCODING 8531
SWIDTH 899 0
DWIDTH 13 0
BBX 11 10 1 0
BITMAP
0100
C100
4200
4400
45C0
E820
08C0
1020
2020
21C0
ENDCHAR
STARTCHAR twothirds
ENCODING 8532
SWIDTH 948 0
DWIDTH 13 0
BBX 13 10 0 0
BITMAP
0040
7080
9880
1100
2270
FA10
0430
0408
0808
1070
ENDCHAR
STARTCHAR uni2155
ENCODING 8533
SWIDTH 867 0
DWIDTH 12 0
BBX 11 10 1 0
BITMAP
0100
C100
4200
4400
45C0
E900
09C0
1020
2020
21C0
ENDCHAR
STARTCHAR uni2156
ENCODING 8534
SWIDTH 916 0
DWIDTH 13 0
BBX 12 10 0 0
BITMAP
0040
7080
9880
1100
2A70
FA40
0470
0410
0810
10F0
ENDCHAR
STARTCHAR uni2157
ENCODING 8535
SWIDTH 896 0
DWIDTH 13 0
BBX 12 10 0 0
BITMAP
00C0
7080
9100
3100
0A70
F280
04E0
0810
0810
10E0
ENDCHAR
STARTCHAR uni2158
ENCODING 8536
SWIDTH 929 0
DWIDTH 13 0
BBX 12 10 0 0
BITMAP
0040
1080
3080
5100
F970
1240
0470
0410
0810
18F0
ENDCHAR
STARTCHAR uni2159
ENCODING 8537
SWIDTH 871 0
DWIDTH 12 0
BBX 11 10 1 0
BITMAP
0100
C100
4200
4400
44C0
4900
AAC0
1320
2220
21C0
ENDCHAR
STARTCHAR uni215A
ENCODING 8538
SWIDTH 871 0
DWIDTH 12 0
BBX 12 10 0 0
BITMAP
0080
7080
7100
1200
1260
9480
6560
0990
1110
10E0
ENDCHAR
STARTCHAR oneeighth
ENCODING 8539
SWIDTH 887 0
DWIDTH 12 0
BBX 11 10 1 0
BITMAP
0100
C100
4200
44C0
4520
E940
08C0
1160
2120
21C0
ENDCHAR
STARTCHAR threeeighths
ENCODING 8540
SWIDTH 911 0
DWIDTH 13 0
BBX 12 10 0 0
BITMAP
00C0
7080
9100
3160
0A90
F2D0
0460
08B0
0890
10F0
ENDCHAR
STARTCHAR fiveeighths
ENCODING 8541
SWIDTH 891 0
DWIDTH 12 0
BBX 12 10 0 0
BITMAP
0080
7080
7100
1260
1290
E490
0460
08B0
1090
10F0
ENDCHAR
STARTCHAR seveneighths
ENCODING 8542
SWIDTH 847 0
DWIDTH 12 0
BBX 11 10 0 0
BITMAP
0180
7900
9200
12C0
2520
4920
08C0
1160
1120
21E0
ENDCHAR
STARTCHAR uni2190
ENCODING 8592
SWIDTH 948 0
DWIDTH 13 0
BBX 11 5 1 1
BITMAP
3000
4000
FFE0
4000
3000
ENDCHAR
STARTCHAR uni2191
ENCODING 8593
SWIDTH 523 0
DWIDTH 7 0
BBX 5 12 1 -2
BITMAP
20
20
70
A8
20
20
20
20
20
20
20
20
ENDCHAR
STARTCHAR uni2192
ENCODING 8594
SWIDTH 948 0
DWIDTH 13 0
BBX 11 5 1 1
BITMAP
0080
0040
FFE0
0040
0080
ENDCHAR
STARTCHAR uni2193
ENCODING 8595
SWIDTH 523 0
DWIDTH 7 0
BBX 5 12 1 -2
BITMAP
20
20
20
20
20
20
20
20
A8
70
30
20
ENDCHAR
STARTCHAR uni2194
ENCODING 8596
SWIDTH 948 0
DWIDTH 13 0
BBX 12 5 1 1
BITMAP
2080
4040
FFF0
4040
2080
ENDCHAR
STARTCHAR uni2195
ENCODING 8597
SWIDTH 523 0
DWIDTH 7 0
BBX 5 14 1 -3
BITMAP
20
20
70
A8
20
20
20
20
20
20
A8
70
30
20
ENDCHAR
STARTCHAR uni2196
ENCODING 8598
SWIDTH 948 0
DWIDTH 13 0
BBX 11 12 1 -3
BITMAP
F000
C000
A000
9000
0800
0400
0200
0100
0080
0040
0020
0020
ENDCHAR
STARTCHAR uni2197
ENCODING 8599
SWIDTH 948 0
DWIDTH 13 0
BBX 11 12 1 -3
BITMAP
01E0
0060
00A0
0120
0200
0400
0800
1000
3000
6000
C000
8000
ENDCHAR
STARTCHAR uni2198
ENCODING 8600
SWIDTH 948 0
DWIDTH 13 0
BBX 11 12 1 -2
BITMAP
8000
C000
6000
3000
1000
0800
0400
0200
0120
00A0
0060
01E0
ENDCHAR
STARTCHAR uni2199
ENCODING 8601
SWIDTH 948 0
DWIDTH 13 0
BBX 11 12 1 -2
BITMAP
0020
0020
0040
0080
0100
0200
0400
0800
9000
A000
C000
F000
ENDCHAR
STARTCHAR uni219A
ENCODING 8602
SWIDTH 948 0
DWIDTH 13 0
BBX 11 6 1 1
BITMAP
1080
2080
4100
FFE0
4200
3400
ENDCHAR
STARTCHAR uni219B
ENCODING 8603
SWIDTH 948 0
DWIDTH 13 0
BBX 11 6 1 1
BITMAP
0500
0480
0840
FFE0
1040
3080
ENDCHAR
STARTCHAR uni219C
ENCODING 8604
SWIDTH 948 0
DWIDTH 13 0
BBX 11 4 1 2
BITMAP
F800
61C0
5E20
4000
ENDCHAR
STARTCHAR uni219D
ENCODING 8605
SWIDTH 948 0
DWIDTH 13 0
BBX 11 4 1 2
BITMAP
01E0
7860
87A0
0040
ENDCHAR
STARTCHAR uni219E
ENCODING 8606
SWIDTH 948 0
DWIDTH 13 0
BBX 11 5 1 1
BITMAP
3600
4800
FFE0
4800
3600
ENDCHAR
STARTCHAR uni219F
ENCODING 8607
SWIDTH 523 0
DWIDTH 7 0
BBX 5 12 1 -2
BITMAP
20
20
70
A8
20
70
A8
20
20
20
20
20
ENDCHAR
STARTCHAR uni21A0
ENCODING 8608
SWIDTH 948 0
DWIDTH 13 0
BBX 11 5 1 1
BITMAP
0480
0240
FFE0
0240
0480
ENDCHAR
STARTCHAR uni21A1
ENCODING 8609
SWIDTH 523 0
DWIDTH 7 0
BBX 5 12 1 -2
BITMAP
20
20
20
20
20
A8
70
20
A8
70
30
20
ENDCHAR
STARTCHAR uni21A2
ENCODING 8610
SWIDTH 948 0
DWIDTH 13 0
BBX 11 5 1 1
BITMAP
3020
4040
FFC0
4040
3020
ENDCHAR
STARTCHAR uni21A3
ENCODING 8611
SWIDTH 948 0
DWIDTH 13 0
BBX 11 5 1 1
BITMAP
8080
4040
3FE0
4040
8080
ENDCHAR
STARTCHAR uni21A4
ENCODING 8612
SWIDTH 948 0
DWIDTH 13 0
BBX 11 6 1 1
BITMAP
1020
2020
4020
FFE0
4020
3020
ENDCHAR
STARTCHAR uni21A5
ENCODING 8613
SWIDTH 523 0
DWIDTH 7 0
BBX 5 12 1 -2
BITMAP
20
20
70
A8
20
20
20
20
20
20
20
F8
ENDCHAR
STARTCHAR uni21A6
ENCODING 8614
SWIDTH 948 0
DWIDTH 13 0
BBX 11 6 1 1
BITMAP
8100
8080
8040
FFE0
8040
8080
ENDCHAR
STARTCHAR uni21A7
ENCODING 8615
SWIDTH 523 0
DWIDTH 7 0
BBX 5 12 1 -2
BITMAP
F8
20
20
20
20
20
20
20
A8
70
20
20
ENDCHAR
STARTCHAR uni21A8
ENCODING 8616
SWIDTH 523 0
DWIDTH 7 0
BBX 5 12 1 -2
BITMAP
20
20
78
A8
20
20
20
A8
A8
70
20
F8
ENDCHAR
STARTCHAR uni21A9
ENCODING 8617
SWIDTH 948 0
DWIDTH 13 0
BBX 11 7 1 1
BITMAP
00C0
1020
2020
4020
FFC0
4000
3000
ENDCHAR
STARTCHAR uni21AA
ENCODING 8618
SWIDTH 948 0
DWIDTH 13 0
BBX 11 7 1 1
BITMAP
7000
8000
8080
8040
7FE0
0040
0080
ENDCHAR
STARTCHAR uni21AB
ENCODING 8619
SWIDTH 948 0
DWIDTH 13 0
BBX 11 8 1 0
BITMAP
00C0
1120
2120
4120
FFC0
2100
1100
0100
ENDCHAR
STARTCHAR uni21AC
ENCODING 8620
SWIDTH 948 0
DWIDTH 13 0
BBX 11 8 1 0
BITMAP
7000
9000
8880
8840
7FE0
0840
0880
0800
ENDCHAR
STARTCHAR uni21AD
ENCODING 8621
SWIDTH 1229 0
DWIDTH 17 0
BBX 15 6 1 1
BITMAP
1008
6104
F29E
4AA4
2468
1008
ENDCHAR
STARTCHAR uni21AE
ENCODING 8622
SWIDTH 948 0
DWIDTH 13 0
BBX 12 6 1 1
BITMAP
2280
2280
4240
FFF0
4440
2880
ENDCHAR
STARTCHAR uni21AF
ENCODING 8623
SWIDTH 523 0
DWIDTH 7 0
BBX 5 12 1 -2
BITMAP
08
18
10
20
40
F8
10
90
A0
C0
F0
80
ENDCHAR
STARTCHAR uni21B0
ENCODING 8624
SWIDTH 474 0
DWIDTH 7 0
BBX 6 11 0 -2
BITMAP
10
20
FC
24
14
04
04
04
04
04
04
ENDCHAR
STARTCHAR uni21B1
ENCODING 8625
SWIDTH 474 0
DWIDTH 7 0
BBX 5 11 1 -2
BITMAP
60
10
F8
90
A0
80
80
80
80
80
80
ENDCHAR
STARTCHAR uni21B2
ENCODING 8626
SWIDTH 474 0
DWIDTH 7 0
BBX 6 12 0 -2
BITMAP
04
04
04
04
04
04
04
14
24
FC
20
10
ENDCHAR
STARTCHAR uni21B3
ENCODING 8627
SWIDTH 474 0
DWIDTH 7 0
BBX 5 12 1 -2
BITMAP
80
80
80
80
80
80
80
A0
90
F8
10
60
ENDCHAR
STARTCHAR uni21B4
ENCODING 8628
SWIDTH 948 0
DWIDTH 13 0
BBX 11 11 1 -1
BITMAP
FF80
0080
0080
0080
0080
0080
0080
0080
02A0
01C0
0080
ENDCHAR
STARTCHAR uni21B5
ENCODING 8629
SWIDTH 948 0
DWIDTH 13 0
BBX 11 12 1 -2
BITMAP
0020
0020
0020
0020
0020
0020
0020
1020
6020
FFE0
6000
1000
ENDCHAR
STARTCHAR uni21B6
ENCODING 8630
SWIDTH 948 0
DWIDTH 13 0
BBX 12 7 1 1
BITMAP
0780
1840
3020
2020
A810
7000
2000
ENDCHAR
STARTCHAR uni21B7
ENCODING 8631
SWIDTH 948 0
DWIDTH 13 0
BBX 12 7 1 1
BITMAP
3E00
6100
8080
8080
83B0
00C0
00C0
ENDCHAR
STARTCHAR uni21B8
ENCODING 8632
SWIDTH 948 0
DWIDTH 13 0
BBX 11 13 1 -2
BITMAP
FFE0
8000
F000
C000
A000
9000
0800
0400
0200
0100
0080
0040
0020
ENDCHAR
STARTCHAR uni21B9
ENCODING 8633
SWIDTH 948 0
DWIDTH 13 0
BBX 11 10 1 -1
BITMAP
9000
A000
FFE0
A000
9000
0120
00A0
FFE0
00A0
0120
ENDCHAR
STARTCHAR uni21BA
ENCODING 8634
SWIDTH 997 0
DWIDTH 14 0
BBX 10 12 2 -2
BITMAP
0040
1780
2300
4280
8140
8140
8040
8040
8040
C080
6180
1E00
ENDCHAR
STARTCHAR uni21BB
ENCODING 8635
SWIDTH 997 0
DWIDTH 14 0
BBX 10 12 2 -2
BITMAP
8000
7A00
7100
5080
A040
A040
8040
8040
8040
C080
6180
1E00
ENDCHAR
STARTCHAR uni21BC
ENCODING 8636
SWIDTH 978 0
DWIDTH 14 0
BBX 12 4 1 3
BITMAP
1000
2000
2000
FFF0
ENDCHAR
STARTCHAR uni21BD
ENCODING 8637
SWIDTH 978 0
DWIDTH 14 0
BBX 12 4 1 0
BITMAP
FFF0
2000
2000
1000
ENDCHAR
STARTCHAR uni21BE
ENCODING 8638
SWIDTH 523 0
DWIDTH 7 0
BBX 3 12 3 -2
BITMAP
80
80
C0
A0
80
80
80
80
80
80
80
80
ENDCHAR
STARTCHAR uni21BF
ENCODING 8639
SWIDTH 523 0
DWIDTH 7 0
BBX 3 12 1 -2
BITMAP
20
20
60
A0
20
20
20
20
20
20
20
20
ENDCHAR
STARTCHAR uni21C0
ENCODING 8640
SWIDTH 978 0
DWIDTH 14 0
BBX 12 4 1 3
BITMAP
0100
0080
0040
FFF0
ENDCHAR
STARTCHAR uni21C1
ENCODING 8641
SWIDTH 978 0
DWIDTH 14 0
BBX 12 4 1 0
BITMAP
FFF0
0040
0080
0100
ENDCHAR
STARTCHAR uni21C2
ENCODING 8642
SWIDTH 523 0
DWIDTH 7 0
BBX 3 12 3 -2
BITMAP
80
80
80
80
80
80
80
80
80
A0
C0
80
ENDCHAR
STARTCHAR uni21C3
ENCODING 8643
SWIDTH 523 0
DWIDTH 7 0
BBX 3 12 1 -2
BITMAP
20
20
20
20
20
20
20
20
20
A0
60
20
ENDCHAR
STARTCHAR uni21C4
ENCODING 8644
SWIDTH 948 0
DWIDTH 13 0
BBX 11 10 1 -1
BITMAP
0080
0040
FFE0
0040
1080
2000
4000
FFE0
2000
1000
ENDCHAR
STARTCHAR uni21C5
ENCODING 8645
SWIDTH 791 0
DWIDTH 11 0
BBX 11 12 0 -2
BITMAP
1100
1100
7900
9500
1100
1100
1100
1100
1520
13C0
1180
1100
ENDCHAR
STARTCHAR uni21C6
ENCODING 8646
SWIDTH 948 0
DWIDTH 13 0
BBX 11 10 1 -1
BITMAP
1000
2000
FFE0
4000
2000
1080
0040
FFE0
0040
0080
ENDCHAR
STARTCHAR uni21C7
ENCODING 8647
SWIDTH 948 0
DWIDTH 13 0
BBX 11 10 1 -1
BITMAP
1000
2000
FFE0
4000
2000
3000
4000
FFE0
2000
1000
ENDCHAR
STARTCHAR uni21C8
ENCODING 8648
SWIDTH 791 0
DWIDTH 11 0
BBX 9 12 1 -2
BITMAP
2200
2200
7700
AA80
2200
2200
2200
2200
2200
2200
2200
2200
ENDCHAR
STARTCHAR uni21C9
ENCODING 8649
SWIDTH 948 0
DWIDTH 13 0
BBX 11 10 1 -1
BITMAP
0080
0040
FFE0
0040
0080
0080
0040
FFE0
0040
0080
ENDCHAR
STARTCHAR uni21CA
ENCODING 8650
SWIDTH 791 0
DWIDTH 11 0
BBX 9 12 1 -2
BITMAP
2200
2200
2200
2200
2200
2200
2200
2200
AA80
7780
6300
2200
ENDCHAR
STARTCHAR uni21CB
ENCODING 8651
SWIDTH 948 0
DWIDTH 13 0
BBX 11 8 1 0
BITMAP
1000
2000
FFE0
0000
0000
FFE0
0080
0080
ENDCHAR
STARTCHAR uni21CC
ENCODING 8652
SWIDTH 948 0
DWIDTH 13 0
BBX 11 8 1 0
BITMAP
0080
0080
FFE0
0000
0000
FFE0
2000
1000
ENDCHAR
STARTCHAR uni21CD
ENCODING 8653
SWIDTH 948 0
DWIDTH 13 0
BBX 11 8 1 0
BITMAP
0820
1040
3FE0
C080
C080
3FE0
1100
0A00
ENDCHAR
STARTCHAR uni21CE
ENCODING 8654
SWIDTH 948 0
DWIDTH 13 0
BBX 13 8 0 0
BITMAP
0980
1140
3FE0
C210
4218
3FE0
1240
0A80
ENDCHAR
STARTCHAR uni21CF
ENCODING 8655
SWIDTH 948 0
DWIDTH 13 0
BBX 11 8 1 0
BITMAP
0A00
1100
FFC0
1020
2020
FFC0
4100
C200
ENDCHAR
STARTCHAR uni21D0
ENCODING 8656
SWIDTH 887 0
DWIDTH 12 0
BBX 11 8 1 0
BITMAP
0800
1000
3FE0
C000
C000
3FE0
1000
0800
ENDCHAR
STARTCHAR uni21D1
ENCODING 8657
SWIDTH 720 0
DWIDTH 10 0
BBX 8 12 1 -2
BITMAP
08
18
24
24
66
A5
24
24
24
24
24
24
ENDCHAR
STARTCHAR uni21D2
ENCODING 8658
SWIDTH 887 0
DWIDTH 12 0
BBX 12 8 0 0
BITMAP
0200
0100
FFC0
0020
0030
FFC0
0100
0200
ENDCHAR
STARTCHAR uni21D3
ENCODING 8659
SWIDTH 720 0
DWIDTH 10 0
BBX 8 12 1 -2
BITMAP
24
24
24
24
24
24
24
A5
66
24
18
08
ENDCHAR
STARTCHAR uni21D4
ENCODING 8660
SWIDTH 948 0
DWIDTH 13 0
BBX 13 8 0 0
BITMAP
0880
1040
3FE0
C010
4018
3FE0
1040
0880
ENDCHAR
STARTCHAR uni21D5
ENCODING 8661
SWIDTH 720 0
DWIDTH 10 0
BBX 8 14 1 -3
BITMAP
08
18
24
24
66
A5
24
24
A5
A5
66
24
18
08
ENDCHAR
STARTCHAR uni21D6
ENCODING 8662
SWIDTH 948 0
DWIDTH 13 0
BBX 12 11 1 -2
BITMAP
FE00
9000
8C00
C600
A300
9180
08C0
0460
0230
0180
00C0
ENDCHAR
STARTCHAR uni21D7
ENCODING 8663
SWIDTH 948 0
DWIDTH 13 0
BBX 12 11 1 -2
BITMAP
07F0
0120
0220
0460
08A0
1120
2200
4400
8800
1000
2000
ENDCHAR
STARTCHAR uni21D8
ENCODING 8664
SWIDTH 948 0
DWIDTH 13 0
BBX 12 11 1 -2
BITMAP
2000
1000
8800
4400
2200
1120
08A0
0460
0220
0120
07F0
ENDCHAR
STARTCHAR uni21D9
ENCODING 8665
SWIDTH 948 0
DWIDTH 13 0
BBX 12 11 1 -2
BITMAP
00C0
0100
0230
0440
0880
9100
A200
C400
8800
9000
FE00
ENDCHAR
STARTCHAR uni21DA
ENCODING 8666
SWIDTH 872 0
DWIDTH 12 0
BBX 11 11 1 -2
BITMAP
0800
1000
1FE0
2000
4000
FFE0
4000
2000
1FE0
1000
0800
ENDCHAR
STARTCHAR uni21DB
ENCODING 8667
SWIDTH 872 0
DWIDTH 12 0
BBX 12 11 0 -2
BITMAP
0200
0100
FF00
0080
0040
FFF0
0040
0080
FF00
0100
0200
ENDCHAR
STARTCHAR uni21DC
ENCODING 8668
SWIDTH 948 0
DWIDTH 13 0
BBX 11 5 1 1
BITMAP
3200
4200
FD60
4C80
3480
ENDCHAR
STARTCHAR uni21DD
ENCODING 8669
SWIDTH 948 0
DWIDTH 13 0
BBX 11 5 1 1
BITMAP
0880
0840
D5E0
2240
2280
ENDCHAR
STARTCHAR uni21DE
ENCODING 8670
SWIDTH 523 0
DWIDTH 7 0
BBX 5 12 1 -2
BITMAP
20
20
70
A8
20
20
F8
20
F8
20
20
20
ENDCHAR
STARTCHAR uni21DF
ENCODING 8671
SWIDTH 523 0
DWIDTH 7 0
BBX 5 12 1 -3
BITMAP
20
20
20
F8
20
F8
20
20
A8
70
20
20
ENDCHAR
STARTCHAR uni21E0
ENCODING 8672
SWIDTH 948 0
DWIDTH 13 0
BBX 11 5 1 1
BITMAP
3000
4000
F7A0
4000
3000
ENDCHAR
STARTCHAR uni21E1
ENCODING 8673
SWIDTH 523 0
DWIDTH 7 0
BBX 5 12 1 -2
BITMAP
20
20
70
A8
20
20
20
00
20
20
20
20
ENDCHAR
STARTCHAR uni21E2
ENCODING 8674
SWIDTH 948 0
DWIDTH 13 0
BBX 11 5 1 1
BITMAP
0080
0040
B5E0
0040
0080
ENDCHAR
STARTCHAR uni21E3
ENCODING 8675
SWIDTH 523 0
DWIDTH 7 0
BBX 5 12 1 -2
BITMAP
20
20
00
20
20
20
20
00
A8
68
30
20
ENDCHAR
STARTCHAR uni21E4
ENCODING 8676
SWIDTH 948 0
DWIDTH 13 0
BBX 11 6 1 1
BITMAP
9000
9000
A000
FFE0
A000
9000
ENDCHAR
STARTCHAR uni21E5
ENCODING 8677
SWIDTH 948 0
DWIDTH 13 0
BBX 11 6 1 1
BITMAP
0120
0120
00A0
FFE0
00A0
0120
ENDCHAR
STARTCHAR uni21E6
ENCODING 8678
SWIDTH 948 0
DWIDTH 13 0
BBX 11 8 1 0
BITMAP
0800
1400
27E0
C020
C020
27E0
1400
0800
ENDCHAR
STARTCHAR uni21E7
ENCODING 8679
SWIDTH 720 0
DWIDTH 10 0
BBX 8 12 1 -2
BITMAP
08
18
24
42
42
E7
24
24
24
24
24
3C
ENDCHAR
STARTCHAR uni21E8
ENCODING 8680
SWIDTH 948 0
DWIDTH 13 0
BBX 11 8 1 0
BITMAP
0200
0300
FEC0
8020
8020
FEC0
0300
0200
ENDCHAR
STARTCHAR uni21E9
ENCODING 8681
SWIDTH 720 0
DWIDTH 10 0
BBX 8 12 1 -2
BITMAP
3C
24
24
24
24
24
E7
42
42
24
18
08
ENDCHAR
STARTCHAR uni21EA
ENCODING 8682
SWIDTH 720 0
DWIDTH 10 0
BBX 8 13 1 -3
BITMAP
08
18
24
22
42
E7
24
24
24
3C
3C
24
3C
ENDCHAR
STARTCHAR uni21F4
ENCODING 8692
SWIDTH 948 0
DWIDTH 13 0
BBX 11 5 1 1
BITMAP
1C80
1240
FFE0
1240
1C80
ENDCHAR
STARTCHAR uni21F5
ENCODING 8693
SWIDTH 791 0
DWIDTH 11 0
BBX 11 12 0 -2
BITMAP
1100
1100
13C0
1520
1100
1100
1100
1100
9500
7900
3100
1100
ENDCHAR
STARTCHAR uni21F6
ENCODING 8694
SWIDTH 948 0
DWIDTH 13 0
BBX 11 14 1 -3
BITMAP
0080
0040
FFE0
0040
0080
0080
0040
FFE0
0040
0080
0040
FFE0
0040
0080
ENDCHAR
STARTCHAR uni21F7
ENCODING 8695
SWIDTH 948 0
DWIDTH 13 0
BBX 11 6 1 1
BITMAP
1200
2200
4200
FFE0
4200
3200
ENDCHAR
STARTCHAR uni21F8
ENCODING 8696
SWIDTH 948 0
DWIDTH 13 0
BBX 11 6 1 1
BITMAP
0900
0880
0840
FFE0
0840
0880
ENDCHAR
STARTCHAR uni21F9
ENCODING 8697
SWIDTH 948 0
DWIDTH 13 0
BBX 12 6 1 1
BITMAP
1480
2480
4440
FFF0
4440
2480
ENDCHAR
STARTCHAR uni21FA
ENCODING 8698
SWIDTH 948 0
DWIDTH 13 0
BBX 11 6 1 1
BITMAP
1500
2500
4500
FFE0
4500
3500
ENDCHAR
STARTCHAR uni21FB
ENCODING 8699
SWIDTH 948 0
DWIDTH 13 0
BBX 11 6 1 1
BITMAP
1500
1480
1440
FFE0
1440
1480
ENDCHAR
STARTCHAR uni21FC
ENCODING 8700
SWIDTH 948 0
DWIDTH 13 0
BBX 12 6 1 1
BITMAP
2A80
2A80
4A40
FFF0
4A40
2A80
ENDCHAR
STARTCHAR uni21FD
ENCODING 8701
SWIDTH 948 0
DWIDTH 13 0
BBX 11 5 1 1
BITMAP
1000
7000
9FE0
7000
1000
ENDCHAR
STARTCHAR uni21FE
ENCODING 8702
SWIDTH 948 0
DWIDTH 13 0
BBX 11 5 1 1
BITMAP
0080
0140
FF20
0140
0080
ENDCHAR
STARTCHAR uni21FF
ENCODING 8703
SWIDTH 948 0
DWIDTH 13 0
BBX 13 5 0 1
BITMAP
1040
3060
DFD8
3060
1040
ENDCHAR
STARTCHAR uni2200
ENCODING 8704
SWIDTH 573 0
DWIDTH 8 0
BBX 8 10 0 0
BITMAP
81
81
42
7E
24
24
24
18
18
18
ENDCHAR
STARTCHAR uni2201
ENCODING 8705
SWIDTH 474 0
DWIDTH 7 0
BBX 5 11 1 0
BITMAP
70
88
88
80
80
80
80
80
88
88
70
ENDCHAR
STARTCHAR partialdiff
ENCODING 8706
SWIDTH 478 0
DWIDTH 7 0
BBX 5 10 1 0
BITMAP
70
90
08
78
98
88
88
88
90
70
ENDCHAR
STARTCHAR uni2203
ENCODING 8707
SWIDTH 573 0
DWIDTH 8 0
BBX 6 10 1 0
BITMAP
FC
04
04
04
04
FC
04
04
04
FC
ENDCHAR
STARTCHAR uni2204
ENCODING 8708
SWIDTH 573 0
DWIDTH 8 0
BBX 6 12 1 -1
BITMAP
08
FC
14
14
14
24
FC
24
44
44
FC
80
ENDCHAR
STARTCHAR uni2205
ENCODING 8709
SWIDTH 780 0
DWIDTH 11 0
BBX 9 10 1 -1
BITMAP
3C80
6300
C380
8480
8C80
9880
9080
E180
6300
BC00
ENDCHAR
STARTCHAR uni2206
ENCODING 8710
SWIDTH 748 0
DWIDTH 10 0
BBX 9 10 1 0
BITMAP
0800
1800
1800
2C00
2400
2600
4200
4300
8300
FF80
ENDCHAR
STARTCHAR uni2207
ENCODING 8711
SWIDTH 748 0
DWIDTH 10 0
BBX 9 10 1 0
BITMAP
FF80
C100
4100
6200
2200
3400
1400
1800
0800
0800
ENDCHAR
STARTCHAR uni2208
ENCODING 8712
SWIDTH 720 0
DWIDTH 10 0
BBX 8 8 1 0
BITMAP
3F
40
80
FF
80
C0
40
3F
ENDCHAR
STARTCHAR uni2209
ENCODING 8713
SWIDTH 720 0
DWIDTH 10 0
BBX 8 12 1 -2
BITMAP
02
02
3F
44
88
FF
90
D0
60
3F
40
40
ENDCHAR
STARTCHAR uni220A
ENCODING 8714
SWIDTH 497 0
DWIDTH 7 0
BBX 5 6 1 1
BITMAP
78
80
F8
80
C0
78
ENDCHAR
STARTCHAR uni220B
ENCODING 8715
SWIDTH 720 0
DWIDTH 10 0
BBX 8 8 1 0
BITMAP
FC
02
01
FF
01
01
02
FC
ENDCHAR
STARTCHAR uni220C
ENCODING 8716
SWIDTH 720 0
DWIDTH 10 0
BBX 8 12 1 -2
BITMAP
02
02
FC
06
09
FF
11
11
22
FC
40
40
ENDCHAR
STARTCHAR uni220D
ENCODING 8717
SWIDTH 497 0
DWIDTH 7 0
BBX 5 6 1 1
BITMAP
F0
08
F8
08
18
F0
ENDCHAR
STARTCHAR uni220E
ENCODING 8718
SWIDTH 558 0
DWIDTH 8 0
BBX 6 9 1 0
BITMAP
FC
FC
FC
FC
FC
FC
FC
FC
FC
ENDCHAR
STARTCHAR uni220F
ENCODING 8719
SWIDTH 1135 0
DWIDTH 16 0
BBX 14 15 1 -4
BITMAP
FFFC
3030
3030
3030
3030
3030
3030
3030
3030
3030
3030
3030
3030
3030
FCFC
ENDCHAR
STARTCHAR uni2210
ENCODING 8720
SWIDTH 1135 0
DWIDTH 16 0
BBX 14 15 1 -4
BITMAP
FCFC
3030
3030
3030
3030
3030
3030
3030
3030
3030
3030
3030
3030
3030
FFFC
ENDCHAR
STARTCHAR uni2211
ENCODING 8721
SWIDTH 936 0
DWIDTH 13 0
BBX 11 14 1 -3
BITMAP
FFC0
6060
3020
3020
1800
0C00
0600
0400
0800
1000
1020
2020
4060
FFC0
ENDCHAR
STARTCHAR uni2212
ENCODING 8722
SWIDTH 720 0
DWIDTH 10 0
BBX 8 1 1 3
BITMAP
FF
ENDCHAR
STARTCHAR uni2213
ENCODING 8723
SWIDTH 720 0
DWIDTH 10 0
BBX 8 9 1 -1
BITMAP
FF
00
08
08
08
FF
08
08
08
ENDCHAR
STARTCHAR uni2214
ENCODING 8724
SWIDTH 720 0
DWIDTH 10 0
BBX 8 11 1 0
BITMAP
18
18
00
08
08
08
08
FF
08
08
08
ENDCHAR
STARTCHAR uni2215
ENCODING 8725
SWIDTH 535 0
DWIDTH 7 0
BBX 6 14 1 -3
BITMAP
04
08
08
08
10
10
10
20
20
40
40
40
80
80
ENDCHAR
STARTCHAR uni2216
ENCODING 8726
SWIDTH 535 0
DWIDTH 7 0
BBX 6 14 1 -3
BITMAP
80
80
80
40
40
20
20
20
10
10
18
08
08
04
ENDCHAR
STARTCHAR uni2217
ENCODING 8727
SWIDTH 536 0
DWIDTH 8 0
BBX 6 7 1 0
BITMAP
20
20
AC
70
EC
A8
20
ENDCHAR
STARTCHAR uni2218
ENCODING 8728
SWIDTH 436 0
DWIDTH 6 0
BBX 4 5 1 1
BITMAP
60
90
90
90
60
ENDCHAR
STARTCHAR uni2219
ENCODING 8729
SWIDTH 457 0
DWIDTH 6 0
BBX 3 4 2 2
BITMAP
40
E0
E0
C0
ENDCHAR
STARTCHAR uni221A
ENCODING 8730
SWIDTH 794 0
DWIDTH 11 0
BBX 12 16 0 -3
BITMAP
0070
0040
0040
0080
0080
0080
0080
2100
E100
3100
1200
1A00
0A00
0A00
0C00
0400
ENDCHAR
STARTCHAR uni221B
ENCODING 8731
SWIDTH 794 0
DWIDTH 11 0
BBX 12 16 0 -3
BITMAP
7070
1040
3040
1080
0880
7080
0080
2100
E100
3100
1200
1A00
0A00
0A00
0C00
0400
ENDCHAR
STARTCHAR uni221C
ENCODING 8732
SWIDTH 794 0
DWIDTH 11 0
BBX 12 16 0 -3
BITMAP
1070
3040
3040
5080
7880
1080
0080
2100
E100
3100
1200
1A00
0A00
0A00
0C00
0400
ENDCHAR
STARTCHAR uni221D
ENCODING 8733
SWIDTH 720 0
DWIDTH 10 0
BBX 8 6 1 0
BITMAP
71
9A
8C
84
8A
73
ENDCHAR
STARTCHAR uni221E
ENCODING 8734
SWIDTH 953 0
DWIDTH 13 0
BBX 11 6 1 0
BITMAP
71C0
8E20
8420
8620
CB20
71C0
ENDCHAR
STARTCHAR uni221F
ENCODING 8735
SWIDTH 720 0
DWIDTH 10 0
BBX 8 9 1 0
BITMAP
80
80
80
80
80
80
80
80
FF
ENDCHAR
STARTCHAR uni2220
ENCODING 8736
SWIDTH 720 0
DWIDTH 10 0
BBX 8 8 1 0
BITMAP
01
02
04
08
10
20
40
FF
ENDCHAR
STARTCHAR uni2221
ENCODING 8737
SWIDTH 720 0
DWIDTH 10 0
BBX 8 9 1 -1
BITMAP
01
02
0C
0C
14
22
42
FF
02
ENDCHAR
STARTCHAR uni2222
ENCODING 8738
SWIDTH 720 0
DWIDTH 10 0
BBX 8 7 1 0
BITMAP
07
0E
32
E2
1A
06
07
ENDCHAR
STARTCHAR uni2223
ENCODING 8739
SWIDTH 272 0
DWIDTH 4 0
BBX 1 13 1 -3
BITMAP
80
80
80
80
80
80
80
80
80
80
80
80
80
ENDCHAR
STARTCHAR uni2224
ENCODING 8740
SWIDTH 413 0
DWIDTH 6 0
BBX 5 13 0 -3
BITMAP
20
20
20
20
20
28
38
E0
20
20
20
20
20
ENDCHAR
STARTCHAR uni2225
ENCODING 8741
SWIDTH 535 0
DWIDTH 7 0
BBX 4 13 2 -3
BITMAP
90
90
90
90
90
90
90
90
90
90
90
90
90
ENDCHAR
STARTCHAR uni2226
ENCODING 8742
SWIDTH 623 0
DWIDTH 9 0
BBX 8 13 0 -3
BITMAP
24
24
24
24
25
27
2C
34
E4
24
24
24
24
ENDCHAR
STARTCHAR uni2227
ENCODING 8743
SWIDTH 636 0
DWIDTH 9 0
BBX 8 8 0 0
BITMAP
08
08
14
14
22
22
41
C1
ENDCHAR
STARTCHAR uni2228
ENCODING 8744
SWIDTH 636 0
DWIDTH 9 0
BBX 8 8 0 0
BITMAP
C1
41
22
22
14
14
08
08
ENDCHAR
STARTCHAR uni2229
ENCODING 8745
SWIDTH 636 0
DWIDTH 9 0
BBX 7 8 1 0
BITMAP
38
C6
82
82
82
82
82
82
ENDCHAR
STARTCHAR uni222A
ENCODING 8746
SWIDTH 636 0
DWIDTH 9 0
BBX 7 8 1 0
BITMAP
82
82
82
82
82
82
C4
38
ENDCHAR
STARTCHAR uni222B
ENCODING 8747
SWIDTH 684 0
DWIDTH 10 0
BBX 9 14 0 -3
BITMAP
0180
0280
0400
0400
0C00
0C00
0C00
0800
0800
0800
1800
1000
D000
6000
ENDCHAR
STARTCHAR uni222C
ENCODING 8748
SWIDTH 1016 0
DWIDTH 14 0
BBX 14 14 0 -3
BITMAP
0198
02AC
0420
0460
0C60
0C40
0C40
0840
08C0
08C0
1880
1080
D500
6200
ENDCHAR
STARTCHAR uni222D
ENCODING 8749
SWIDTH 1348 0
DWIDTH 19 0
BBX 18 14 0 -3
BITMAP
0198C0
02AD40
042300
046200
0C6200
0C4200
0C4600
084600
08C400
08C400
188400
108800
D52800
623000
ENDCHAR
STARTCHAR uni222E
ENCODING 8750
SWIDTH 684 0
DWIDTH 10 0
BBX 9 14 0 -3
BITMAP
0180
0280
0480
0400
1C00
2E00
4D00
4900
2A00
1C00
1000
5000
D000
6000
ENDCHAR
STARTCHAR uni222F
ENCODING 8751
SWIDTH 1016 0
DWIDTH 14 0
BBX 14 14 0 -3
BITMAP
0198
02AC
04A8
0420
1FE0
2C50
4C50
4848
28D0
1FE0
1080
5480
D500
6200
ENDCHAR
STARTCHAR uni2230
ENCODING 8752
SWIDTH 1348 0
DWIDTH 19 0
BBX 18 14 0 -3
BITMAP
0198C0
02AD40
04A940
042200
0FFE00
3C4380
4C4640
484640
28C580
1FFE00
108400
54AC00
D52800
623000
ENDCHAR
STARTCHAR uni2231
ENCODING 8753
SWIDTH 684 0
DWIDTH 10 0
BBX 9 14 0 -3
BITMAP
0180
0280
0400
0400
0C00
1E00
2D80
2B00
2880
0800
1800
1000
D000
6000
ENDCHAR
STARTCHAR uni2232
ENCODING 8754
SWIDTH 684 0
DWIDTH 10 0
BBX 9 14 0 -3
BITMAP
0180
0280
0400
1C00
2680
4F00
4D00
4900
4900
2A00
1C00
1000
D000
6000
ENDCHAR
STARTCHAR uni2233
ENCODING 8755
SWIDTH 684 0
DWIDTH 10 0
BBX 9 14 0 -3
BITMAP
0180
0280
0480
0400
1C00
2F80
4F00
4900
2B00
1C00
1000
5000
D000
6000
ENDCHAR
STARTCHAR uni2234
ENCODING 8756
SWIDTH 635 0
DWIDTH 9 0
BBX 7 8 1 0
BITMAP
10
10
00
00
00
00
82
82
ENDCHAR
STARTCHAR uni2235
ENCODING 8757
SWIDTH 635 0
DWIDTH 9 0
BBX 7 8 1 0
BITMAP
82
82
00
00
00
00
10
10
ENDCHAR
STARTCHAR uni2236
ENCODING 8758
SWIDTH 523 0
DWIDTH 7 0
BBX 2 8 3 0
BITMAP
80
C0
00
00
00
00
80
C0
ENDCHAR
STARTCHAR uni2237
ENCODING 8759
SWIDTH 720 0
DWIDTH 10 0
BBX 8 8 1 0
BITMAP
43
C3
00
00
00
00
C3
C3
ENDCHAR
STARTCHAR uni2238
ENCODING 8760
SWIDTH 720 0
DWIDTH 10 0
BBX 8 4 1 3
BITMAP
18
18
00
FF
ENDCHAR
STARTCHAR uni2239
ENCODING 8761
SWIDTH 720 0
DWIDTH 10 0
BBX 8 7 1 0
BITMAP
03
01
00
FC
00
01
03
ENDCHAR
STARTCHAR uni223A
ENCODING 8762
SWIDTH 720 0
DWIDTH 10 0
BBX 8 7 1 0
BITMAP
C3
81
00
FF
00
81
C3
ENDCHAR
STARTCHAR uni223B
ENCODING 8763
SWIDTH 720 0
DWIDTH 10 0
BBX 8 8 1 0
BITMAP
18
18
00
71
99
86
18
18
ENDCHAR
STARTCHAR uni223C
ENCODING 8764
SWIDTH 720 0
DWIDTH 10 0
BBX 8 3 1 2
BITMAP
61
99
86
ENDCHAR
STARTCHAR uni223D
ENCODING 8765
SWIDTH 720 0
DWIDTH 10 0
BBX 8 3 1 2
BITMAP
86
99
61
ENDCHAR
STARTCHAR uni223E
ENCODING 8766
SWIDTH 720 0
DWIDTH 10 0
BBX 8 5 1 1
BITMAP
63
91
89
89
47
ENDCHAR
STARTCHAR uni223F
ENCODING 8767
SWIDTH 720 0
DWIDTH 10 0
BBX 8 6 1 1
BITMAP
70
90
90
09
09
06
ENDCHAR
STARTCHAR uni2240
ENCODING 8768
SWIDTH 293 0
DWIDTH 4 0
BBX 4 9 0 -1
BITMAP
80
60
20
20
20
40
40
40
30
ENDCHAR
STARTCHAR uni2241
ENCODING 8769
SWIDTH 720 0
DWIDTH 10 0
BBX 8 5 1 1
BITMAP
04
79
99
96
20
ENDCHAR
STARTCHAR uni2242
ENCODING 8770
SWIDTH 720 0
DWIDTH 10 0
BBX 8 6 1 1
BITMAP
FF
00
00
71
99
86
ENDCHAR
STARTCHAR uni2243
ENCODING 8771
SWIDTH 720 0
DWIDTH 10 0
BBX 8 6 1 1
BITMAP
71
99
86
00
00
FF
ENDCHAR
STARTCHAR uni2244
ENCODING 8772
SWIDTH 720 0
DWIDTH 10 0
BBX 8 8 1 0
BITMAP
04
65
99
8E
10
10
FF
20
ENDCHAR
STARTCHAR uni2245
ENCODING 8773
SWIDTH 720 0
DWIDTH 10 0
BBX 8 8 1 0
BITMAP
71
99
86
00
FF
00
00
FF
ENDCHAR
STARTCHAR uni2246
ENCODING 8774
SWIDTH 720 0
DWIDTH 10 0
BBX 8 10 1 -1
BITMAP
71
99
86
00
04
FF
08
10
FF
20
ENDCHAR
STARTCHAR uni2247
ENCODING 8775
SWIDTH 720 0
DWIDTH 10 0
BBX 8 12 1 -2
BITMAP
02
02
75
9D
86
08
FF
10
10
FF
20
60
ENDCHAR
STARTCHAR uni2248
ENCODING 8776
SWIDTH 720 0
DWIDTH 10 0
BBX 8 7 1 0
BITMAP
01
71
89
06
61
99
86
ENDCHAR
STARTCHAR uni2249
ENCODING 8777
SWIDTH 720 0
DWIDTH 10 0
BBX 8 9 1 -1
BITMAP
04
65
99
89
8E
71
99
A6
20
ENDCHAR
STARTCHAR uni224A
ENCODING 8778
SWIDTH 720 0
DWIDTH 10 0
BBX 8 9 1 -1
BITMAP
01
71
8E
00
61
99
86
00
FF
ENDCHAR
STARTCHAR uni224B
ENCODING 8779
SWIDTH 720 0
DWIDTH 10 0
BBX 8 8 1 0
BITMAP
71
99
86
71
8E
71
99
86
ENDCHAR
STARTCHAR uni224C
ENCODING 8780
SWIDTH 720 0
DWIDTH 10 0
BBX 8 8 1 0
BITMAP
86
99
71
00
FF
00
00
FF
ENDCHAR
STARTCHAR uni224D
ENCODING 8781
SWIDTH 720 0
DWIDTH 10 0
BBX 8 7 1 0
BITMAP
81
C3
3C
00
3C
C3
81
ENDCHAR
STARTCHAR uni224E
ENCODING 8782
SWIDTH 720 0
DWIDTH 10 0
BBX 8 6 1 0
BITMAP
1C
E7
00
00
E7
1C
ENDCHAR
STARTCHAR uni224F
ENCODING 8783
SWIDTH 720 0
DWIDTH 10 0
BBX 8 5 1 2
BITMAP
1C
E7
00
00
FF
ENDCHAR
STARTCHAR uni2250
ENCODING 8784
SWIDTH 720 0
DWIDTH 10 0
BBX 8 7 1 2
BITMAP
18
18
00
FF
00
00
FF
ENDCHAR
STARTCHAR uni2251
ENCODING 8785
SWIDTH 720 0
DWIDTH 10 0
BBX 8 10 1 -2
BITMAP
18
18
00
FF
00
00
FF
00
18
18
ENDCHAR
STARTCHAR uni2252
ENCODING 8786
SWIDTH 720 0
DWIDTH 10 0
BBX 8 10 1 -1
BITMAP
C0
80
00
FF
00
00
FF
00
01
03
ENDCHAR
STARTCHAR uni2253
ENCODING 8787
SWIDTH 720 0
DWIDTH 10 0
BBX 8 10 1 -2
BITMAP
03
01
00
FF
00
00
FF
00
80
C0
ENDCHAR
STARTCHAR uni2254
ENCODING 8788
SWIDTH 844 0
DWIDTH 12 0
BBX 10 5 1 1
BITMAP
8000
DFC0
0000
8000
DFC0
ENDCHAR
STARTCHAR uni2255
ENCODING 8789
SWIDTH 844 0
DWIDTH 12 0
BBX 10 5 1 1
BITMAP
0040
FEC0
0000
00C0
FEC0
ENDCHAR
STARTCHAR uni2256
ENCODING 8790
SWIDTH 720 0
DWIDTH 10 0
BBX 8 5 1 1
BITMAP
FF
18
24
18
FF
ENDCHAR
STARTCHAR uni2257
ENCODING 8791
SWIDTH 720 0
DWIDTH 10 0
BBX 8 9 1 2
BITMAP
18
24
18
00
00
FF
00
00
FF
ENDCHAR
STARTCHAR uni2258
ENCODING 8792
SWIDTH 720 0
DWIDTH 10 0
BBX 8 9 1 2
BITMAP
3C
42
81
00
00
FF
00
00
FF
ENDCHAR
STARTCHAR uni2259
ENCODING 8793
SWIDTH 720 0
DWIDTH 10 0
BBX 8 10 1 2
BITMAP
08
18
24
24
42
00
FF
00
00
FF
ENDCHAR
STARTCHAR uni225A
ENCODING 8794
SWIDTH 720 0
DWIDTH 10 0
BBX 8 11 1 2
BITMAP
42
44
24
18
18
10
00
FF
00
00
FF
ENDCHAR
STARTCHAR uni225B
ENCODING 8795
SWIDTH 720 0
DWIDTH 10 0
BBX 8 9 1 2
BITMAP
08
3C
18
18
00
FF
00
00
FF
ENDCHAR
STARTCHAR uni225C
ENCODING 8796
SWIDTH 720 0
DWIDTH 10 0
BBX 8 10 1 2
BITMAP
08
18
24
24
7E
00
FF
00
00
FF
ENDCHAR
STARTCHAR uni225D
ENCODING 8797
SWIDTH 720 0
DWIDTH 10 0
BBX 10 10 0 2
BITMAP
10C0
6580
AE80
A900
5680
0100
7F80
0000
0000
7F80
ENDCHAR
STARTCHAR uni225E
ENCODING 8798
SWIDTH 720 0
DWIDTH 10 0
BBX 8 9 1 2
BITMAP
74
4A
4A
4A
7E
FF
00
00
FF
ENDCHAR
STARTCHAR uni225F
ENCODING 8799
SWIDTH 720 0
DWIDTH 10 0
BBX 8 11 1 2
BITMAP
18
2C
08
08
10
18
00
FF
00
00
FF
ENDCHAR
STARTCHAR uni2260
ENCODING 8800
SWIDTH 720 0
DWIDTH 10 0
BBX 8 12 1 -2
BITMAP
02
04
04
04
FF
08
10
FF
20
20
20
40
ENDCHAR
STARTCHAR uni2261
ENCODING 8801
SWIDTH 720 0
DWIDTH 10 0
BBX 8 7 1 0
BITMAP
FF
00
00
FF
00
00
FF
ENDCHAR
STARTCHAR uni2262
ENCODING 8802
SWIDTH 720 0
DWIDTH 10 0
BBX 8 11 1 -2
BITMAP
02
04
FF
08
08
FF
10
10
FF
20
40
ENDCHAR
STARTCHAR uni2263
ENCODING 8803
SWIDTH 720 0
DWIDTH 10 0
BBX 8 8 1 -1
BITMAP
FF
00
FF
00
00
FF
00
FF
ENDCHAR
STARTCHAR uni2264
ENCODING 8804
SWIDTH 720 0
DWIDTH 10 0
BBX 8 10 1 -1
BITMAP
01
06
38
C0
60
18
06
01
00
FF
ENDCHAR
STARTCHAR uni2265
ENCODING 8805
SWIDTH 720 0
DWIDTH 10 0
BBX 8 10 1 -1
BITMAP
C0
30
0C
03
06
18
60
80
00
FF
ENDCHAR
STARTCHAR uni2266
ENCODING 8806
SWIDTH 720 0
DWIDTH 10 0
BBX 8 14 1 -3
BITMAP
01
03
0C
30
C0
30
0C
03
01
00
FF
00
00
FF
ENDCHAR
STARTCHAR uni2267
ENCODING 8807
SWIDTH 720 0
DWIDTH 10 0
BBX 8 14 1 -3
BITMAP
80
C0
30
0C
03
0C
30
C0
80
00
FF
00
00
FF
ENDCHAR
STARTCHAR uni2268
ENCODING 8808
SWIDTH 720 0
DWIDTH 10 0
BBX 8 15 1 -4
BITMAP
01
03
0C
30
C0
30
0C
03
01
04
FF
08
10
FF
20
ENDCHAR
STARTCHAR uni2269
ENCODING 8809
SWIDTH 720 0
DWIDTH 10 0
BBX 8 15 1 -4
BITMAP
80
C0
30
0C
03
0C
30
C0
80
04
FF
08
10
FF
20
ENDCHAR
STARTCHAR uni226A
ENCODING 8810
SWIDTH 955 0
DWIDTH 13 0
BBX 13 8 0 0
BITMAP
0088
0318
0C60
3180
E600
1980
0660
0118
ENDCHAR
STARTCHAR uni226B
ENCODING 8811
SWIDTH 955 0
DWIDTH 13 0
BBX 13 8 0 0
BITMAP
8400
6600
1980
0660
0318
0C60
3180
C600
ENDCHAR
STARTCHAR uni226C
ENCODING 8812
SWIDTH 477 0
DWIDTH 7 0
BBX 4 13 1 -3
BITMAP
D0
20
20
50
50
90
90
90
50
50
20
60
90
ENDCHAR
STARTCHAR uni226D
ENCODING 8813
SWIDTH 720 0
DWIDTH 10 0
BBX 8 10 1 -1
BITMAP
02
04
85
4A
3C
08
3C
53
A1
20
ENDCHAR
STARTCHAR uni226E
ENCODING 8814
SWIDTH 720 0
DWIDTH 10 0
BBX 8 12 1 -2
BITMAP
02
02
05
07
0C
38
C8
30
1C
23
20
40
ENDCHAR
STARTCHAR uni226F
ENCODING 8815
SWIDTH 720 0
DWIDTH 10 0
BBX 8 12 1 -2
BITMAP
02
02
84
C4
38
0C
13
1C
30
E0
20
40
ENDCHAR
STARTCHAR uni2270
ENCODING 8816
SWIDTH 720 0
DWIDTH 10 0
BBX 8 14 1 -3
BITMAP
02
02
05
0E
38
E8
68
18
16
11
20
FF
40
40
ENDCHAR
STARTCHAR uni2271
ENCODING 8817
SWIDTH 720 0
DWIDTH 10 0
BBX 8 14 1 -3
BITMAP
02
04
84
64
1C
0B
16
18
70
A0
20
FF
40
40
ENDCHAR
STARTCHAR uni2272
ENCODING 8818
SWIDTH 720 0
DWIDTH 10 0
BBX 8 12 1 -2
BITMAP
01
06
18
60
C0
38
06
01
00
71
99
86
ENDCHAR
STARTCHAR uni2273
ENCODING 8819
SWIDTH 720 0
DWIDTH 10 0
BBX 8 12 1 -2
BITMAP
80
60
18
06
03
0C
30
C0
00
71
99
86
ENDCHAR
STARTCHAR uni2274
ENCODING 8820
SWIDTH 720 0
DWIDTH 10 0
BBX 8 14 1 -3
BITMAP
04
05
07
0C
38
C8
30
1C
13
10
71
B9
A6
20
ENDCHAR
STARTCHAR uni2275
ENCODING 8821
SWIDTH 720 0
DWIDTH 10 0
BBX 8 14 1 -3
BITMAP
04
84
C8
38
0E
13
1C
30
D0
20
71
B9
C6
40
ENDCHAR
STARTCHAR uni2276
ENCODING 8822
SWIDTH 720 0
DWIDTH 10 0
BBX 8 13 1 -3
BITMAP
01
0E
30
C0
30
0E
C1
30
0C
03
1C
60
80
ENDCHAR
STARTCHAR uni2277
ENCODING 8823
SWIDTH 720 0
DWIDTH 10 0
BBX 8 13 1 -3
BITMAP
80
70
0C
03
0C
70
83
0C
30
C0
38
06
01
ENDCHAR
STARTCHAR uni2278
ENCODING 8824
SWIDTH 720 0
DWIDTH 10 0
BBX 8 15 1 -4
BITMAP
04
05
07
18
E8
68
1C
8B
70
18
17
16
38
E0
20
ENDCHAR
STARTCHAR uni2279
ENCODING 8825
SWIDTH 720 0
DWIDTH 10 0
BBX 8 15 1 -4
BITMAP
04
84
E4
18
0F
0E
38
C9
17
18
F0
70
1C
23
20
ENDCHAR
STARTCHAR uni227A
ENCODING 8826
SWIDTH 720 0
DWIDTH 10 0
BBX 8 8 1 0
BITMAP
01
01
06
18
F0
0C
02
01
ENDCHAR
STARTCHAR uni227B
ENCODING 8827
SWIDTH 720 0
DWIDTH 10 0
BBX 8 8 1 0
BITMAP
80
80
60
18
0F
38
40
80
ENDCHAR
STARTCHAR uni227C
ENCODING 8828
SWIDTH 720 0
DWIDTH 10 0
BBX 8 10 1 -1
BITMAP
01
02
0C
F0
38
06
E1
1D
02
01
ENDCHAR
STARTCHAR uni227D
ENCODING 8829
SWIDTH 720 0
DWIDTH 10 0
BBX 8 10 1 -1
BITMAP
80
40
30
0F
1C
60
87
B8
40
80
ENDCHAR
STARTCHAR uni227E
ENCODING 8830
SWIDTH 720 0
DWIDTH 10 0
BBX 8 12 1 -2
BITMAP
01
01
06
38
F0
0C
03
01
00
71
99
86
ENDCHAR
STARTCHAR uni227F
ENCODING 8831
SWIDTH 720 0
DWIDTH 10 0
BBX 8 12 1 -2
BITMAP
80
80
60
1C
0F
30
40
80
00
71
99
86
ENDCHAR
STARTCHAR uni2280
ENCODING 8832
SWIDTH 720 0
DWIDTH 10 0
BBX 8 12 1 -2
BITMAP
01
02
03
05
06
18
F8
0C
13
11
20
20
ENDCHAR
STARTCHAR uni2281
ENCODING 8833
SWIDTH 720 0
DWIDTH 10 0
BBX 8 12 1 -2
BITMAP
04
04
88
88
68
18
1F
30
60
A0
40
40
ENDCHAR
STARTCHAR uni2282
ENCODING 8834
SWIDTH 720 0
DWIDTH 10 0
BBX 8 8 1 0
BITMAP
3F
40
80
80
80
80
40
3F
ENDCHAR
STARTCHAR uni2283
ENCODING 8835
SWIDTH 720 0
DWIDTH 10 0
BBX 8 8 1 0
BITMAP
FC
02
01
01
01
01
02
FC
ENDCHAR
STARTCHAR uni2284
ENCODING 8836
SWIDTH 720 0
DWIDTH 10 0
BBX 8 12 1 -2
BITMAP
02
02
3F
44
88
88
90
90
50
3F
20
40
ENDCHAR
STARTCHAR uni2285
ENCODING 8837
SWIDTH 720 0
DWIDTH 10 0
BBX 8 12 1 -2
BITMAP
02
04
FC
0A
09
09
11
11
22
FC
40
40
ENDCHAR
STARTCHAR uni2286
ENCODING 8838
SWIDTH 720 0
DWIDTH 10 0
BBX 8 10 1 -1
BITMAP
3F
40
80
80
80
80
40
3F
00
FF
ENDCHAR
STARTCHAR uni2287
ENCODING 8839
SWIDTH 720 0
DWIDTH 10 0
BBX 8 10 1 -1
BITMAP
FC
02
01
01
01
01
02
FC
00
FF
ENDCHAR
STARTCHAR uni2288
ENCODING 8840
SWIDTH 720 0
DWIDTH 10 0
BBX 8 14 1 -3
BITMAP
02
02
3F
44
84
88
88
90
50
3F
20
FF
20
40
ENDCHAR
STARTCHAR uni2289
ENCODING 8841
SWIDTH 720 0
DWIDTH 10 0
BBX 8 14 1 -3
BITMAP
02
02
FC
06
05
09
09
11
12
FC
20
FF
40
40
ENDCHAR
STARTCHAR uni228A
ENCODING 8842
SWIDTH 720 0
DWIDTH 10 0
BBX 8 12 1 -3
BITMAP
3F
40
80
80
80
80
40
3F
08
08
FF
30
ENDCHAR
STARTCHAR uni228B
ENCODING 8843
SWIDTH 720 0
DWIDTH 10 0
BBX 8 12 1 -3
BITMAP
FC
02
01
01
01
01
02
FC
04
08
FF
30
ENDCHAR
STARTCHAR uni228C
ENCODING 8844
SWIDTH 636 0
DWIDTH 9 0
BBX 7 8 1 0
BITMAP
82
92
92
FA
92
8A
C4
38
ENDCHAR
STARTCHAR uni228D
ENCODING 8845
SWIDTH 636 0
DWIDTH 9 0
BBX 7 8 1 0
BITMAP
82
82
92
92
82
82
C4
38
ENDCHAR
STARTCHAR uni228E
ENCODING 8846
SWIDTH 636 0
DWIDTH 9 0
BBX 7 8 1 0
BITMAP
82
92
92
FE
92
92
C4
38
ENDCHAR
STARTCHAR uni228F
ENCODING 8847
SWIDTH 720 0
DWIDTH 10 0
BBX 8 8 1 0
BITMAP
FF
80
80
80
80
80
80
FF
ENDCHAR
STARTCHAR uni2290
ENCODING 8848
SWIDTH 720 0
DWIDTH 10 0
BBX 8 8 1 0
BITMAP
FF
01
01
01
01
01
01
FF
ENDCHAR
STARTCHAR uni2291
ENCODING 8849
SWIDTH 720 0
DWIDTH 10 0
BBX 8 10 1 -1
BITMAP
FF
80
80
80
80
80
80
FF
00
FF
ENDCHAR
STARTCHAR uni2292
ENCODING 8850
SWIDTH 720 0
DWIDTH 10 0
BBX 8 10 1 -1
BITMAP
FF
01
01
01
01
01
01
FF
00
FF
ENDCHAR
STARTCHAR uni2293
ENCODING 8851
SWIDTH 635 0
DWIDTH 9 0
BBX 7 8 1 0
BITMAP
FE
82
82
82
82
82
82
82
ENDCHAR
STARTCHAR uni2294
ENCODING 8852
SWIDTH 635 0
DWIDTH 9 0
BBX 7 8 1 0
BITMAP
82
82
82
82
82
82
82
FE
ENDCHAR
STARTCHAR uni2295
ENCODING 8853
SWIDTH 862 0
DWIDTH 12 0
BBX 10 11 1 -2
BITMAP
1E00
6580
44C0
8440
8440
FFC0
8440
8440
4480
6580
1E00
ENDCHAR
STARTCHAR uni2296
ENCODING 8854
SWIDTH 862 0
DWIDTH 12 0
BBX 10 11 1 -2
BITMAP
1E00
6180
4080
8040
8040
FFC0
8040
8040
4080
6180
1E00
ENDCHAR
STARTCHAR uni2297
ENCODING 8855
SWIDTH 862 0
DWIDTH 12 0
BBX 10 11 1 -2
BITMAP
1E00
6180
6180
B340
9E40
8C40
9E40
B340
6180
6180
1E00
ENDCHAR
STARTCHAR uni2298
ENCODING 8856
SWIDTH 862 0
DWIDTH 12 0
BBX 10 11 1 -2
BITMAP
1E00
6180
4180
8340
8640
8C40
9840
B040
6080
6180
1E00
ENDCHAR
STARTCHAR uni2299
ENCODING 8857
SWIDTH 862 0
DWIDTH 12 0
BBX 10 11 1 -2
BITMAP
1E00
6180
4080
8040
8040
8C40
8C40
8040
4080
6180
1E00
ENDCHAR
STARTCHAR uni229A
ENCODING 8858
SWIDTH 862 0
DWIDTH 12 0
BBX 10 11 1 -2
BITMAP
1E00
6180
4080
8040
8C40
9240
9240
8C40
4080
6180
1E00
ENDCHAR
STARTCHAR uni229B
ENCODING 8859
SWIDTH 862 0
DWIDTH 12 0
BBX 10 11 1 -2
BITMAP
1E00
6180
4C80
8440
B740
8840
B740
8440
4C80
6180
1E00
ENDCHAR
STARTCHAR uni229C
ENCODING 8860
SWIDTH 862 0
DWIDTH 12 0
BBX 10 11 1 -2
BITMAP
1E00
6180
4080
8040
BF40
8040
BF40
8040
4080
6180
1E00
ENDCHAR
STARTCHAR uni229D
ENCODING 8861
SWIDTH 862 0
DWIDTH 12 0
BBX 10 11 1 -2
BITMAP
1E00
6180
4080
8040
8040
BF40
8040
8040
4080
6180
1E00
ENDCHAR
STARTCHAR uni229E
ENCODING 8862
SWIDTH 932 0
DWIDTH 13 0
BBX 11 12 1 -2
BITMAP
FFE0
8420
8420
8420
8420
8420
FFE0
8420
8420
8420
8420
FFE0
ENDCHAR
STARTCHAR uni229F
ENCODING 8863
SWIDTH 932 0
DWIDTH 13 0
BBX 11 12 1 -2
BITMAP
FFE0
8020
8020
8020
8020
8020
FFE0
8020
8020
8020
8020
FFE0
ENDCHAR
STARTCHAR uni22A0
ENCODING 8864
SWIDTH 932 0
DWIDTH 13 0
BBX 11 12 1 -2
BITMAP
FFE0
C060
E0E0
B1A0
9B20
8E20
8620
8A20
9120
A0A0
C060
FFE0
ENDCHAR
STARTCHAR uni22A1
ENCODING 8865
SWIDTH 932 0
DWIDTH 13 0
BBX 11 12 1 -2
BITMAP
FFE0
8020
8020
8020
8020
8420
8420
8020
8020
8020
8020
FFE0
ENDCHAR
STARTCHAR uni22A2
ENCODING 8866
SWIDTH 720 0
DWIDTH 10 0
BBX 8 9 1 0
BITMAP
80
80
80
80
FF
80
80
80
80
ENDCHAR
STARTCHAR uni22A3
ENCODING 8867
SWIDTH 720 0
DWIDTH 10 0
BBX 8 9 1 0
BITMAP
01
01
01
01
FF
01
01
01
01
ENDCHAR
STARTCHAR uni22A4
ENCODING 8868
SWIDTH 720 0
DWIDTH 10 0
BBX 8 9 1 1
BITMAP
FF
08
08
08
08
08
08
08
08
ENDCHAR
STARTCHAR uni22A5
ENCODING 8869
SWIDTH 720 0
DWIDTH 10 0
BBX 8 10 1 0
BITMAP
08
08
08
08
08
08
08
08
08
FF
ENDCHAR
STARTCHAR uni22A6
ENCODING 8870
SWIDTH 509 0
DWIDTH 7 0
BBX 5 9 1 0
BITMAP
80
80
80
80
F8
80
80
80
80
ENDCHAR
STARTCHAR uni22A7
ENCODING 8871
SWIDTH 510 0
DWIDTH 7 0
BBX 5 10 1 0
BITMAP
80
80
80
F8
80
80
F8
80
80
80
ENDCHAR
STARTCHAR uni22A8
ENCODING 8872
SWIDTH 720 0
DWIDTH 10 0
BBX 8 10 1 0
BITMAP
80
80
80
FF
80
80
FF
80
80
80
ENDCHAR
STARTCHAR uni22A9
ENCODING 8873
SWIDTH 880 0
DWIDTH 12 0
BBX 11 9 1 0
BITMAP
9000
9000
9000
9000
9FE0
9000
9000
9000
9000
ENDCHAR
STARTCHAR uni22AA
ENCODING 8874
SWIDTH 880 0
DWIDTH 12 0
BBX 11 9 1 0
BITMAP
A400
A400
A400
A400
A7E0
A400
A400
A400
A400
ENDCHAR
STARTCHAR uni22AB
ENCODING 8875
SWIDTH 880 0
DWIDTH 12 0
BBX 11 10 1 0
BITMAP
9000
9000
9000
9FE0
9000
9000
9FE0
9000
9000
9000
ENDCHAR
STARTCHAR uni22AC
ENCODING 8876
SWIDTH 805 0
DWIDTH 11 0
BBX 10 9 0 0
BITMAP
2040
2080
2100
2200
3FC0
2800
3000
2000
E000
ENDCHAR
STARTCHAR uni22AD
ENCODING 8877
SWIDTH 805 0
DWIDTH 11 0
BBX 10 10 0 0
BITMAP
2040
2080
2100
3FC0
2400
2800
3FC0
2000
6000
E000
ENDCHAR
STARTCHAR uni22AE
ENCODING 8878
SWIDTH 991 0
DWIDTH 14 0
BBX 13 9 0 0
BITMAP
2418
2420
2440
2580
27F8
2400
2C00
3400
E400
ENDCHAR
STARTCHAR uni22AF
ENCODING 8879
SWIDTH 991 0
DWIDTH 14 0
BBX 13 10 0 0
BITMAP
2408
2430
2440
27F8
2500
2600
2FF8
3400
2400
E400
ENDCHAR
STARTCHAR uni22B0
ENCODING 8880
SWIDTH 720 0
DWIDTH 10 0
BBX 8 9 1 -1
BITMAP
03
05
01
0E
F0
0E
01
05
03
ENDCHAR
STARTCHAR uni22B1
ENCODING 8881
SWIDTH 720 0
DWIDTH 10 0
BBX 8 9 1 -1
BITMAP
40
A0
80
70
0F
70
80
80
60
ENDCHAR
STARTCHAR uni22B2
ENCODING 8882
SWIDTH 720 0
DWIDTH 10 0
BBX 8 8 1 0
BITMAP
01
03
0D
31
C1
31
0F
01
ENDCHAR
STARTCHAR uni22B3
ENCODING 8883
SWIDTH 720 0
DWIDTH 10 0
BBX 8 8 1 0
BITMAP
80
C0
B0
8C
83
8C
F0
C0
ENDCHAR
STARTCHAR uni22B4
ENCODING 8884
SWIDTH 720 0
DWIDTH 10 0
BBX 8 10 1 -1
BITMAP
01
07
39
E1
71
1D
03
01
00
FF
ENDCHAR
STARTCHAR uni22B5
ENCODING 8885
SWIDTH 720 0
DWIDTH 10 0
BBX 8 10 1 -1
BITMAP
80
E0
9C
83
86
B8
C0
80
00
FF
ENDCHAR
STARTCHAR uni22B6
ENCODING 8886
SWIDTH 1172 0
DWIDTH 16 0
BBX 15 5 1 1
BITMAP
601C
901C
9FFE
901C
601C
ENDCHAR
STARTCHAR uni22B7
ENCODING 8887
SWIDTH 1172 0
DWIDTH 16 0
BBX 15 5 1 1
BITMAP
601C
F022
FFE2
F012
601C
ENDCHAR
STARTCHAR uni22B8
ENCODING 8888
SWIDTH 869 0
DWIDTH 12 0
BBX 10 5 1 1
BITMAP
0180
0240
FE40
0240
0180
ENDCHAR
STARTCHAR uni22B9
ENCODING 8889
SWIDTH 720 0
DWIDTH 10 0
BBX 8 8 1 -1
BITMAP
08
08
08
E7
00
08
08
08
ENDCHAR
STARTCHAR uni22BA
ENCODING 8890
SWIDTH 491 0
DWIDTH 7 0
BBX 5 9 1 -3
BITMAP
F8
20
20
20
20
20
20
20
20
ENDCHAR
STARTCHAR uni22BB
ENCODING 8891
SWIDTH 635 0
DWIDTH 9 0
BBX 8 10 0 -2
BITMAP
81
41
42
22
24
14
14
08
00
7F
ENDCHAR
STARTCHAR uni22BC
ENCODING 8892
SWIDTH 635 0
DWIDTH 9 0
BBX 8 9 0 0
BITMAP
7F
00
08
18
14
24
22
41
C1
ENDCHAR
STARTCHAR uni22BD
ENCODING 8893
SWIDTH 635 0
DWIDTH 9 0
BBX 8 9 0 0
BITMAP
7F
80
41
41
22
22
14
14
08
ENDCHAR
STARTCHAR uni22BE
ENCODING 8894
SWIDTH 720 0
DWIDTH 10 0
BBX 8 9 1 0
BITMAP
80
80
80
C0
B0
98
88
84
FF
ENDCHAR
STARTCHAR uni22BF
ENCODING 8895
SWIDTH 933 0
DWIDTH 13 0
BBX 11 12 1 -2
BITMAP
0020
0020
0060
00A0
0120
0220
0420
0820
1020
2020
4020
FFE0
ENDCHAR
STARTCHAR uni22C0
ENCODING 8896
SWIDTH 946 0
DWIDTH 13 0
BBX 11 15 1 -4
BITMAP
0400
0400
0E00
0A00
0B00
1900
1100
1180
2080
2080
6040
4040
4060
8020
8020
ENDCHAR
STARTCHAR uni22C1
ENCODING 8897
SWIDTH 946 0
DWIDTH 13 0
BBX 11 15 1 -4
BITMAP
8020
8020
4020
4040
4040
20C0
2080
3080
1100
1100
0900
0A00
0A00
0600
0400
ENDCHAR
STARTCHAR uni22C2
ENCODING 8898
SWIDTH 946 0
DWIDTH 13 0
BBX 11 15 1 -4
BITMAP
1F00
3080
4040
4020
8020
8020
8020
8020
8020
8020
8020
8020
8020
8020
8020
ENDCHAR
STARTCHAR uni22C3
ENCODING 8899
SWIDTH 946 0
DWIDTH 13 0
BBX 11 15 1 -4
BITMAP
8020
8020
8020
8020
8020
8020
8020
8020
8020
8020
8020
C020
4040
20C0
1F00
ENDCHAR
STARTCHAR uni22C4
ENCODING 8900
SWIDTH 535 0
DWIDTH 7 0
BBX 7 7 0 0
BITMAP
10
38
64
C2
64
38
10
ENDCHAR
STARTCHAR uni22C5
ENCODING 8901
SWIDTH 293 0
DWIDTH 4 0
BBX 2 2 1 3
BITMAP
C0
C0
ENDCHAR
STARTCHAR uni22C6
ENCODING 8902
SWIDTH 716 0
DWIDTH 10 0
BBX 10 8 0 0
BITMAP
0400
0C00
0C00
FFC0
1F00
1E00
1E00
2100
ENDCHAR
STARTCHAR uni22C7
ENCODING 8903
SWIDTH 720 0
DWIDTH 10 0
BBX 8 8 1 0
BITMAP
99
5A
26
3C
FF
3C
7A
99
ENDCHAR
STARTCHAR uni22C8
ENCODING 8904
SWIDTH 829 0
DWIDTH 12 0
BBX 10 9 1 -1
BITMAP
8040
C0C0
A340
9E40
8C40
9640
A140
C0C0
8040
ENDCHAR
STARTCHAR uni22C9
ENCODING 8905
SWIDTH 829 0
DWIDTH 12 0
BBX 9 9 1 -1
BITMAP
8080
C180
A300
9C00
8C00
9600
A300
C180
8080
ENDCHAR
STARTCHAR uni22CA
ENCODING 8906
SWIDTH 829 0
DWIDTH 12 0
BBX 9 9 1 -1
BITMAP
8080
4180
2380
1C80
0C80
1680
2380
4180
8080
ENDCHAR
STARTCHAR uni22CB
ENCODING 8907
SWIDTH 829 0
DWIDTH 12 0
BBX 10 9 1 -1
BITMAP
C000
6000
3000
1800
0C00
1600
2300
4180
80C0
ENDCHAR
STARTCHAR uni22CC
ENCODING 8908
SWIDTH 829 0
DWIDTH 12 0
BBX 10 9 1 -1
BITMAP
00C0
0100
0200
0400
0C00
1600
2300
4180
80C0
ENDCHAR
STARTCHAR uni22CD
ENCODING 8909
SWIDTH 720 0
DWIDTH 10 0
BBX 8 6 1 1
BITMAP
86
99
61
00
00
FF
ENDCHAR
STARTCHAR uni22CE
ENCODING 8910
SWIDTH 594 0
DWIDTH 8 0
BBX 8 8 0 0
BITMAP
C3
22
24
14
18
18
18
08
ENDCHAR
STARTCHAR uni22CF
ENCODING 8911
SWIDTH 594 0
DWIDTH 8 0
BBX 8 8 0 0
BITMAP
08
18
18
18
14
24
22
C3
ENDCHAR
STARTCHAR uni22D0
ENCODING 8912
SWIDTH 720 0
DWIDTH 10 0
BBX 8 8 1 0
BITMAP
3F
40
9F
A0
A0
9F
40
3F
ENDCHAR
STARTCHAR uni22D1
ENCODING 8913
SWIDTH 720 0
DWIDTH 10 0
BBX 8 8 1 0
BITMAP
FC
02
F9
05
05
F9
02
FC
ENDCHAR
STARTCHAR uni22D2
ENCODING 8914
SWIDTH 635 0
DWIDTH 9 0
BBX 7 8 1 0
BITMAP
38
C4
BA
AA
AA
AA
AA
AA
ENDCHAR
STARTCHAR uni22D3
ENCODING 8915
SWIDTH 635 0
DWIDTH 9 0
BBX 7 8 1 0
BITMAP
AA
AA
AA
AA
AA
BA
C4
38
ENDCHAR
STARTCHAR uni22D4
ENCODING 8916
SWIDTH 635 0
DWIDTH 9 0
BBX 7 10 1 0
BITMAP
10
10
7C
D6
92
92
92
92
92
92
ENDCHAR
STARTCHAR uni22D5
ENCODING 8917
SWIDTH 720 0
DWIDTH 10 0
BBX 8 12 1 -2
BITMAP
24
24
24
24
FF
24
24
FF
24
24
24
24
ENDCHAR
STARTCHAR uni22D6
ENCODING 8918
SWIDTH 720 0
DWIDTH 10 0
BBX 8 8 1 0
BITMAP
01
06
18
66
E6
18
06
01
ENDCHAR
STARTCHAR uni22D7
ENCODING 8919
SWIDTH 720 0
DWIDTH 10 0
BBX 8 8 1 0
BITMAP
80
60
18
66
67
18
60
80
ENDCHAR
STARTCHAR uni22D8
ENCODING 8920
SWIDTH 1304 0
DWIDTH 18 0
BBX 17 8 1 0
BITMAP
010880
063300
18CC00
633000
CC6000
331800
0CC600
033180
ENDCHAR
STARTCHAR uni22D9
ENCODING 8921
SWIDTH 1304 0
DWIDTH 18 0
BBX 17 8 1 0
BITMAP
888000
CC6000
339800
0C6600
033380
1CCC00
633000
8C4000
ENDCHAR
STARTCHAR uni22DA
ENCODING 8922
SWIDTH 720 0
DWIDTH 10 0
BBX 8 17 1 -5
BITMAP
01
06
38
E0
18
07
01
00
FF
00
00
E0
18
07
1C
60
80
ENDCHAR
STARTCHAR uni22DB
ENCODING 8923
SWIDTH 720 0
DWIDTH 10 0
BBX 8 17 1 -5
BITMAP
80
60
1C
07
18
E0
80
00
FF
00
00
07
18
E0
38
06
01
ENDCHAR
STARTCHAR uni22DC
ENCODING 8924
SWIDTH 720 0
DWIDTH 10 0
BBX 8 10 1 -1
BITMAP
FF
00
01
06
18
60
E0
18
06
01
ENDCHAR
STARTCHAR uni22DD
ENCODING 8925
SWIDTH 720 0
DWIDTH 10 0
BBX 8 10 1 -1
BITMAP
FF
00
80
60
18
06
03
1C
70
80
ENDCHAR
STARTCHAR uni22DE
ENCODING 8926
SWIDTH 720 0
DWIDTH 10 0
BBX 8 10 1 -1
BITMAP
01
02
1D
E1
06
38
F0
0C
02
01
ENDCHAR
STARTCHAR uni22DF
ENCODING 8927
SWIDTH 720 0
DWIDTH 10 0
BBX 8 10 1 -1
BITMAP
80
40
B8
87
60
1C
0F
30
40
80
ENDCHAR
STARTCHAR uni22E0
ENCODING 8928
SWIDTH 720 0
DWIDTH 10 0
BBX 8 14 1 -3
BITMAP
02
02
03
06
1C
E4
1C
0A
E9
1D
12
11
20
20
ENDCHAR
STARTCHAR uni22E1
ENCODING 8929
SWIDTH 720 0
DWIDTH 10 0
BBX 8 14 1 -3
BITMAP
04
08
88
C8
30
1F
1E
20
E3
BC
60
C0
40
40
ENDCHAR
STARTCHAR uni22E2
ENCODING 8930
SWIDTH 720 0
DWIDTH 10 0
BBX 8 14 1 -3
BITMAP
02
02
FF
84
84
88
88
90
90
FF
20
FF
40
40
ENDCHAR
STARTCHAR uni22E3
ENCODING 8931
SWIDTH 720 0
DWIDTH 10 0
BBX 8 14 1 -3
BITMAP
02
02
FF
05
05
09
09
09
11
FF
20
FF
20
40
ENDCHAR
STARTCHAR uni22E4
ENCODING 8932
SWIDTH 720 0
DWIDTH 10 0
BBX 8 12 1 -3
BITMAP
FF
80
80
80
80
80
80
FF
04
08
FF
30
ENDCHAR
STARTCHAR uni22E5
ENCODING 8933
SWIDTH 720 0
DWIDTH 10 0
BBX 8 12 1 -3
BITMAP
FF
01
01
01
01
01
01
FF
04
08
FF
30
ENDCHAR
STARTCHAR uni22E6
ENCODING 8934
SWIDTH 720 0
DWIDTH 10 0
BBX 8 13 1 -4
BITMAP
01
06
18
E0
60
18
06
01
0C
79
99
96
30
ENDCHAR
STARTCHAR uni22E7
ENCODING 8935
SWIDTH 720 0
DWIDTH 10 0
BBX 8 13 1 -4
BITMAP
80
60
18
07
06
18
60
80
0C
79
99
96
30
ENDCHAR
STARTCHAR uni22E8
ENCODING 8936
SWIDTH 720 0
DWIDTH 10 0
BBX 8 13 1 -4
BITMAP
01
03
0C
F0
78
06
01
01
0C
79
99
96
30
ENDCHAR
STARTCHAR uni22E9
ENCODING 8937
SWIDTH 720 0
DWIDTH 10 0
BBX 8 13 1 -4
BITMAP
80
C0
30
0F
1E
60
80
80
0C
79
99
96
30
ENDCHAR
STARTCHAR uni22EA
ENCODING 8938
SWIDTH 650 0
DWIDTH 9 0
BBX 8 12 0 -2
BITMAP
01
02
03
03
0D
35
E9
19
17
11
20
20
ENDCHAR
STARTCHAR uni22EB
ENCODING 8939
SWIDTH 650 0
DWIDTH 9 0
BBX 8 12 1 -2
BITMAP
04
04
88
C8
B0
9C
97
B8
E0
C0
40
C0
ENDCHAR
STARTCHAR uni22EC
ENCODING 8940
SWIDTH 650 0
DWIDTH 9 0
BBX 8 14 0 -3
BITMAP
02
02
03
07
1D
E5
39
0D
0B
11
10
FF
20
20
ENDCHAR
STARTCHAR uni22ED
ENCODING 8941
SWIDTH 650 0
DWIDTH 9 0
BBX 8 14 1 -3
BITMAP
04
08
88
E8
98
97
9C
B0
E0
A0
20
FF
40
40
ENDCHAR
STARTCHAR uni22EE
ENCODING 8942
SWIDTH 519 0
DWIDTH 7 0
BBX 1 10 3 -1
BITMAP
80
80
00
00
80
80
00
00
80
80
ENDCHAR
STARTCHAR uni22EF
ENCODING 8943
SWIDTH 953 0
DWIDTH 13 0
BBX 11 2 1 3
BITMAP
4420
C660
ENDCHAR
STARTCHAR uni22F0
ENCODING 8944
SWIDTH 962 0
DWIDTH 13 0
BBX 8 8 3 0
BITMAP
02
03
00
10
18
00
80
80
ENDCHAR
STARTCHAR uni22F1
ENCODING 8945
SWIDTH 962 0
DWIDTH 13 0
BBX 8 8 3 0
BITMAP
80
80
00
10
18
00
02
03
ENDCHAR
STARTCHAR uni22F2
ENCODING 8946
SWIDTH 838 0
DWIDTH 12 0
BBX 10 8 1 0
BITMAP
0FC0
3000
2000
FFC0
2000
2000
1000
0FC0
ENDCHAR
STARTCHAR uni22F3
ENCODING 8947
SWIDTH 720 0
DWIDTH 10 0
BBX 8 8 1 0
BITMAP
3F
40
81
FF
81
C1
40
3F
ENDCHAR
STARTCHAR uni22F4
ENCODING 8948
SWIDTH 497 0
DWIDTH 7 0
BBX 5 6 1 1
BITMAP
78
80
F8
88
C8
78
ENDCHAR
STARTCHAR uni22F5
ENCODING 8949
SWIDTH 720 0
DWIDTH 10 0
BBX 8 11 1 0
BITMAP
08
18
00
3F
40
80
FF
80
C0
40
3F
ENDCHAR
STARTCHAR uni22F6
ENCODING 8950
SWIDTH 720 0
DWIDTH 10 0
BBX 8 10 1 0
BITMAP
FF
00
3F
40
80
FF
80
C0
40
3F
ENDCHAR
STARTCHAR uni22F7
ENCODING 8951
SWIDTH 497 0
DWIDTH 7 0
BBX 5 8 1 1
BITMAP
F8
00
78
80
F8
80
C0
78
ENDCHAR
STARTCHAR uni22F8
ENCODING 8952
SWIDTH 720 0
DWIDTH 10 0
BBX 8 10 1 -3
BITMAP
3F
40
80
FF
80
C0
40
3F
00
FF
ENDCHAR
STARTCHAR uni22F9
ENCODING 8953
SWIDTH 720 0
DWIDTH 10 0
BBX 8 8 1 0
BITMAP
3F
40
C0
FF
FF
C0
40
3F
ENDCHAR
STARTCHAR uni22FA
ENCODING 8954
SWIDTH 838 0
DWIDTH 12 0
BBX 10 8 1 0
BITMAP
FC00
0200
0100
FFC0
0100
0200
0600
FC00
ENDCHAR
STARTCHAR uni22FB
ENCODING 8955
SWIDTH 720 0
DWIDTH 10 0
BBX 8 8 1 0
BITMAP
FC
02
81
FF
81
83
02
FC
ENDCHAR
STARTCHAR uni22FC
ENCODING 8956
SWIDTH 497 0
DWIDTH 7 0
BBX 5 6 1 1
BITMAP
F0
08
F8
88
98
F0
ENDCHAR
STARTCHAR uni22FD
ENCODING 8957
SWIDTH 720 0
DWIDTH 10 0
BBX 8 10 1 0
BITMAP
FF
00
FC
02
01
FF
01
03
02
FC
ENDCHAR
STARTCHAR uni22FE
ENCODING 8958
SWIDTH 497 0
DWIDTH 7 0
BBX 5 8 1 1
BITMAP
F8
00
F0
08
F8
08
18
F0
ENDCHAR
STARTCHAR uni22FF
ENCODING 8959
SWIDTH 932 0
DWIDTH 13 0
BBX 11 12 1 -2
BITMAP
FFE0
8000
8000
8000
8000
FFE0
8000
8000
8000
8000
8000
FFE0
ENDCHAR
STARTCHAR uni2300
ENCODING 8960
SWIDTH 620 0
DWIDTH 9 0
BBX 8 7 0 0
BITMAP
1D
22
45
49
51
22
DC
ENDCHAR
STARTCHAR uni2301
ENCODING 8961
SWIDTH 598 0
DWIDTH 8 0
BBX 7 4 1 2
BITMAP
20
90
7C
32
ENDCHAR
STARTCHAR uni2302
ENCODING 8962
SWIDTH 948 0
DWIDTH 13 0
BBX 11 11 1 0
BITMAP
0400
0A00
1180
20C0
C060
8020
8020
8020
8020
8020
FFE0
ENDCHAR
STARTCHAR uni2303
ENCODING 8963
SWIDTH 630 0
DWIDTH 9 0
BBX 7 5 1 5
BITMAP
10
10
28
44
82
ENDCHAR
STARTCHAR uni2304
ENCODING 8964
SWIDTH 630 0
DWIDTH 9 0
BBX 7 4 1 0
BITMAP
82
44
28
10
ENDCHAR
STARTCHAR uni2305
ENCODING 8965
SWIDTH 635 0
DWIDTH 9 0
BBX 7 8 1 0
BITMAP
FE
00
10
28
28
44
44
82
ENDCHAR
STARTCHAR uni2306
ENCODING 8966
SWIDTH 635 0
DWIDTH 9 0
BBX 7 10 1 0
BITMAP
FE
00
FE
00
10
28
28
44
44
82
ENDCHAR
STARTCHAR uni2307
ENCODING 8967
SWIDTH 470 0
DWIDTH 7 0
BBX 3 13 2 -3
BITMAP
80
C0
20
60
80
80
C0
20
60
80
80
C0
20
ENDCHAR
STARTCHAR uni2308
ENCODING 8968
SWIDTH 349 0
DWIDTH 5 0
BBX 3 13 1 -2
BITMAP
E0
80
80
80
80
80
80
80
80
80
80
80
80
ENDCHAR
STARTCHAR uni2309
ENCODING 8969
SWIDTH 349 0
DWIDTH 5 0
BBX 4 13 0 -2
BITMAP
F0
10
10
10
10
10
10
10
10
10
10
10
10
ENDCHAR
STARTCHAR uni230A
ENCODING 8970
SWIDTH 349 0
DWIDTH 5 0
BBX 3 13 1 -3
BITMAP
80
80
80
80
80
80
80
80
80
80
80
80
E0
ENDCHAR
STARTCHAR uni230B
ENCODING 8971
SWIDTH 349 0
DWIDTH 5 0
BBX 4 13 0 -3
BITMAP
10
10
10
10
10
10
10
10
10
10
10
10
F0
ENDCHAR
STARTCHAR uni230C
ENCODING 8972
SWIDTH 474 0
DWIDTH 7 0
BBX 5 5 1 -3
BITMAP
78
80
80
80
80
ENDCHAR
STARTCHAR uni230D
ENCODING 8973
SWIDTH 474 0
DWIDTH 7 0
BBX 5 5 1 -3
BITMAP
F0
08
08
08
08
ENDCHAR
STARTCHAR uni230E
ENCODING 8974
SWIDTH 474 0
DWIDTH 7 0
BBX 5 6 1 7
BITMAP
80
80
80
80
80
78
ENDCHAR
STARTCHAR uni230F
ENCODING 8975
SWIDTH 474 0
DWIDTH 7 0
BBX 5 6 1 7
BITMAP
08
08
08
08
08
F0
ENDCHAR
STARTCHAR uni2310
ENCODING 8976
SWIDTH 614 0
DWIDTH 9 0
BBX 7 4 1 2
BITMAP
FE
80
80
80
ENDCHAR
STARTCHAR uni2311
ENCODING 8977
SWIDTH 535 0
DWIDTH 7 0
BBX 5 5 1 1
BITMAP
F8
88
88
88
F8
ENDCHAR
STARTCHAR uni2312
ENCODING 8978
SWIDTH 780 0
DWIDTH 11 0
BBX 9 5 1 0
BITMAP
3E00
6300
8180
8080
8080
ENDCHAR
STARTCHAR uni2313
ENCODING 8979
SWIDTH 780 0
DWIDTH 11 0
BBX 9 5 1 0
BITMAP
3C00
6300
8180
8080
FF80
ENDCHAR
STARTCHAR uni2314
ENCODING 8980
SWIDTH 604 0
DWIDTH 8 0
BBX 8 7 0 1
BITMAP
3E
C1
42
22
14
18
08
ENDCHAR
STARTCHAR uni2315
ENCODING 8981
SWIDTH 867 0
DWIDTH 12 0
BBX 11 12 0 -3
BITMAP
0780
1840
1020
2020
2020
2020
2020
1020
1840
2780
C000
4000
ENDCHAR
STARTCHAR uni2316
ENCODING 8982
SWIDTH 1126 0
DWIDTH 16 0
BBX 14 14 1 -3
BITMAP
0200
0200
0200
0F80
1A60
1220
2210
FFFC
2210
1220
1A40
0F80
0200
0200
ENDCHAR
STARTCHAR uni2317
ENCODING 8983
SWIDTH 1126 0
DWIDTH 16 0
BBX 14 14 1 -3
BITMAP
1040
1040
1040
1040
FFFC
1040
1040
1040
1040
1040
FFFC
1040
1040
1040
ENDCHAR
STARTCHAR uni2318
ENCODING 8984
SWIDTH 948 0
DWIDTH 13 0
BBX 11 12 1 -2
BITMAP
70E0
9120
8920
8920
7FE0
0900
0900
7FE0
8920
8920
9120
70E0
ENDCHAR
STARTCHAR uni2319
ENCODING 8985
SWIDTH 614 0
DWIDTH 9 0
BBX 7 4 1 2
BITMAP
80
80
80
FE
ENDCHAR
STARTCHAR uni231A
ENCODING 8986
SWIDTH 720 0
DWIDTH 10 0
BBX 8 11 1 -1
BITMAP
3C
24
3C
46
89
FB
81
43
7E
24
3C
ENDCHAR
STARTCHAR uni231B
ENCODING 8987
SWIDTH 633 0
DWIDTH 9 0
BBX 7 9 1 0
BITMAP
FE
44
64
58
38
58
54
7C
FE
ENDCHAR
STARTCHAR uni231C
ENCODING 8988
SWIDTH 474 0
DWIDTH 7 0
BBX 5 5 1 5
BITMAP
F8
80
80
80
80
ENDCHAR
STARTCHAR uni231D
ENCODING 8989
SWIDTH 474 0
DWIDTH 7 0
BBX 5 5 1 5
BITMAP
F8
08
08
08
08
ENDCHAR
STARTCHAR uni231E
ENCODING 8990
SWIDTH 474 0
DWIDTH 7 0
BBX 5 6 1 -3
BITMAP
80
80
80
80
80
F8
ENDCHAR
STARTCHAR uni231F
ENCODING 8991
SWIDTH 474 0
DWIDTH 7 0
BBX 5 6 1 -3
BITMAP
08
08
08
08
08
F8
ENDCHAR
STARTCHAR uni2320
ENCODING 8992
SWIDTH 767 0
DWIDTH 11 0
BBX 5 23 4 0
BITMAP
38
48
48
40
40
C0
C0
C0
C0
C0
C0
C0
C0
C0
C0
C0
C0
C0
C0
C0
C0
C0
C0
ENDCHAR
STARTCHAR uni2321
ENCODING 8993
SWIDTH 767 0
DWIDTH 11 0
BBX 6 27 0 0
BITMAP
0C
0C
0C
0C
0C
0C
0C
0C
0C
0C
0C
0C
0C
0C
0C
0C
0C
08
08
08
08
08
08
08
D0
D0
60
ENDCHAR
STARTCHAR uni2322
ENCODING 8994
SWIDTH 1043 0
DWIDTH 15 0
BBX 13 3 1 2
BITMAP
1F80
6060
8018
ENDCHAR
STARTCHAR uni2323
ENCODING 8995
SWIDTH 1043 0
DWIDTH 15 0
BBX 13 3 1 2
BITMAP
8008
6030
1FC0
ENDCHAR
STARTCHAR uni2324
ENCODING 8996
SWIDTH 630 0
DWIDTH 9 0
BBX 7 4 1 5
BITMAP
D6
28
4C
86
ENDCHAR
STARTCHAR uni2325
ENCODING 8997
SWIDTH 695 0
DWIDTH 10 0
BBX 9 9 0 0
BITMAP
F380
1000
0800
0800
0800
0400
0400
0200
0380
ENDCHAR
STARTCHAR uni2326
ENCODING 8998
SWIDTH 987 0
DWIDTH 14 0
BBX 12 10 2 0
BITMAP
FF00
8080
A280
A440
9820
9830
A440
A280
8080
FF00
ENDCHAR
STARTCHAR uni2327
ENCODING 8999
SWIDTH 934 0
DWIDTH 13 0
BBX 9 14 2 -2
BITMAP
4100
4100
FF80
A280
9480
9480
8880
8880
9480
9480
A280
FF80
4100
4100
ENDCHAR
STARTCHAR uni2328
ENCODING 9000
SWIDTH 1235 0
DWIDTH 17 0
BBX 15 7 1 1
BITMAP
FFFE
8002
BDEE
B7BE
AF7E
8002
FFFE
ENDCHAR
STARTCHAR uni2329
ENCODING 9001
SWIDTH 409 0
DWIDTH 6 0
BBX 4 14 1 -3
BITMAP
10
20
20
20
40
40
80
80
40
40
40
20
20
10
ENDCHAR
STARTCHAR uni232A
ENCODING 9002
SWIDTH 409 0
DWIDTH 6 0
BBX 4 14 1 -3
BITMAP
80
80
40
40
20
20
20
10
20
20
40
40
80
80
ENDCHAR
STARTCHAR uni232B
ENCODING 9003
SWIDTH 987 0
DWIDTH 14 0
BBX 12 10 0 0
BITMAP
0FF0
1010
2450
4290
4310
C310
4290
2450
1010
0FF0
ENDCHAR
STARTCHAR uni232C
ENCODING 9004
SWIDTH 948 0
DWIDTH 13 0
BBX 11 13 1 -3
BITMAP
0400
0B00
3580
C660
A1A0
A060
A020
A060
A1A0
C660
3480
0B00
0400
ENDCHAR
STARTCHAR uni232D
ENCODING 9005
SWIDTH 1009 0
DWIDTH 14 0
BBX 12 11 1 -2
BITMAP
0410
0410
0F20
19A0
10C0
30C0
3080
5980
4F00
8100
8200
ENDCHAR
STARTCHAR uni232E
ENCODING 9006
SWIDTH 639 0
DWIDTH 9 0
BBX 8 8 0 -2
BITMAP
1E
21
2F
39
B3
BE
C0
F0
ENDCHAR
STARTCHAR uni232F
ENCODING 9007
SWIDTH 592 0
DWIDTH 8 0
BBX 8 5 0 1
BITMAP
3C
00
FF
00
3C
ENDCHAR
STARTCHAR uni2330
ENCODING 9008
SWIDTH 685 0
DWIDTH 10 0
BBX 10 10 0 0
BITMAP
1080
3980
5340
2100
2100
2200
4200
4200
4400
FC00
ENDCHAR
ENDFONT
